<svg id="Calque_1" data-name="Calque 1" xmlns="http://www.w3.org/2000/svg" viewBox="0 0 17.84 18"><g id="motif"><rect id="milieu" x="1.89" y="3.29" width="14.06" height="11.42" rx="0.5" style="fill:#fff"/><g id="barre-bas"><g id="dots"><rect y="15.55" width="1.41" height="1.4" rx="0.2" style="fill:#fff"/><rect x="5.1" y="15.55" width="1.41" height="1.4" rx="0.2" style="fill:#fff"/><rect x="7.65" y="15.55" width="1.41" height="1.4" rx="0.2" style="fill:#fff"/><rect x="2.55" y="15.55" width="1.41" height="1.4" rx="0.2" style="fill:#fff"/><rect x="10.2" y="15.55" width="1.41" height="1.4" rx="0.2" style="fill:#fff"/><rect x="12.75" y="15.55" width="1.41" height="1.4" rx="0.2" style="fill:#fff"/><rect x="15.3" y="15.55" width="1.41" height="1.4" rx="0.2" style="fill:#fff"/></g></g><g id="barre-haut"><g id="dots-2" data-name="dots"><rect y="1.05" width="1.41" height="1.4" rx="0.2" style="fill:#fff"/><rect x="5.1" y="1.05" width="1.41" height="1.4" rx="0.2" style="fill:#fff"/><rect x="7.65" y="1.05" width="1.41" height="1.4" rx="0.2" style="fill:#fff"/><rect x="2.55" y="1.05" width="1.41" height="1.4" rx="0.2" style="fill:#fff"/><rect x="10.2" y="1.05" width="1.41" height="1.4" rx="0.2" style="fill:#fff"/><rect x="12.75" y="1.05" width="1.41" height="1.4" rx="0.2" style="fill:#fff"/><rect x="15.3" y="1.05" width="1.41" height="1.4" rx="0.2" style="fill:#fff"/></g></g></g></svg> 
