<?xml version="1.0" encoding="utf-8"?>
<!-- Generator: Adobe Adobe Illustrator 28.3.0, SVG Export Plug-In . SVG Version: 6.00 Build 0)  -->
<svg version="1.1" id="Layer_1" xmlns="http://www.w3.org/2000/svg" xmlns:xlink="http://www.w3.org/1999/xlink" x="0px" y="0px"
	 width="500px" height="500px" viewBox="0 0 500 500" style="enable-background:new 0 0 500 500;" xml:space="preserve">
<style type="text/css">
	.st0{fill:#F08221;}
	.st1{fill:#225125;}
	.st2{fill:#F14349;}
	.st3{fill:#31409B;}
	.st4{fill:#FFFFFF;}
</style>
<g>
	<path class="st0" d="M361.85,249.51l-79.79,45.08c0,0-12.62,25.52-0.46,45.2c12.17,19.68,47.41,9.2,47.41,9.2l42.08-20.83
		l55.66-37.78L361.85,249.51z"/>
	<path class="st1" d="M303.7,215.83c-10.2-10.82-26.82-14.51-23.9-39.76c2.93-25.25,20.53-34.6,37-31.34s74.11,35.24,74.11,35.24
		s63.46,35.82,69.75,42.12c6.3,6.3,20.35,26.47,4.84,44.74c-15.51,18.27-28.02,22.34-43.34,13.74s-69.04-39.11-70.49-39.11
		S303.7,215.83,303.7,215.83z"/>
	<path class="st2" d="M137.9,253.99l80.89-49.21c0,0,12.62-25.52,0.46-45.2s-47.41-9.2-47.41-9.2l-42.08,20.83l-55.66,37.78
		L137.9,253.99z"/>
	<path class="st3" d="M197.15,283.54c10.2,10.82,26.82,14.51,23.9,39.76c-2.93,25.25-20.53,34.6-37,31.34s-74.11-35.24-74.11-35.24
		s-63.46-35.82-69.75-42.12c-6.3-6.3-20.35-26.47-4.84-44.74s28.02-22.34,43.34-13.74s69.04,39.11,70.49,39.11
		C150.63,257.91,197.15,283.54,197.15,283.54z"/>
	<g>
		<g>
			<path class="st4" d="M475.98,245.96c-0.63-1.87-0.69-4.43,0.11-6.14c0.97-2.06,0.05-2.59-1.21-3.42
				c-2.69-1.76-2.91-5.9-1.99-6.86c1.95-2.03,0.6-2.4-0.37-3.56c-4.42-5.32-11.28-7.65-15.73-12.98c-1.86-2.23-2.65-7.03-7.49-4.06
				c-0.14,0.09-0.68-0.5-1.06-0.74c-8.18-5.17-16.39-10.29-24.53-15.52c-3.83-2.46-7.69-4.88-11.04-8.06
				c-0.73-0.69-3.23-2.87-3.85-0.4c-0.71,2.81-1.69,1.15-2.5,0.69c-5.61-3.13-11.16-6.35-16.74-9.53c-0.93,0.27-1.87,0.54-2.8,0.8
				c0,0,0,0,0,0c-6.51-1.6-10.05-7.73-16.3-9.92c1.13-1.21,2.55-0.02,3.1-1.52c-3.35-4.29-8.65-4.98-13.2-7.09
				c-5.63-2.62-12.54-2.41-17.02-7.62c-0.32-0.38-1.09-0.72-1.52-0.6c-5.7,1.62-9.48-2.16-13.7-4.74c-1.46-0.66-2.25-1.72-2.06-3.36
				c-2.12-0.29-4.52-0.02-5.37-2.76c-2.01-0.29-4.48-2.12-5.31,1.6c-0.63,1.97-2.2,0.81-3.36,1c0,0,0,0,0,0
				c-0.87,1.83-2.24,1.27-3.68,0.81c0.37-1.47,1.91-0.99,2.66-1.72c0.58-0.67,1.15-1.34,1.73-2c-0.76-1.03-1.97-0.62-2.96-0.92l0,0
				h0c-1.2-0.2-2.29-0.3-3.35,0.67c-3.43,3.13-7.91,3.98-12.09,5.68c-0.42-1.81,2.3-2.33,0.93-4.34
				c-7.21,4.78-13.49,10.19-16.04,18.84c-1.14,3-2.35-0.59-3.51,0.03c0,0,0,0,0,0c-0.03,2.33-0.07,4.66-0.1,6.99l0,0
				c0.37,0.4,0.74,0.8,1.1,1.19c0.7,0.17,1.74,0.36,1.44,1.2c-0.29,0.81-1.23,1.4-1.88,2.09c-0.25-0.5-0.49-1-0.74-1.5
				c-3.4,4.91-1.5,10.37-1.2,15.5c0.17,2.92,0.62,5.86,0.46,8.83c0,0,0,0,0,0c1.45,3.88,1.06,8.05,1.96,12.06
				c1.16,5.18,1.87,10.34,6.18,14.07c3.47-0.71,1.4-3.22,1.43-4.9c0.02-1.04-0.94-2.09-1.45-3.14c-1.23-2.24-1.16-2.36,1.81-2.83
				l-0.09-0.03c0,0,0,0,0,0c-0.23-0.3-0.47-0.6-0.7-0.91v0l0,0c-2.94-2.85-2.74-4.22,0.8-5.36c2.7,1.43,1.57,4.08,2,6.24
				c0,0,0,0,0,0c4.82,3.09,9.96,5.8,14.41,9.36c10.15,8.11,21.5,14.2,32.88,20.26c6.68,3.56,13.6,6.65,20.95,10.2
				c-4.52,2.59-7.9,5.3-12.11,7.02c-6.3,2.59-12.91,4.85-18.43,8.96c-6.34,4.73-13.1,8.8-20.14,12.24
				c-3.61,1.76-6.61,3.64-9.27,6.64c-1.5,1.68-3.38,5.2-6.84,2.01c-0.73-0.68-1.57,0.76-1.59,1.01c-0.36,4.97-8.27,3.89-7.69,9.57
				c0.01,0.12-0.75,0.44-1.17,0.46c-2.68,0.16-3.23,2.24-3.91,4.22c-0.04,4.2,0.8,8.47-0.21,12.6c-0.06,0.94-0.3,1.87-0.98,2.75
				c0,0,0,0,0,0c0,0,0,0,0,0c0,0,0,0,0,0c-1.86,3.04,1.86,6.86-1.43,9.72c-1.24-0.22-1.73-1.48-2.64-2.19
				c-0.79-0.61-1.46-1.84-2.64-1.06c-1.25,0.82-1.14,2.53-0.36,3.2c4.85,4.16,4.74,10.19,6.18,15.63c0.25,0.94,0.39,2.06,1.49,1.65
				c4.5-1.72,4.84,2.06,6.22,4.5c1.21,0.23,3.16-0.64,2.84,1.87c1.36,0.49,2.2,1.5,2.78,2.78c2.9,2.79,5.86,5.51,8.67,8.39
				c1.75,1.79,3.95,2.57,6.22,3.12c1.22,0.3,2.9,0.48,3.7-0.9c1.08-1.86-1.48-1.84-1.83-3.03c-2.19-1.32-4.35-2.66-5.55-5.35
				c3.19-0.82,4.52,1.73,6.44,2.94c0.32,0.09,0.63,0.22,0.91,0.44c1.84,1.43,4.47,0.27,6.3,1.9c0.27,0.24,1.25,0.06,1.62-0.26
				c0.66-0.56,0.3-1.3-0.09-1.98c-0.46-0.81-1.81-1.07-1.52-2.48c4.37-1.3,8.26,4.26,12.72,0.93c0,0,0,0,0,0
				c-1.28-2.42-0.36-3.05,2.03-2.46c2.65,0.35,5.25-1.15,7.91-0.18c0,0,0,0,0,0c0,0,0,0,0,0c0.39,0.63,0.64,1.41,1.18,1.85
				c2.45,2,3.81-0.73,5.58-1.48c1.17-0.5,1.6-1.58-0.07-2.12c-1.56-0.5-1.91-1.41-1.15-2.69c1.49-2.49,4.35-2.96,6.73-3.85
				c0.94-0.35-0.05,2.1,1.24,3.12c8.22-4.44,15.61-10.46,23.79-15.15c15.17-8.68,29.45-18.87,45.02-26.85
				c8.09-4.15,15.85-8.9,24.15-12.66c2.19-0.99,5.06-1.1,6.5-3.57c0.19-2.1,2.45-1.39,3.35-2.45c0.41-0.48,0.74-0.88,1.04-1.21
				c0.17-0.25,0.36-0.44,0.57-0.59c1.14-1.06,2.02-1.04,5.2-0.86l0,0c0,0,0,0,0,0c1.97-0.31,4.02-0.38,5.89-0.98
				c3.08-0.99,3.63-3.47,1.1-5.13c-1.67-1.1-1.08-1.46-0.11-2.54c2.24-2.47,4.28-5.13,6.39-7.72c0.16-1.66-0.42-3.42,0.7-5.28
				c1.64,1.08,0.97,2.99,1.68,4.25c0.07,0.1,0.14,0.19,0.21,0.31l0.15-0.1c0.68,0.33,1.36,0.65,2.04,0.98c0,0,0,0,0,0
				C476.64,260.5,478.51,253.51,475.98,245.96z M280.9,200.59c-0.45-0.28-0.99-0.43-1.06-0.7c-0.19-0.72,0.4-1,0.98-0.92
				c0.31,0.04,0.74,0.44,0.78,0.72C281.64,199.93,281.19,200.24,280.9,200.59z M332.35,262.02c0.6-0.07,1.27-0.05,1.15,0.81
				c-0.04,0.32-0.48,0.58-0.75,0.9c-0.54-0.2-1.21-0.26-1.28-0.51C331.28,262.6,331.66,262.1,332.35,262.02z M329.02,264.16
				c-1.35,2.87-2.96,3.84-5,5.35C324.22,266.01,326.43,265.68,329.02,264.16z M402.42,300.98c-4.05,3.73-8.48,7.1-12.63,10.65
				c-5.85,5.02-12.18,9.99-19.37,13.51c-10.23,5.01-20.2,10.55-30.32,15.79c-4.51,2.34-9.43,2.42-14.38,2.31
				c-1.22-0.03-3-0.75-3.48,1.08c-0.55,2.07,2.14,0.97,2.63,2.23c-11.03,1.05-21.82,0.31-32.11-3.92c-1.28-0.52-2.56-0.55-3.81-1.04
				c-4.42-1.75-7.11-4.35-7.42-9.55c-0.45-7.86-1.54-15.7,0.71-23.45c0.61-2.11,2.49-3.69,2.68-6.01c0,0,0,0,0,0
				c-2.72-2.69-0.29-5.15,0.74-7.28c1.09-2.26,1.8,0.47,2.73,0.86c4.13-7.13,11.13-10.49,18.15-13.84c1.17-0.56,2.08-1.97,1.88,1.01
				c-0.13,1.96,2.31,0.8,3.14,0.29c5-3.05,10.44-5.71,14.65-9.66c6.74-6.33,15.05-9.8,22.82-14.28c1.05-0.6,2.03-1.15,2.79-2.07
				c0,0,0,0,0,0c-0.36-0.66-0.72-1.32-1.08-1.98l0,0c0.07-1.87,1.96-1,2.74-1.81v0l0,0c3.03-3.63,5.93-4.25,10.8-2.11
				c9.87,4.33,17.08,12,25.56,18.04c9.03,6.44,18.3,12.55,27.67,18.95C413.5,293.86,407.23,296.54,402.42,300.98z M397.16,266.65
				c1.51,1.3,4.47-2.4,5.18,1.46c1.42,1.22,2.84,2.43,4.51,3.86c-2.48,1.13-2.87-1.88-4.53-1.8c-2.38,1-3.47-1.35-5.18-2.06
				C396.66,267.9,397.12,266.61,397.16,266.65z M420.29,285.41c-0.85-0.03-1.33-0.54-1.47-1.28c-0.11-0.57,0.12-1.12,1.1-1.21
				c0.36,0.42,0.94,0.88,1.21,1.47C421.39,284.98,421.05,285.44,420.29,285.41z M421.79,296.55c-0.25-0.14-0.38-0.75-0.31-1.08
				c0.06-0.29,0.49-0.5,0.89-0.87c0.23,0.55,0.51,0.91,0.51,1.26C422.87,296.52,422.41,296.9,421.79,296.55z M460.86,267.19
				c-0.24,0.37-0.75,0.61-0.9,1c-3.42,9.09-11.58,9.64-19.41,10.6c-1.92,0.24-3.58,1.1-5.48,1.45c-8.94,1.63-15.12-3.02-21.24-8.29
				c-7.23-6.22-14.81-12.04-21.36-19.01c-1.54-1.64-3.31-2.75-6.01-3.74c0.85,4.77,4.37,7.01,6.79,9.97c0,0,0,0,0,0c0,0,0,0,0,0
				c1.2,0.38,1.82,1.38,2.64,2.47c-1.74,0.53-2.8-0.23-3.72-1.39h0c-10.61-5.2-20.85-10.94-29.42-20.33
				c-0.52,4.15-1.93,4.7-5.4,3.04c-14.97-7.16-28.5-16.39-41.17-26.99l0,0c-1.1,1.01-2.68-3.34-3.55,0.31
				c-1.35,1.52-2.46,0.63-3.51-0.39c-5.69-5.47-12.66-9.07-19.33-13.06c-3.8-2.28-5.9-5.68-6.06-9.6
				c-0.36-8.79-1.99-17.48-1.6-26.34c0.34-7.87,5.28-11.6,11.15-15.54c5.46-3.67,10.92-5.78,17.39-5.04c1.71,0.2,2.7-1.09,4.16-1.38
				c4.48-0.91,7.69,1.5,10.71,4.1c8.22,7.08,17.26,12.41,27.78,15.67c4.71,1.46,9.26,4.29,13.54,7.26
				c3.91,2.72,8.25,5.01,12.47,7.19c5.53,2.85,10.49,6.52,15.9,9.48c3.66,2.01,6.56,5.17,11,6.05c15.21,3,27.33,12.28,40.11,20.18
				c2.74,1.7,5.96,2.88,8.21,5.07c3.66,3.57,6.1,8.15,8.33,12.78c1.15,2.39,2.22,4.86,3.67,7.05
				C473.91,250.87,466.23,258.78,460.86,267.19z"/>
			<path class="st4" d="M273.48,306.97c0,0.04-0.01,0.09-0.01,0.13c-0.05,0.4-0.06,0.8-0.05,1.21
				C273.46,307.84,273.48,307.4,273.48,306.97z"/>
		</g>
		<g>
			<path class="st4" d="M24.02,254.04c0.63,1.87,0.69,4.43-0.11,6.14c-0.97,2.06-0.05,2.59,1.21,3.42c2.69,1.76,2.91,5.9,1.99,6.86
				c-1.95,2.03-0.6,2.4,0.37,3.56c4.42,5.32,11.28,7.65,15.73,12.98c1.86,2.23,2.65,7.03,7.49,4.06c0.14-0.09,0.68,0.5,1.06,0.74
				c8.18,5.17,16.39,10.29,24.53,15.52c3.83,2.46,7.69,4.88,11.04,8.06c0.73,0.69,3.23,2.87,3.85,0.4c0.71-2.81,1.69-1.15,2.5-0.69
				c5.61,3.13,11.16,6.35,16.74,9.53c0.93-0.27,1.87-0.54,2.8-0.8c0,0,0,0,0,0c6.51,1.6,10.05,7.73,16.3,9.92
				c-1.13,1.21-2.55,0.02-3.1,1.52c3.35,4.29,8.65,4.98,13.2,7.09c5.63,2.62,12.54,2.41,17.02,7.62c0.32,0.38,1.09,0.72,1.52,0.6
				c5.7-1.62,9.48,2.16,13.7,4.74c1.46,0.66,2.25,1.72,2.06,3.36c2.12,0.29,4.52,0.02,5.37,2.76c2.01,0.29,4.48,2.12,5.31-1.6
				c0.63-1.97,2.2-0.81,3.36-1c0,0,0,0,0,0c0.87-1.83,2.24-1.27,3.68-0.81c-0.37,1.47-1.91,0.99-2.66,1.72
				c-0.58,0.67-1.15,1.34-1.73,2c0.76,1.03,1.97,0.62,2.96,0.92l0,0h0c1.2,0.2,2.29,0.3,3.35-0.67c3.43-3.13,7.91-3.98,12.09-5.68
				c0.42,1.81-2.3,2.33-0.93,4.34c7.21-4.78,13.49-10.19,16.04-18.84c1.14-3,2.35,0.59,3.51-0.03c0,0,0,0,0,0
				c0.03-2.33,0.07-4.66,0.1-6.99l0,0c-0.37-0.4-0.74-0.8-1.1-1.19c-0.7-0.17-1.74-0.36-1.44-1.2c0.29-0.81,1.23-1.4,1.88-2.09
				c0.25,0.5,0.49,1,0.74,1.5c3.4-4.91,1.5-10.37,1.2-15.5c-0.17-2.92-0.62-5.86-0.46-8.83c0,0,0,0,0,0
				c-1.45-3.88-1.06-8.05-1.96-12.06c-1.16-5.18-1.87-10.34-6.18-14.07c-3.47,0.71-1.4,3.22-1.43,4.9
				c-0.02,1.04,0.94,2.09,1.45,3.14c1.23,2.24,1.16,2.36-1.81,2.83l0.09,0.03c0,0,0,0,0,0c0.23,0.3,0.47,0.6,0.7,0.91v0l0,0
				c2.94,2.85,2.74,4.22-0.8,5.36c-2.7-1.43-1.57-4.08-2-6.24c0,0,0,0,0,0c-4.82-3.09-9.96-5.8-14.41-9.36
				c-10.15-8.11-21.5-14.2-32.88-20.26c-6.68-3.56-13.6-6.65-20.95-10.2c4.52-2.59,7.9-5.3,12.11-7.02
				c6.3-2.59,12.91-4.85,18.43-8.96c6.34-4.73,13.1-8.8,20.14-12.24c3.61-1.76,6.61-3.64,9.27-6.64c1.5-1.68,3.38-5.2,6.84-2.01
				c0.73,0.68,1.57-0.76,1.59-1.01c0.36-4.97,8.27-3.89,7.69-9.57c-0.01-0.12,0.75-0.44,1.17-0.46c2.68-0.16,3.23-2.24,3.91-4.22
				c0.04-4.2-0.8-8.47,0.21-12.6c0.06-0.94,0.3-1.87,0.98-2.75c0,0,0,0,0,0c0,0,0,0,0,0c0,0,0,0,0,0c1.86-3.04-1.86-6.86,1.43-9.72
				c1.24,0.22,1.73,1.48,2.64,2.19c0.79,0.61,1.46,1.84,2.64,1.06c1.25-0.82,1.14-2.53,0.36-3.2c-4.85-4.16-4.74-10.19-6.18-15.63
				c-0.25-0.94-0.39-2.06-1.49-1.65c-4.5,1.71-4.84-2.06-6.22-4.5c-1.21-0.23-3.16,0.64-2.84-1.87c-1.36-0.49-2.2-1.5-2.78-2.78
				c-2.9-2.79-5.86-5.51-8.67-8.39c-1.75-1.79-3.95-2.57-6.22-3.12c-1.22-0.3-2.9-0.48-3.7,0.9c-1.08,1.86,1.48,1.84,1.83,3.03
				c2.19,1.32,4.35,2.66,5.55,5.35c-3.19,0.82-4.52-1.73-6.44-2.94c-0.32-0.09-0.63-0.22-0.91-0.44c-1.84-1.43-4.47-0.27-6.3-1.9
				c-0.27-0.24-1.25-0.06-1.62,0.26c-0.66,0.56-0.3,1.3,0.09,1.98c0.46,0.81,1.81,1.07,1.52,2.48c-4.37,1.3-8.26-4.26-12.72-0.93
				c0,0,0,0,0,0c1.28,2.42,0.36,3.05-2.03,2.46c-2.65-0.35-5.25,1.15-7.91,0.18c0,0,0,0,0,0c0,0,0,0,0,0
				c-0.39-0.63-0.64-1.41-1.18-1.85c-2.45-2-3.81,0.73-5.58,1.48c-1.17,0.5-1.6,1.58,0.07,2.12c1.56,0.5,1.91,1.41,1.15,2.69
				c-1.49,2.49-4.35,2.96-6.73,3.85c-0.94,0.35,0.05-2.1-1.24-3.12c-8.22,4.44-15.61,10.46-23.79,15.15
				c-15.17,8.68-29.45,18.87-45.02,26.85c-8.09,4.15-15.85,8.9-24.15,12.66c-2.19,0.99-5.06,1.1-6.5,3.57
				c-0.19,2.1-2.45,1.39-3.35,2.45c-0.41,0.48-0.74,0.88-1.04,1.21c-0.17,0.25-0.36,0.44-0.57,0.59c-1.14,1.06-2.02,1.04-5.2,0.86
				l0,0c0,0,0,0,0,0c-1.97,0.31-4.02,0.38-5.89,0.98c-3.08,0.99-3.63,3.47-1.1,5.13c1.67,1.1,1.08,1.46,0.11,2.54
				c-2.24,2.47-4.28,5.13-6.39,7.72c-0.16,1.66,0.42,3.42-0.7,5.28c-1.64-1.08-0.97-2.99-1.68-4.25c-0.07-0.1-0.14-0.19-0.21-0.31
				l-0.15,0.1c-0.68-0.33-1.36-0.65-2.04-0.98c0,0,0,0,0,0C23.36,239.5,21.49,246.49,24.02,254.04z M219.1,299.41
				c0.45,0.28,0.99,0.43,1.06,0.7c0.19,0.72-0.4,1-0.98,0.92c-0.31-0.04-0.74-0.44-0.78-0.72
				C218.36,300.07,218.81,299.76,219.1,299.41z M167.65,237.98c-0.6,0.07-1.27,0.06-1.15-0.81c0.04-0.32,0.48-0.58,0.75-0.9
				c0.54,0.2,1.21,0.26,1.28,0.51C168.72,237.4,168.34,237.9,167.65,237.98z M170.98,235.84c1.35-2.87,2.96-3.84,5-5.35
				C175.78,233.99,173.57,234.32,170.98,235.84z M97.58,199.02c4.05-3.73,8.48-7.1,12.63-10.65c5.85-5.02,12.18-9.99,19.37-13.51
				c10.23-5.01,20.2-10.55,30.32-15.79c4.51-2.34,9.43-2.42,14.38-2.31c1.22,0.03,3,0.75,3.48-1.08c0.55-2.07-2.14-0.97-2.63-2.23
				c11.03-1.05,21.82-0.31,32.11,3.92c1.28,0.52,2.56,0.55,3.81,1.04c4.42,1.75,7.11,4.35,7.42,9.55c0.45,7.86,1.54,15.7-0.71,23.45
				c-0.61,2.11-2.49,3.69-2.68,6.01c0,0,0,0,0,0c2.72,2.69,0.29,5.15-0.74,7.28c-1.09,2.26-1.8-0.47-2.73-0.86
				c-4.13,7.13-11.13,10.49-18.15,13.84c-1.17,0.56-2.08,1.97-1.88-1.01c0.13-1.96-2.31-0.8-3.14-0.29
				c-5,3.05-10.44,5.71-14.65,9.66c-6.74,6.33-15.05,9.8-22.82,14.28c-1.05,0.6-2.03,1.15-2.79,2.07c0,0,0,0,0,0
				c0.36,0.66,0.72,1.32,1.08,1.98l0,0c-0.07,1.87-1.96,1-2.74,1.81v0l0,0c-3.03,3.63-5.93,4.25-10.8,2.11
				c-9.87-4.33-17.08-12-25.56-18.04c-9.03-6.44-18.3-12.55-27.67-18.95C86.5,206.14,92.77,203.46,97.58,199.02z M102.84,233.35
				c-1.51-1.3-4.47,2.4-5.18-1.46c-1.42-1.22-2.84-2.43-4.51-3.86c2.48-1.13,2.87,1.88,4.53,1.8c2.38-1,3.47,1.35,5.18,2.06
				C103.34,232.1,102.88,233.39,102.84,233.35z M79.71,214.59c0.85,0.03,1.33,0.54,1.47,1.28c0.11,0.57-0.12,1.12-1.1,1.21
				c-0.36-0.42-0.94-0.88-1.21-1.47C78.61,215.02,78.95,214.56,79.71,214.59z M78.21,203.45c0.25,0.14,0.38,0.75,0.31,1.08
				c-0.06,0.29-0.49,0.5-0.89,0.87c-0.23-0.55-0.51-0.91-0.51-1.26C77.13,203.48,77.59,203.1,78.21,203.45z M39.14,232.81
				c0.24-0.37,0.75-0.61,0.9-1c3.42-9.09,11.58-9.64,19.41-10.6c1.92-0.24,3.58-1.1,5.48-1.45c8.94-1.63,15.12,3.02,21.24,8.29
				c7.23,6.22,14.81,12.04,21.36,19.01c1.54,1.64,3.31,2.75,6.01,3.74c-0.85-4.77-4.37-7.01-6.79-9.97c0,0,0,0,0,0c0,0,0,0,0,0
				c-1.2-0.38-1.82-1.38-2.64-2.47c1.74-0.53,2.8,0.23,3.72,1.39h0c10.61,5.2,20.85,10.94,29.42,20.33c0.52-4.15,1.93-4.7,5.4-3.04
				c14.97,7.16,28.5,16.39,41.17,26.99l0,0c1.1-1.01,2.68,3.34,3.55-0.31c1.35-1.52,2.46-0.63,3.51,0.39
				c5.69,5.47,12.66,9.07,19.33,13.06c3.8,2.28,5.9,5.68,6.06,9.6c0.36,8.79,1.99,17.48,1.6,26.34c-0.34,7.87-5.28,11.6-11.15,15.54
				c-5.46,3.67-10.92,5.78-17.39,5.04c-1.71-0.2-2.7,1.09-4.16,1.38c-4.48,0.91-7.69-1.5-10.71-4.1
				c-8.22-7.08-17.26-12.41-27.78-15.67c-4.71-1.46-9.26-4.29-13.54-7.26c-3.91-2.72-8.25-5.01-12.47-7.19
				c-5.53-2.85-10.49-6.52-15.9-9.48c-3.66-2.01-6.56-5.17-11-6.05c-15.21-3-27.33-12.28-40.11-20.18c-2.74-1.7-5.96-2.88-8.21-5.07
				c-3.66-3.57-6.1-8.15-8.33-12.78c-1.15-2.39-2.22-4.86-3.67-7.05C26.09,249.13,33.77,241.22,39.14,232.81z"/>
			<path class="st4" d="M226.52,193.03c0-0.04,0.01-0.09,0.01-0.13c0.05-0.4,0.06-0.8,0.05-1.21
				C226.54,192.16,226.52,192.6,226.52,193.03z"/>
		</g>
	</g>
</g>
</svg>
