<svg xmlns="http://www.w3.org/2000/svg" viewBox="0 0 382.89 99"><g style="isolation:isolate"><g id="Calque_2" data-name="Calque 2"><g id="Calque_2-2" data-name="Calque 2"><path d="M71.78,12.26h13q12.23,0,19.13,7.24a23.82,23.82,0,0,1,6.9,17,25.23,25.23,0,0,1-7,18.11q-7,7.32-19.13,7.31-1.43,0-5.85-.19t-7.05-.18L60.9,62a1.9,1.9,0,0,1-.3-1.28q0-1.5.3-1.5a12,12,0,0,0,2.82-.52c1.27-.35,2-.73,2.13-1.13A31.26,31.26,0,0,0,66.3,51V22.61a26.19,26.19,0,0,0-.45-5.85c-.15-.4-.88-.85-2.21-1.35a9.47,9.47,0,0,0-2.81-.75q-.3,0-.3-1.35a2.61,2.61,0,0,1,.22-1.43C64.75,12.14,68.43,12.26,71.78,12.26Zm5,10.13v29.1c0,3.25.23,5,.68,5.25q1.65,1,8.47,1a11,11,0,0,0,9.76-5.4q3.44-5.4,3.45-16.12a25.64,25.64,0,0,0-3.64-14,11.35,11.35,0,0,0-10.09-5.74h-.38q-6.37,0-7.27,1.2C77.13,18.56,76.8,20.14,76.8,22.39Z" style="fill:#1a213d"/><path d="M126.08,12.26q3.3,0,11.63-.19t12.6-.19q.08.76,2.17,11.11a2.62,2.62,0,0,1-1.72.37c-.55,0-.9-.17-1-.52a12.64,12.64,0,0,0-4.5-4.88,10.9,10.9,0,0,0-6-2h-2.85c-3.15,0-4.78.32-4.88,1a32.15,32.15,0,0,0-.37,5.85V34.31c0,.3,1.07.45,3.22.45h4q4.65,0,5.1-.3c.25-.2.45-.92.6-2.17a15.31,15.31,0,0,1,.45-2.18c0-.35.42-.52,1.12-.52a2.48,2.48,0,0,1,1.65.37V44.14a2.53,2.53,0,0,1-1.57.3q-1,0-1.2-.6c-.2-.7-.38-1.3-.53-1.8s-.27-.88-.37-1.13a4.65,4.65,0,0,0-.34-.67,2.44,2.44,0,0,0-.26-.38,1.43,1.43,0,0,0-.3-.19,1.15,1.15,0,0,1-.3-.18q-1-.6-5.85-.6-5.4,0-5.4.67V51.11a17.45,17.45,0,0,0,.6,5.33q.38,1.2,5.1,1.2h1.95a17.93,17.93,0,0,0,8.4-2,10.94,10.94,0,0,0,2.89-2.55,14.42,14.42,0,0,0,2.51-4.2q.08-.45,1.05-.45a3.56,3.56,0,0,1,2.25.45q-3.68,10.35-4.05,12.9-3.83,0-12.15-.15t-13.5-.15l-11,.45a1.9,1.9,0,0,1-.3-1.28q0-1.5.3-1.5a11.94,11.94,0,0,0,2.81-.52c1.27-.35,2-.73,2.14-1.13a31.26,31.26,0,0,0,.45-6.6V22.61a26.19,26.19,0,0,0-.45-5.85q-.22-.6-2.22-1.35a9.47,9.47,0,0,0-2.81-.75q-.3,0-.3-1.35a2.58,2.58,0,0,1,.23-1.43C119.06,12.14,122.73,12.26,126.08,12.26Z" style="fill:#1a213d"/><path d="M169.88,12.64q.52,0,11.33-.6a2.44,2.44,0,0,1,.3,1.53c0,.83-.1,1.24-.3,1.24a9.33,9.33,0,0,0-3.11.68c-1.23.45-1.84,1.12-1.84,2A26.34,26.34,0,0,0,178,22.46L188,47.21l10.58-24.67a14.13,14.13,0,0,0,1.5-5.1c0-.75-.51-1.38-1.54-1.88a8.54,8.54,0,0,0-3.78-.75c-.15-.05-.23-.45-.23-1.2a5.6,5.6,0,0,1,.15-1.57c.7.05,2,.16,3.86.33s3.44.27,4.69.27,2.78-.09,4.58-.27S211,12.09,212,12a1.58,1.58,0,0,1,.3,1.12c0,1.05,0,1.58-.15,1.58a9.1,9.1,0,0,0-2.62.63,10.16,10.16,0,0,0-2.93,1.54q-.6.53-2.85,5.48l-16.2,37.27a5.55,5.55,0,0,1-1.54,2,2.82,2.82,0,0,1-1.69.75,2,2,0,0,1-1.72-1l-15.38-38q-2.25-5.62-2.47-6.15a3.48,3.48,0,0,0-2.44-1.84,10.73,10.73,0,0,0-3-.64c-.2,0-.3-.42-.3-1.27a4,4,0,0,1,.15-1.5q.38,0,4.62.3T169.88,12.64Z" style="fill:#1a213d"/><path d="M225.61,12.26q4.88,0,12.6-.19c5.15-.12,9-.19,11.63-.19q.07.76,2.17,11.11a2.62,2.62,0,0,1-1.72.37c-.55,0-.9-.17-1-.52a12.64,12.64,0,0,0-4.5-4.88,10.9,10.9,0,0,0-6-2h-2.85c-3.15,0-4.78.32-4.88,1a32.15,32.15,0,0,0-.37,5.85V34.31c0,.3,1.07.45,3.22.45h4q4.65,0,5.1-.3c.25-.2.45-.92.6-2.17a15.31,15.31,0,0,1,.45-2.18c0-.35.42-.52,1.12-.52a2.48,2.48,0,0,1,1.65.37V44.14a2.53,2.53,0,0,1-1.57.3q-1,0-1.2-.6c-.2-.7-.38-1.3-.53-1.8s-.27-.88-.37-1.13a4.65,4.65,0,0,0-.34-.67,3.5,3.5,0,0,0-.26-.38,1.43,1.43,0,0,0-.3-.19,1.15,1.15,0,0,1-.3-.18q-1-.6-5.85-.6-5.4,0-5.4.67V51.11a29,29,0,0,0,.52,6.15c.15.6,1,1.08,2.48,1.43a16.27,16.27,0,0,0,3.37.52c.2,0,.3.48.3,1.43a4.55,4.55,0,0,1-.15,1.35q-9-.45-11.47-.45L214.74,62a1.9,1.9,0,0,1-.3-1.28q0-1.5.3-1.5a11.94,11.94,0,0,0,2.81-.52c1.27-.35,2-.73,2.14-1.13a31.26,31.26,0,0,0,.45-6.6V22.61a26.19,26.19,0,0,0-.45-5.85q-.23-.6-2.22-1.35a9.47,9.47,0,0,0-2.81-.75q-.3,0-.3-1.35a2.58,2.58,0,0,1,.23-1.43C219.09,12.14,222.76,12.26,225.61,12.26Z" style="fill:#1a213d"/><path d="M267.09,12.26q3.3,0,11.62-.19t12.6-.19q.07.76,2.18,11.11a2.64,2.64,0,0,1-1.73.37c-.55,0-.89-.17-1-.52A12.74,12.74,0,0,0,286.21,18a10.9,10.9,0,0,0-6-2h-2.85c-3.15,0-4.77.32-4.87,1a31.93,31.93,0,0,0-.38,5.85V34.31c0,.3,1.08.45,3.23.45h4q4.65,0,5.1-.3c.25-.2.45-.92.6-2.17a15.31,15.31,0,0,1,.45-2.18c.05-.35.43-.52,1.13-.52a2.48,2.48,0,0,1,1.65.37V44.14a2.57,2.57,0,0,1-1.58.3q-1,0-1.2-.6c-.2-.7-.37-1.3-.52-1.8s-.28-.88-.37-1.13a6,6,0,0,0-.34-.67,3.1,3.1,0,0,0-.27-.38,1.43,1.43,0,0,0-.3-.19,1.15,1.15,0,0,1-.3-.18q-1-.6-5.85-.6-5.4,0-5.4.67V51.11a17.45,17.45,0,0,0,.6,5.33q.38,1.2,5.1,1.2h1.95a17.93,17.93,0,0,0,8.4-2,10.79,10.79,0,0,0,2.89-2.55,14.24,14.24,0,0,0,2.52-4.2c0-.3.39-.45,1-.45a3.58,3.58,0,0,1,2.26.45c-2.46,6.9-3.8,11.2-4.05,12.9q-3.82,0-12.16-.15t-13.5-.15l-11,.45a1.9,1.9,0,0,1-.3-1.28q0-1.5.3-1.5a12,12,0,0,0,2.82-.52c1.27-.35,2-.73,2.13-1.13a31.26,31.26,0,0,0,.45-6.6V22.61a26.19,26.19,0,0,0-.45-5.85c-.15-.4-.88-.85-2.21-1.35a9.47,9.47,0,0,0-2.81-.75q-.3,0-.3-1.35a2.61,2.61,0,0,1,.22-1.43C260.06,12.14,263.74,12.26,267.09,12.26Z" style="fill:#1a213d"/><path d="M301.07,25q0-5.62,5-9.6a17.25,17.25,0,0,1,11-4,24.62,24.62,0,0,1,3.26.23q1.69.23,2.85.45c.78.15,1.85.39,3.23.71s2.46.57,3.26.72A113.14,113.14,0,0,1,330.47,26a1.12,1.12,0,0,1-1.13.75c-1.45,0-2.22-.18-2.32-.53a14.77,14.77,0,0,0-3.23-7.16,8.19,8.19,0,0,0-6.67-3.41,6.26,6.26,0,0,0-4.32,1.57q-1.76,1.58-1.76,5a6.19,6.19,0,0,0,.75,2.92,10.42,10.42,0,0,0,2.51,2.93,33.72,33.72,0,0,0,2.89,2.25q1.13.75,3.68,2.4c.45.3.8.52,1.05.67l2.47,1.5c1.25.75,2.14,1.31,2.66,1.69a24.3,24.3,0,0,1,2.18,1.84,9.2,9.2,0,0,1,2,2.51,15.81,15.81,0,0,1,1.17,3.22,17.22,17.22,0,0,1,.52,4.39A12.2,12.2,0,0,1,328,58.5a17.77,17.77,0,0,1-11.4,3.94,64,64,0,0,1-14.25-1.95,62.19,62.19,0,0,1-1.16-6.57,49.53,49.53,0,0,1-.56-5.88c.15-.5.6-.75,1.34-.75,1.55,0,2.36.15,2.41.45a14.11,14.11,0,0,0,3.75,6.94,9.28,9.28,0,0,0,7,3.48q7.43,0,7.43-8.17a5.24,5.24,0,0,0-.68-2.52,9.3,9.3,0,0,0-2-2.43,29.68,29.68,0,0,0-2.4-1.95c-.71-.5-1.69-1.15-3-2s-2.08-1.33-2.43-1.58-.63-.4-1.13-.75q-2.47-1.65-3.75-2.62a28.29,28.29,0,0,1-3-2.7,10.05,10.05,0,0,1-2.4-3.79A14.22,14.22,0,0,1,301.07,25Z" style="fill:#1a213d"/><path d="M351.58,12.19c3.38.15,6.11.22,8.21.22s4.85-.07,8.25-.22,6.15-.23,8.25-.23a22.81,22.81,0,0,0,5.18-.82l1.42,12.3a3.18,3.18,0,0,1-2.17.52c-.45,0-.7-.12-.75-.37q-1.87-7.43-8-7.43t-6.37,1.35a26.68,26.68,0,0,0-.6,6.68V51.26a25.1,25.1,0,0,0,.6,6.08c.1.35.79.75,2.06,1.2a9.83,9.83,0,0,0,2.59.67c.2,0,.3.48.3,1.43a4.55,4.55,0,0,1-.15,1.35q-.53,0-4.5-.3t-5.93-.3q-2,0-5.92.26l-4.95.34a1.74,1.74,0,0,1-.3-1.2c0-1,.07-1.58.22-1.58a10.63,10.63,0,0,0,2.78-.63c1.3-.43,2-.84,2.17-1.24a24.34,24.34,0,0,0,.53-5.78V24.41q0-5.85-.6-6.9a2.84,2.84,0,0,0-.41-.64,5.11,5.11,0,0,0-1.62-.45,24.91,24.91,0,0,0-4.12-.26,7.39,7.39,0,0,0-5,1.69,11,11,0,0,0-3,5.66c-.05.25-.3.38-.75.38a3.17,3.17,0,0,1-2.17-.53l1.42-12.22a22.81,22.81,0,0,0,5.18.82Q346.52,12,351.58,12.19Z" style="fill:#1a213d"/><path d="M46.44,33.11,28.81,1.76a3.35,3.35,0,0,0-2.9-1.7L15.77,0,8.35,0a3.33,3.33,0,0,0-2.9,5L22,33.75a3.32,3.32,0,0,1,0,3.34l-2.11,3.62L5.22,65.84a3.34,3.34,0,0,0,2.88,5h7.72l10.2,0a3.34,3.34,0,0,0,2.89-1.66L35.76,57.5h0l6.29-10.77,4.38-7.49A6.2,6.2,0,0,0,46.44,33.11Z" style="fill:#edc04e"/><polygon points="2.67 0.14 16.05 0.45 41.8 46.44 35.57 57.23 2.67 0.14" style="fill:#3577bc"/><polygon points="2.46 70.52 22.91 35.85 29.65 47.47 15.85 71.14 2.46 70.52" style="fill:#9ab964"/><polygon points="15.85 71.14 29.65 47.06 35.57 57.23 27.78 70.72 15.85 71.14" style="fill:#fcefb2"/><path d="M16.06.45h9.67A3.55,3.55,0,0,1,28.8,2.24L45.85,32.19a8,8,0,0,1-.19,8.24l-3.86,6Z" style="fill:#e9764f"/><polygon points="20.37 39.95 22.94 35.42 35.76 57.5 20.37 39.95" style="fill:#6f2b5a;opacity:0.30000000000000004;mix-blend-mode:multiply"/><path d="M16.71.59l9.76,0a1.81,1.81,0,0,1,1.58.93L46,33.38A5.64,5.64,0,0,1,46,39l-3.89,6.67L16.71.59M15.77,0,42.05,46.73l4.38-7.49a6.2,6.2,0,0,0,0-6.13L28.36,1a1.79,1.79,0,0,0-1.53-.9L15.77,0Z" style="fill:#1a213d"/><path d="M3.52.55l11.93,0,26,46.14-5.66,9.69-5.64-9.72-6.7-11.54L3.52.55M2.57,0,22.94,35.42,29.64,47,35.76,57.5l6.29-10.77L15.77,0,2.57,0Z" style="fill:#1a213d"/><path d="M29.64,48.06l5.48,9.44L27.63,70.34l-10.86,0L28.65,49.77l1-1.71m0-1.1-1.46,2.53L15.82,70.86l12.12,0L35.76,57.5,29.64,47Z" style="fill:#1a213d"/><path d="M.73,5.66,19.39,38.11l3.55-2.69L2.57,0,1.75.62A3.89,3.89,0,0,0,.73,5.66Z" style="fill:#1a213d"/><path d="M15.82,70.86H2.3L19.86,40.71l3.08-5.29-3.55,2.69-3.08,5.28L.23,71A1.7,1.7,0,0,0,1.7,73.54H12.27l10.34,0a5.23,5.23,0,0,0,3.2-1.07l2.13-1.61Z" style="fill:#1a213d"/><path d="M22.94,36.51,29,47,27.7,49.22,15.51,70.31H3.25L20.33,41l2.61-4.47m0-1.09-3.08,5.29L2.3,70.85H15.82L28.18,49.49,29.64,47l-6.7-11.54Z" style="fill:#1a213d"/><path d="M46.44,33.11,28.36,1A1.78,1.78,0,0,0,26.82.06l-11,0L2.57,0,22.94,35.42l-3.08,5.29L2.3,70.85H15.82l12.12,0L35.76,57.5h0l6.29-10.77,4.38-7.49A6.2,6.2,0,0,0,46.44,33.11ZM46,39l-4.37,7.48L35.29,57.23,28,69.71a1.28,1.28,0,0,1-1.11.63l-11.07,0H4.6a.77.77,0,0,1-.66-1.16L20.34,41l3.09-5.28.16-.27-.16-.28L4,1.42a.51.51,0,0,1,.4-.8l11.38,0,10.61,0a2,2,0,0,1,1.71,1L46,33.41A5.64,5.64,0,0,1,46,39Z" style="fill:#1a213d"/><text transform="translate(222.9 92.59)" style="font-size:25.140880584716797px;fill:#1a213d;font-family:CrimsonText-Bold, Crimson Text;font-weight:700">NANTES 2023</text></g></g></g></svg>