<svg xmlns="http://www.w3.org/2000/svg" viewBox="0 0 382.89 92.84"><g style="isolation:isolate"><g id="Calque_2" data-name="Calque 2"><g id="Calque_2-2" data-name="Calque 2"><path d="M71.78,12.26h13q12.23,0,19.13,7.24a23.82,23.82,0,0,1,6.9,17,25.23,25.23,0,0,1-7,18.11q-7,7.32-19.13,7.31-1.43,0-5.85-.19t-7.05-.18L60.9,62a1.9,1.9,0,0,1-.3-1.28q0-1.5.3-1.5a12,12,0,0,0,2.82-.52c1.27-.35,2-.73,2.13-1.13A31.26,31.26,0,0,0,66.3,51V22.61a26.19,26.19,0,0,0-.45-5.85c-.15-.4-.88-.85-2.21-1.35a9.47,9.47,0,0,0-2.81-.75q-.3,0-.3-1.35a2.61,2.61,0,0,1,.22-1.43C64.75,12.14,68.43,12.26,71.78,12.26Zm5,10.13v29.1c0,3.25.23,5,.68,5.25q1.65,1,8.47,1a11,11,0,0,0,9.76-5.4q3.44-5.4,3.45-16.12a25.64,25.64,0,0,0-3.64-14,11.35,11.35,0,0,0-10.09-5.74h-.38q-6.37,0-7.27,1.2C77.13,18.56,76.8,20.14,76.8,22.39Z" style="fill:#fcefb2"/><path d="M126.08,12.26q3.3,0,11.63-.19t12.6-.19q.08.76,2.17,11.11a2.62,2.62,0,0,1-1.72.37c-.55,0-.9-.17-1-.52a12.64,12.64,0,0,0-4.5-4.88,10.9,10.9,0,0,0-6-2h-2.85c-3.15,0-4.78.32-4.88,1a32.15,32.15,0,0,0-.37,5.85V34.31c0,.3,1.07.45,3.22.45h4q4.65,0,5.1-.3c.25-.2.45-.92.6-2.17a15.31,15.31,0,0,1,.45-2.18c0-.35.42-.52,1.12-.52a2.48,2.48,0,0,1,1.65.37V44.14a2.53,2.53,0,0,1-1.57.3q-1,0-1.2-.6c-.2-.7-.38-1.3-.53-1.8s-.27-.88-.37-1.13a4.65,4.65,0,0,0-.34-.67,2.44,2.44,0,0,0-.26-.38,1.43,1.43,0,0,0-.3-.19,1.15,1.15,0,0,1-.3-.18q-1-.6-5.85-.6-5.4,0-5.4.67V51.11a17.45,17.45,0,0,0,.6,5.33q.38,1.2,5.1,1.2h1.95a17.93,17.93,0,0,0,8.4-2,10.94,10.94,0,0,0,2.89-2.55,14.42,14.42,0,0,0,2.51-4.2q.08-.45,1.05-.45a3.56,3.56,0,0,1,2.25.45q-3.68,10.35-4.05,12.9-3.83,0-12.15-.15t-13.5-.15l-11,.45a1.9,1.9,0,0,1-.3-1.28q0-1.5.3-1.5a11.94,11.94,0,0,0,2.81-.52c1.27-.35,2-.73,2.14-1.13a31.26,31.26,0,0,0,.45-6.6V22.61a26.19,26.19,0,0,0-.45-5.85q-.22-.6-2.22-1.35a9.47,9.47,0,0,0-2.81-.75q-.3,0-.3-1.35a2.58,2.58,0,0,1,.23-1.43C119.06,12.14,122.73,12.26,126.08,12.26Z" style="fill:#fcefb2"/><path d="M169.88,12.64q.52,0,11.33-.6a2.44,2.44,0,0,1,.3,1.53c0,.83-.1,1.24-.3,1.24a9.33,9.33,0,0,0-3.11.68c-1.23.45-1.84,1.12-1.84,2A26.34,26.34,0,0,0,178,22.46L188,47.21l10.58-24.67a14.13,14.13,0,0,0,1.5-5.1c0-.75-.51-1.38-1.54-1.88a8.54,8.54,0,0,0-3.78-.75c-.15-.05-.23-.45-.23-1.2a5.6,5.6,0,0,1,.15-1.57c.7.05,2,.16,3.86.33s3.44.27,4.69.27,2.78-.09,4.58-.27S211,12.09,212,12a1.58,1.58,0,0,1,.3,1.12c0,1.05,0,1.58-.15,1.58a9.1,9.1,0,0,0-2.62.63,10.16,10.16,0,0,0-2.93,1.54q-.6.53-2.85,5.48l-16.2,37.27a5.55,5.55,0,0,1-1.54,2,2.82,2.82,0,0,1-1.69.75,2,2,0,0,1-1.72-1l-15.38-38q-2.25-5.62-2.47-6.15a3.48,3.48,0,0,0-2.44-1.84,10.73,10.73,0,0,0-3-.64c-.2,0-.3-.42-.3-1.27a4,4,0,0,1,.15-1.5q.38,0,4.62.3T169.88,12.64Z" style="fill:#fcefb2"/><path d="M225.61,12.26q4.88,0,12.6-.19c5.15-.12,9-.19,11.63-.19q.07.76,2.17,11.11a2.62,2.62,0,0,1-1.72.37c-.55,0-.9-.17-1-.52a12.64,12.64,0,0,0-4.5-4.88,10.9,10.9,0,0,0-6-2h-2.85c-3.15,0-4.78.32-4.88,1a32.15,32.15,0,0,0-.37,5.85V34.31c0,.3,1.07.45,3.22.45h4q4.65,0,5.1-.3c.25-.2.45-.92.6-2.17a15.31,15.31,0,0,1,.45-2.18c0-.35.42-.52,1.12-.52a2.48,2.48,0,0,1,1.65.37V44.14a2.53,2.53,0,0,1-1.57.3q-1,0-1.2-.6c-.2-.7-.38-1.3-.53-1.8s-.27-.88-.37-1.13a4.65,4.65,0,0,0-.34-.67,3.5,3.5,0,0,0-.26-.38,1.43,1.43,0,0,0-.3-.19,1.15,1.15,0,0,1-.3-.18q-1-.6-5.85-.6-5.4,0-5.4.67V51.11a29,29,0,0,0,.52,6.15c.15.6,1,1.08,2.48,1.43a16.27,16.27,0,0,0,3.37.52c.2,0,.3.48.3,1.43a4.55,4.55,0,0,1-.15,1.35q-9-.45-11.47-.45L214.74,62a1.9,1.9,0,0,1-.3-1.28q0-1.5.3-1.5a11.94,11.94,0,0,0,2.81-.52c1.27-.35,2-.73,2.14-1.13a31.26,31.26,0,0,0,.45-6.6V22.61a26.19,26.19,0,0,0-.45-5.85q-.23-.6-2.22-1.35a9.47,9.47,0,0,0-2.81-.75q-.3,0-.3-1.35a2.58,2.58,0,0,1,.23-1.43C219.09,12.14,222.76,12.26,225.61,12.26Z" style="fill:#fcefb2"/><path d="M267.09,12.26q3.3,0,11.62-.19t12.6-.19q.07.76,2.18,11.11a2.64,2.64,0,0,1-1.73.37c-.55,0-.89-.17-1-.52A12.74,12.74,0,0,0,286.21,18a10.9,10.9,0,0,0-6-2h-2.85c-3.15,0-4.77.32-4.87,1a31.93,31.93,0,0,0-.38,5.85V34.31c0,.3,1.08.45,3.23.45h4q4.65,0,5.1-.3c.25-.2.45-.92.6-2.17a15.31,15.31,0,0,1,.45-2.18c.05-.35.43-.52,1.13-.52a2.48,2.48,0,0,1,1.65.37V44.14a2.57,2.57,0,0,1-1.58.3q-1,0-1.2-.6c-.2-.7-.37-1.3-.52-1.8s-.28-.88-.37-1.13a6,6,0,0,0-.34-.67,3.1,3.1,0,0,0-.27-.38,1.43,1.43,0,0,0-.3-.19,1.15,1.15,0,0,1-.3-.18q-1-.6-5.85-.6-5.4,0-5.4.67V51.11a17.45,17.45,0,0,0,.6,5.33q.38,1.2,5.1,1.2h1.95a17.93,17.93,0,0,0,8.4-2,10.79,10.79,0,0,0,2.89-2.55,14.24,14.24,0,0,0,2.52-4.2c0-.3.39-.45,1-.45a3.58,3.58,0,0,1,2.26.45c-2.46,6.9-3.8,11.2-4.05,12.9q-3.82,0-12.16-.15t-13.5-.15l-11,.45a1.9,1.9,0,0,1-.3-1.28q0-1.5.3-1.5a12,12,0,0,0,2.82-.52c1.27-.35,2-.73,2.13-1.13a31.26,31.26,0,0,0,.45-6.6V22.61a26.19,26.19,0,0,0-.45-5.85c-.15-.4-.88-.85-2.21-1.35a9.47,9.47,0,0,0-2.81-.75q-.3,0-.3-1.35a2.61,2.61,0,0,1,.22-1.43C260.06,12.14,263.74,12.26,267.09,12.26Z" style="fill:#fcefb2"/><path d="M301.07,25q0-5.62,5-9.6a17.25,17.25,0,0,1,11-4,24.62,24.62,0,0,1,3.26.23q1.69.23,2.85.45c.78.15,1.85.39,3.23.71s2.46.57,3.26.72A113.14,113.14,0,0,1,330.47,26a1.12,1.12,0,0,1-1.13.75c-1.45,0-2.22-.18-2.32-.53a14.77,14.77,0,0,0-3.23-7.16,8.19,8.19,0,0,0-6.67-3.41,6.26,6.26,0,0,0-4.32,1.57q-1.76,1.58-1.76,5a6.19,6.19,0,0,0,.75,2.92,10.42,10.42,0,0,0,2.51,2.93,33.72,33.72,0,0,0,2.89,2.25q1.13.75,3.68,2.4c.45.3.8.52,1.05.67l2.47,1.5c1.25.75,2.14,1.31,2.66,1.69a24.3,24.3,0,0,1,2.18,1.84,9.2,9.2,0,0,1,2,2.51,15.81,15.81,0,0,1,1.17,3.22,17.22,17.22,0,0,1,.52,4.39A12.2,12.2,0,0,1,328,58.5a17.77,17.77,0,0,1-11.4,3.94,64,64,0,0,1-14.25-1.95,62.19,62.19,0,0,1-1.16-6.57,49.53,49.53,0,0,1-.56-5.88c.15-.5.6-.75,1.34-.75,1.55,0,2.36.15,2.41.45a14.11,14.11,0,0,0,3.75,6.94,9.28,9.28,0,0,0,7,3.48q7.43,0,7.43-8.17a5.24,5.24,0,0,0-.68-2.52,9.3,9.3,0,0,0-2-2.43,29.68,29.68,0,0,0-2.4-1.95c-.71-.5-1.69-1.15-3-2s-2.08-1.33-2.43-1.58-.63-.4-1.13-.75q-2.47-1.65-3.75-2.62a28.29,28.29,0,0,1-3-2.7,10.05,10.05,0,0,1-2.4-3.79A14.22,14.22,0,0,1,301.07,25Z" style="fill:#fcefb2"/><path d="M351.58,12.19c3.38.15,6.11.22,8.21.22s4.85-.07,8.25-.22,6.15-.23,8.25-.23a22.81,22.81,0,0,0,5.18-.82l1.42,12.3a3.18,3.18,0,0,1-2.17.52c-.45,0-.7-.12-.75-.37q-1.87-7.43-8-7.43t-6.37,1.35a26.68,26.68,0,0,0-.6,6.68V51.26a25.1,25.1,0,0,0,.6,6.08c.1.35.79.75,2.06,1.2a9.83,9.83,0,0,0,2.59.67c.2,0,.3.48.3,1.43a4.55,4.55,0,0,1-.15,1.35q-.53,0-4.5-.3t-5.93-.3q-2,0-5.92.26l-4.95.34a1.74,1.74,0,0,1-.3-1.2c0-1,.07-1.58.22-1.58a10.63,10.63,0,0,0,2.78-.63c1.3-.43,2-.84,2.17-1.24a24.34,24.34,0,0,0,.53-5.78V24.41q0-5.85-.6-6.9a2.84,2.84,0,0,0-.41-.64,5.11,5.11,0,0,0-1.62-.45,24.91,24.91,0,0,0-4.12-.26,7.39,7.39,0,0,0-5,1.69,11,11,0,0,0-3,5.66c-.05.25-.3.38-.75.38a3.17,3.17,0,0,1-2.17-.53l1.42-12.22a22.81,22.81,0,0,0,5.18.82Q346.52,12,351.58,12.19Z" style="fill:#fcefb2"/><path d="M46.44,33.11,28.81,1.76a3.35,3.35,0,0,0-2.9-1.7L15.77,0,8.35,0a3.33,3.33,0,0,0-2.9,5L22,33.75a3.32,3.32,0,0,1,0,3.34l-2.11,3.62L5.22,65.84a3.34,3.34,0,0,0,2.88,5h7.72l10.2,0a3.34,3.34,0,0,0,2.89-1.66L35.76,57.5h0l6.29-10.77,4.38-7.49A6.2,6.2,0,0,0,46.44,33.11Z" style="fill:#edc04e"/><polygon points="2.67 0.14 16.05 0.45 41.8 46.44 35.57 57.23 2.67 0.14" style="fill:#3577bc"/><polygon points="2.46 70.52 22.91 35.85 29.65 47.47 15.85 71.14 2.46 70.52" style="fill:#9ab964"/><polygon points="15.85 71.14 29.65 47.06 35.57 57.23 27.78 70.72 15.85 71.14" style="fill:#fcefb2"/><path d="M16.06.45h9.67A3.55,3.55,0,0,1,28.8,2.24L45.85,32.19a8,8,0,0,1-.19,8.24l-3.86,6Z" style="fill:#e9764f"/><polygon points="20.37 39.95 22.94 35.42 35.76 57.5 20.37 39.95" style="fill:#6f2b5a;opacity:0.30000000000000004;mix-blend-mode:multiply"/><path d="M16.71.59l9.76,0a1.81,1.81,0,0,1,1.58.93L46,33.38A5.64,5.64,0,0,1,46,39l-3.89,6.67L16.71.59M15.77,0,42.05,46.73l4.38-7.49a6.2,6.2,0,0,0,0-6.13L28.36,1a1.79,1.79,0,0,0-1.53-.9L15.77,0Z" style="fill:#fcefb2"/><path d="M3.52.55l11.93,0,26,46.14-5.66,9.69-5.64-9.72-6.7-11.54L3.52.55M2.57,0,22.94,35.42,29.64,47,35.76,57.5l6.29-10.77L15.77,0,2.57,0Z" style="fill:#fcefb2"/><path d="M29.64,48.06l5.48,9.44L27.63,70.34l-10.86,0L28.65,49.77l1-1.71m0-1.1-1.46,2.53L15.82,70.86l12.12,0L35.76,57.5,29.64,47Z" style="fill:#fcefb2"/><path d="M.73,5.66,19.39,38.11l3.55-2.69L2.57,0,1.75.62A3.89,3.89,0,0,0,.73,5.66Z" style="fill:#fcefb2"/><path d="M15.82,70.86H2.3L19.86,40.71l3.08-5.29-3.55,2.69-3.08,5.28L.23,71A1.7,1.7,0,0,0,1.7,73.54H12.27l10.34,0a5.23,5.23,0,0,0,3.2-1.07l2.13-1.61Z" style="fill:#fcefb2"/><path d="M22.94,36.51,29,47,27.7,49.22,15.51,70.31H3.25L20.33,41l2.61-4.47m0-1.09-3.08,5.29L2.3,70.85H15.82L28.18,49.49,29.64,47l-6.7-11.54Z" style="fill:#fcefb2"/><path d="M46.44,33.11,28.36,1A1.78,1.78,0,0,0,26.82.06l-11,0L2.57,0,22.94,35.42l-3.08,5.29L2.3,70.85H15.82l12.12,0L35.76,57.5h0l6.29-10.77,4.38-7.49A6.2,6.2,0,0,0,46.44,33.11ZM46,39l-4.37,7.48L35.29,57.23,28,69.71a1.28,1.28,0,0,1-1.11.63l-11.07,0H4.6a.77.77,0,0,1-.66-1.16L20.34,41l3.09-5.28.16-.27-.16-.28L4,1.42a.51.51,0,0,1,.4-.8l11.38,0,10.61,0a2,2,0,0,1,1.71,1L46,33.41A5.64,5.64,0,0,1,46,39Z" style="fill:#fcefb2"/><path d="M238.32,92.72c-.18,0-.44-.19-.76-.57l-10-12.42v9.4a5,5,0,0,0,.2,1.74,1.29,1.29,0,0,0,.59.48,3.76,3.76,0,0,0,.91.31,3.45,3.45,0,0,0,.71.1s.06.07.07.21a3,3,0,0,1,0,.43.62.62,0,0,1,0,.29,16.21,16.21,0,0,1-2-.1c-.55-.06-1-.1-1.32-.1s-.7,0-.93,0l-.77.07c-.29,0-.73.07-1.34.1a.78.78,0,0,1-.07-.44c0-.31,0-.47.07-.47a3.3,3.3,0,0,0,1.19-.23,1.67,1.67,0,0,0,.9-.7,4.13,4.13,0,0,0,.24-1.79V79.41a2.91,2.91,0,0,0-.37-1.74q-.08-.14-.45-.21t-.81-.15a5.23,5.23,0,0,0-.67-.06s-.07-.07-.09-.2a1.94,1.94,0,0,1,0-.43c0-.15,0-.25.07-.28l1.57.1c.37,0,.71.06,1,.07l.77,0c.28,0,.62,0,1-.05s.86-.08,1.38-.15a15.36,15.36,0,0,0,1.37,2.16c.58.79,1.23,1.62,2,2.49L235,83.71q1.17,1.4,2.22,2.79a1.73,1.73,0,0,0,0-.34c0-.16,0-.38,0-.66V79.73a3,3,0,0,0-.32-1.77,1.28,1.28,0,0,0-.53-.36,5.07,5.07,0,0,0-.78-.25,2.6,2.6,0,0,0-.6-.1s-.06-.07-.09-.2a2.74,2.74,0,0,1,0-.43.5.5,0,0,1,0-.28c.76.07,1.4.11,1.94.15s1,.05,1.3.05.63,0,1.06-.05l1.22-.1.77,0a.92.92,0,0,1,.1.44c0,.31,0,.47-.13.47a2.55,2.55,0,0,0-2,.81,3.07,3.07,0,0,0-.35,1.79v9.33c0,.29,0,.73,0,1.3s0,1.29.07,2.14A1.12,1.12,0,0,1,238.32,92.72Z" style="fill:#fcefb2"/><path d="M240.87,92.69a.55.55,0,0,1-.1-.37c0-.34,0-.51,0-.51a2,2,0,0,0,.59-.13,5.57,5.57,0,0,0,.77-.3,1,1,0,0,0,.48-.36,8.2,8.2,0,0,0,.42-.72,7.19,7.19,0,0,0,.32-.7l.12-.3L249,76.83a.94.94,0,0,1,.91-.64.7.7,0,0,1,.59.32l5,12.45.43,1.07c.14.33.26.65.38.94a.84.84,0,0,0,.44.43,3.06,3.06,0,0,0,.75.28,2.64,2.64,0,0,0,.63.1q.09,0,.09.42a1.24,1.24,0,0,1-.05.49l-1.49-.1-1.23-.08a6.15,6.15,0,0,0-.83,0l-3.71.2c-.07-.06-.1-.24-.1-.51s0-.4.1-.4a2.75,2.75,0,0,0,1.1-.23c.38-.16.57-.36.57-.63,0,0-.05-.16-.14-.44s-.25-.68-.48-1.2l-.73-1.79a.28.28,0,0,0-.18-.1,7.78,7.78,0,0,0-.83,0h-3c-.42,0-.76,0-1,0-.07,0-.12,0-.17.12l-.81,1.87a6.41,6.41,0,0,0-.48,1.42.64.64,0,0,0,.43.69,2.41,2.41,0,0,0,.77.26l.58,0s.07.15.07.4a2.3,2.3,0,0,1-.05.51l-1.61-.12-.74-.06a3.17,3.17,0,0,0-.53,0l-.9.06Zm7.81-6.8h.92l.82,0,.07-.12-1.76-4.4-1.92,4.4c0,.06,0,.1.05.1C247.35,85.87,248,85.89,248.68,85.89Z" style="fill:#fcefb2"/><path d="M273.6,92.72c-.18,0-.44-.19-.76-.57l-10-12.42v9.4a5,5,0,0,0,.2,1.74,1.29,1.29,0,0,0,.59.48,3.76,3.76,0,0,0,.91.31,3.45,3.45,0,0,0,.71.1s.06.07.07.21a3,3,0,0,1,0,.43.62.62,0,0,1-.05.29,16.21,16.21,0,0,1-2-.1c-.55-.06-1-.1-1.31-.1s-.71,0-.94,0l-.77.07c-.29,0-.73.07-1.34.1a.78.78,0,0,1-.07-.44c0-.31,0-.47.07-.47a3.3,3.3,0,0,0,1.19-.23,1.67,1.67,0,0,0,.9-.7,4.13,4.13,0,0,0,.24-1.79V79.41a2.91,2.91,0,0,0-.37-1.74c0-.09-.2-.16-.45-.21s-.52-.11-.81-.15a5.23,5.23,0,0,0-.67-.06s-.07-.07-.09-.2a1.94,1.94,0,0,1,0-.43c0-.15,0-.25.07-.28l1.57.1c.37,0,.71.06,1,.07l.77,0c.28,0,.62,0,1-.05s.86-.08,1.39-.15a14.36,14.36,0,0,0,1.36,2.16c.58.79,1.23,1.62,2,2.49l2.26,2.72q1.17,1.4,2.22,2.79a1.73,1.73,0,0,0,0-.34c0-.16,0-.38,0-.66V79.73a3,3,0,0,0-.32-1.77,1.28,1.28,0,0,0-.53-.36,5.07,5.07,0,0,0-.78-.25,2.6,2.6,0,0,0-.6-.1s-.06-.07-.09-.2a2.81,2.81,0,0,1,0-.43.53.53,0,0,1,0-.28c.76.07,1.4.11,1.94.15s1,.05,1.31.05.63,0,1-.05l1.22-.1.77,0a.92.92,0,0,1,.1.44c0,.31,0,.47-.13.47a2.55,2.55,0,0,0-2,.81,3.07,3.07,0,0,0-.35,1.79v9.33c0,.29,0,.73,0,1.3s0,1.29.07,2.14A1.12,1.12,0,0,1,273.6,92.72Z" style="fill:#fcefb2"/><path d="M281.87,92.69a.59.59,0,0,1-.1-.39c0-.35,0-.52.08-.52a2.13,2.13,0,0,0,.56-.1,3.5,3.5,0,0,0,.69-.24c.21-.1.34-.19.37-.27a4.29,4.29,0,0,0,.13-.81c0-.31,0-.67,0-1.08V80.39a6.88,6.88,0,0,0-.2-2.26l-.12-.22a1.43,1.43,0,0,0-.64-.16,11.5,11.5,0,0,0-1.25-.06,2.39,2.39,0,0,0-1.64.55,3.62,3.62,0,0,0-1,1.86q0,.12-.24.12a1.06,1.06,0,0,1-.71-.17l.46-4,1,.19a4.26,4.26,0,0,0,.74.08c.83,0,1.73,0,2.68.07s1.86.07,2.69.07,1.74,0,2.7-.07,1.87-.07,2.7-.07a4.26,4.26,0,0,0,.74-.08l1-.19.46,4a1,1,0,0,1-.71.17q-.19,0-.24-.12c-.41-1.62-1.29-2.43-2.63-2.43s-2,.15-2.09.44a5.38,5.38,0,0,0-.14.89,12.25,12.25,0,0,0-.05,1.3v8.86a9.43,9.43,0,0,0,.05,1.11,6.77,6.77,0,0,0,.14.88.85.85,0,0,0,.36.24,4.32,4.32,0,0,0,.66.26,1.78,1.78,0,0,0,.51.11c.06,0,.09.16.09.47a1.52,1.52,0,0,1-.05.44l-.46,0-1-.08-1.13-.07-.81,0c-.29,0-.69,0-1.2.05l-1.44.09Z" style="fill:#fcefb2"/><path d="M294.34,92.69a.64.64,0,0,1-.09-.42c0-.32,0-.49.09-.49a3,3,0,0,0,.57-.07,3.94,3.94,0,0,0,.69-.21.74.74,0,0,0,.37-.26,10.92,10.92,0,0,0,.14-2.16V79.8a9,9,0,0,0-.14-1.91c0-.1-.16-.2-.39-.31a3.91,3.91,0,0,0-.7-.27,2.24,2.24,0,0,0-.56-.11c-.07,0-.1-.15-.1-.44a.83.83,0,0,1,.08-.47l1.87.09,1.73,0c.72,0,2,0,3.81-.07l2.41,0h1.71c0,.08.09.43.2,1s.29,1.48.52,2.6a.83.83,0,0,1-.57.13.33.33,0,0,1-.34-.17,3.54,3.54,0,0,0-.87-1.15,5.63,5.63,0,0,0-1.26-.81,3.19,3.19,0,0,0-1.31-.3h-.93c-1,0-1.58.1-1.6.32s-.06.45-.08.77,0,.7,0,1.14v3.78c0,.1.35.15,1.06.15h1.3a6.14,6.14,0,0,0,1.67-.1,1.53,1.53,0,0,0,.19-.71,4.42,4.42,0,0,1,.15-.71c0-.12.14-.17.37-.17a.82.82,0,0,1,.54.12v4.64a.9.9,0,0,1-.52.1c-.21,0-.34-.07-.39-.2-.2-.64-.33-1-.39-1.18s-.11-.17-.14-.16-.08,0-.16-.08a5,5,0,0,0-1.91-.2c-1.18,0-1.77.07-1.77.22v3.78a5.51,5.51,0,0,0,.2,1.74c.06.27.62.4,1.67.4h.63a5.9,5.9,0,0,0,2.75-.64,3.58,3.58,0,0,0,.95-.84,4.62,4.62,0,0,0,.82-1.37c0-.1.15-.15.34-.15a1.15,1.15,0,0,1,.74.15,27.37,27.37,0,0,0-1.32,4.22h-1.61l-2.37,0q-1.35,0-2.46-.06c-.73,0-1.39,0-2,0Z" style="fill:#fcefb2"/><path d="M314.11,92.84a15.12,15.12,0,0,1-2.14-.16c-.77-.11-1.61-.27-2.53-.48-.08-.36-.16-.81-.25-1.35s-.17-1.07-.22-1.58a11.09,11.09,0,0,1-.09-1.15c.05-.16.2-.24.44-.24.51,0,.77.05.79.15a4.35,4.35,0,0,0,.66,1.53A4.88,4.88,0,0,0,312,90.9a2.68,2.68,0,0,0,1.59.54c1.62,0,2.43-.89,2.43-2.68a1.9,1.9,0,0,0-.55-1.3,7,7,0,0,0-1.28-1L313,85.6l-.74-.5c-.55-.37-1.08-.76-1.57-1.16a5,5,0,0,1-1.19-1.4,3.91,3.91,0,0,1-.45-2,3.63,3.63,0,0,1,.76-2.26,5.42,5.42,0,0,1,2-1.6,5.67,5.67,0,0,1,2.51-.59,7.8,7.8,0,0,1,1.06.08l.95.14c.49.1.91.2,1.26.29s.64.15.85.18c.08.8.15,1.54.2,2.21s.07,1.29.07,1.87a.37.37,0,0,1-.37.24c-.49,0-.74-.05-.76-.17a4.09,4.09,0,0,0-.54-1.62,4.21,4.21,0,0,0-1.13-1.31,2.46,2.46,0,0,0-1.57-.53,2,2,0,0,0-1.41.51,2.11,2.11,0,0,0-.58,1.65,2.27,2.27,0,0,0,.9,1.77,22.33,22.33,0,0,0,2.32,1.67l1.25.78a12.14,12.14,0,0,1,1.3.92,3.89,3.89,0,0,1,1,1.3,5.06,5.06,0,0,1,.39,2.18,3.88,3.88,0,0,1-.75,2.33,5.11,5.11,0,0,1-2,1.62A6,6,0,0,1,314.11,92.84Z" style="fill:#fcefb2"/><path d="M326.11,92.59a1.42,1.42,0,0,1-.29-.81c.79-.86,1.53-1.77,2.25-2.72s1.34-1.89,1.9-2.81a17.27,17.27,0,0,0,1.31-2.62,6,6,0,0,0,.48-2.11,3.16,3.16,0,0,0-.56-1.85,1.79,1.79,0,0,0-1.53-.8,2.53,2.53,0,0,0-1.33.34,3.47,3.47,0,0,0-1.07,1.06l-.25.34a.82.82,0,0,1-.45-.18.55.55,0,0,1-.26-.43,4.7,4.7,0,0,1,.53-.9,10.9,10.9,0,0,1,.87-1,4.17,4.17,0,0,1,1.4-.9,4.79,4.79,0,0,1,1.84-.35,4.49,4.49,0,0,1,2.19.52,3.85,3.85,0,0,1,1.51,1.46,4.45,4.45,0,0,1,.55,2.24,5,5,0,0,1-.58,2.52,18.84,18.84,0,0,1-1.29,2A11.4,11.4,0,0,1,332,87.09l-.78.79c-.2.2-.38.37-.56.53L330,89l-1,.9a.12.12,0,0,0,0,.13.1.1,0,0,0,.12.09h4.2a1.74,1.74,0,0,0,1.09-.3A1.81,1.81,0,0,0,335,89a9.53,9.53,0,0,0,.34-1.1c0-.11.16-.17.42-.17a.83.83,0,0,1,.56.15c-.16.7-.32,1.42-.48,2.13s-.31,1.47-.48,2.24c0,.23-.13.34-.29.34Z" style="fill:#fcefb2"/><path d="M343.3,92.67a4.16,4.16,0,0,1-2.16-.61,6.09,6.09,0,0,1-1.83-1.66,8.84,8.84,0,0,1-1.26-2.47,9.62,9.62,0,0,1,0-5.94,8.58,8.58,0,0,1,1.26-2.47,6.13,6.13,0,0,1,1.83-1.67,4.25,4.25,0,0,1,2.16-.6,4,4,0,0,1,2.11.6,6.13,6.13,0,0,1,1.79,1.67A8.43,8.43,0,0,1,348.44,82a9.88,9.88,0,0,1,0,6,8.55,8.55,0,0,1-1.24,2.47,6.09,6.09,0,0,1-1.79,1.66A4,4,0,0,1,343.3,92.67Zm0-1.28q1.08,0,1.62-1.77a17.57,17.57,0,0,0,.52-4.81,15.86,15.86,0,0,0-.56-4.64c-.36-1.13-.89-1.69-1.58-1.69s-1.26.58-1.69,1.76a14.56,14.56,0,0,0-.61,4.69,13.22,13.22,0,0,0,.68,4.64C342.15,90.78,342.69,91.39,343.32,91.39Z" style="fill:#fcefb2"/><path d="M350.42,92.59a1.42,1.42,0,0,1-.29-.81c.78-.86,1.53-1.77,2.24-2.72s1.35-1.89,1.91-2.81a18.25,18.25,0,0,0,1.31-2.62,6,6,0,0,0,.48-2.11,3.1,3.1,0,0,0-.57-1.85,1.77,1.77,0,0,0-1.52-.8,2.57,2.57,0,0,0-1.34.34,3.58,3.58,0,0,0-1.07,1.06l-.24.34a.87.87,0,0,1-.46-.18.54.54,0,0,1-.25-.43,4.23,4.23,0,0,1,.53-.9,10.9,10.9,0,0,1,.87-1,4.07,4.07,0,0,1,1.4-.9,4.75,4.75,0,0,1,1.84-.35,4.45,4.45,0,0,1,2.18.52A3.79,3.79,0,0,1,359,78.81a4.35,4.35,0,0,1,.55,2.24,5.1,5.1,0,0,1-.57,2.52,22.63,22.63,0,0,1-1.29,2,11.4,11.4,0,0,1-1.35,1.52l-.79.79c-.19.2-.38.37-.55.53l-.61.56-1,.9a.12.12,0,0,0,0,.13.12.12,0,0,0,.12.09h4.2a1.76,1.76,0,0,0,1.1-.3,1.8,1.8,0,0,0,.57-.79,9.49,9.49,0,0,0,.35-1.1c0-.11.15-.17.41-.17a.87.87,0,0,1,.57.15c-.17.7-.32,1.42-.48,2.13s-.32,1.47-.48,2.24c0,.23-.13.34-.29.34Z" style="fill:#fcefb2"/><path d="M365,92.69a5.18,5.18,0,0,1-2.87-.83,2.2,2.2,0,0,1-.15-.72,2.24,2.24,0,0,1,.23-1,.82.82,0,0,1,.8-.46,1.84,1.84,0,0,1,1.38.88,2.17,2.17,0,0,0,3.48,0,4.48,4.48,0,0,0,.62-2.54,3.7,3.7,0,0,0-.69-2.32,2.25,2.25,0,0,0-1.89-.9,4.8,4.8,0,0,0-.62,0l-.73.08a1.1,1.1,0,0,1-.17-.73.9.9,0,0,1,.07-.37,3.67,3.67,0,0,0,2.2-1.09,3.15,3.15,0,0,0,.8-2.2A2.05,2.05,0,0,0,367,79a1.42,1.42,0,0,0-1-.47,3,3,0,0,0-2.31,1,.52.52,0,0,1-.37-.24.75.75,0,0,1-.19-.42,5.16,5.16,0,0,1,1.86-1.51,5.51,5.51,0,0,1,2.53-.58,3.07,3.07,0,0,1,1.34.32,2.8,2.8,0,0,1,1.08.95,2.7,2.7,0,0,1,.43,1.55,3.72,3.72,0,0,1-.32,1.51,4.93,4.93,0,0,1-.8,1.29,3.77,3.77,0,0,1-1,.86,2.49,2.49,0,0,1,1.09.31,5,5,0,0,1,1.17.85,4.39,4.39,0,0,1,.93,1.27,3.49,3.49,0,0,1,.37,1.6,4.47,4.47,0,0,1-.56,2.2,5.41,5.41,0,0,1-1.55,1.69,7.59,7.59,0,0,1-2.19,1.08A8.32,8.32,0,0,1,365,92.69Z" style="fill:#fcefb2"/></g></g></g></svg>