<svg id="Calque_1" data-name="Calque 1" xmlns="http://www.w3.org/2000/svg" viewBox="0 0 413.33 217.67"><g id="Calque_2" data-name="Calque 2"><g id="Calque_2-2" data-name="Calque 2-2"><g style="isolation:isolate"><path d="M3,217.08a2.38,2.38,0,0,1-.38-1.63c0-1.28.12-1.92.38-1.92a12.46,12.46,0,0,0,2.21-.29,14.15,14.15,0,0,0,2.7-.82c.83-.35,1.31-.69,1.44-1A40.27,40.27,0,0,0,9.91,203V166.6a33,33,0,0,0-.58-7.5c-.13-.39-.63-.79-1.49-1.21a18.71,18.71,0,0,0-2.74-1,8.41,8.41,0,0,0-2.21-.44c-.26,0-.39-.57-.39-1.73a3.33,3.33,0,0,1,.29-1.83q3.84.19,7.36.34t6.78.15H33.66a37.07,37.07,0,0,1,14,2.5,31,31,0,0,1,10.53,6.82,29.65,29.65,0,0,1,6.59,9.91A31.33,31.33,0,0,1,67,184.39,34,34,0,0,1,63,201a29.91,29.91,0,0,1-11.54,11.68Q44,217,33.56,217c-.64,0-1.58,0-2.83-.05l-4.67-.14c-1.86-.13-3.56-.23-5.1-.29a36.73,36.73,0,0,0-3.94,0ZM35.1,211.6a14,14,0,0,0,12.5-6.92Q52,197.75,52,184a36.87,36.87,0,0,0-2.12-12.84,21.57,21.57,0,0,0-6-9.08,14,14,0,0,0-9.47-3.37H34q-8.18,0-9.33,1.54t-1.25,6.06v37.31q0,6.25.86,6.73Q26.35,211.61,35.1,211.6Z" transform="translate(-2.5 0.01)" style="fill:#fcefb2"/><path d="M72.61,217.08a2.37,2.37,0,0,1-.39-1.63q0-1.92.39-1.92a12.46,12.46,0,0,0,2.21-.29,13.84,13.84,0,0,0,2.69-.82c.83-.35,1.31-.69,1.44-1a39.57,39.57,0,0,0,.58-8.46V166.6a32.44,32.44,0,0,0-.58-7.5c-.13-.39-.62-.79-1.49-1.21a18.29,18.29,0,0,0-2.74-1,8.41,8.41,0,0,0-2.21-.44c-.26,0-.39-.57-.39-1.73a3.33,3.33,0,0,1,.29-1.83q3.86.19,7.36.34t6.78.15q4.23,0,14.91-.29c3.59-.07,6.73-.11,9.42-.15s4.94,0,6.73,0c.07.33.32,1.67.77,4s1.12,5.77,2,10.2a3.38,3.38,0,0,1-2.21.48,1.32,1.32,0,0,1-1.35-.67,13.34,13.34,0,0,0-3.41-4.48,20.23,20.23,0,0,0-4.9-3.17,12.45,12.45,0,0,0-5.15-1.2H99.73c-4.11,0-6.19.42-6.26,1.25s-.24,1.78-.33,3-.15,2.74-.15,4.47V181.6c0,.38,1.38.58,4.14.58h5.1c4,0,6.21-.13,6.54-.39a5.88,5.88,0,0,0,.77-2.79,16.55,16.55,0,0,1,.57-2.79c.07-.44.55-.67,1.44-.67a3.19,3.19,0,0,1,2.12.48V194.2a3.34,3.34,0,0,1-2,.38c-.83,0-1.35-.25-1.54-.77q-1.15-3.75-1.54-4.61c-.25-.45-.43-.66-.53-.63s-.3-.08-.62-.34q-1.35-.76-7.5-.77-6.93,0-6.93.87v14.81a23,23,0,0,0,.77,6.83c.26,1,2.44,1.54,6.54,1.54h2.5a23,23,0,0,0,10.77-2.5,14.07,14.07,0,0,0,3.71-3.27,18.51,18.51,0,0,0,3.22-5.39c.12-.38.58-.58,1.34-.58,1.54,0,2.51.2,2.89.58q-4.82,13.28-5.19,16.54c-1.61,0-3.71,0-6.3,0L104,216.7c-3.53-.06-6.73-.14-9.62-.24s-5.45-.08-7.69,0Z" transform="translate(-2.5 0.01)" style="fill:#fcefb2"/><path d="M161.18,217.66a2.62,2.62,0,0,1-2.22-1.25l-19.71-48.76-3.17-7.88a3.27,3.27,0,0,0-1.73-1.73,14.66,14.66,0,0,0-2.84-1.06,10,10,0,0,0-2.45-.38c-.26,0-.39-.55-.39-1.64a5.48,5.48,0,0,1,.2-1.92l6,.38c1.79.13,3.35.23,4.66.29s2.39.1,3.22.1l14.52-.77a3,3,0,0,1,.39,1.92c0,1.09-.13,1.64-.39,1.64a10.76,10.76,0,0,0-2.59.38,8.12,8.12,0,0,0-2.65,1.15,2.28,2.28,0,0,0-1.1,1.93c0,.51.73,2.63,2.21,6.34L166,198.14l13.55-31.64q1.94-4.42,1.93-6.54c0-1-.66-1.76-2-2.4a11.08,11.08,0,0,0-4.86-1c-.19-.13-.29-.65-.29-1.54a9,9,0,0,1,.19-2q4.05.28,6.06.48t2.94.24c.6,0,1.1.05,1.49.05s.93,0,1.63-.1l3.32-.29c1.51-.13,3.73-.25,6.68-.38a2,2,0,0,1,.39,1.44c0,1.35-.07,2-.19,2a11.44,11.44,0,0,0-3.37.82,12.66,12.66,0,0,0-3.75,2q-.87.87-3.66,7L165.31,214.1a7.14,7.14,0,0,1-2,2.6A3.62,3.62,0,0,1,161.18,217.66Z" transform="translate(-2.5 0.01)" style="fill:#fcefb2"/><path d="M200.22,217.08a2.38,2.38,0,0,1-.38-1.63c0-1.28.12-1.92.38-1.92a12.46,12.46,0,0,0,2.21-.29,14.15,14.15,0,0,0,2.7-.82c.83-.35,1.31-.69,1.44-1a40.27,40.27,0,0,0,.58-8.46V166.6a33,33,0,0,0-.58-7.5c-.13-.39-.63-.79-1.49-1.21a18.71,18.71,0,0,0-2.74-1,8.4,8.4,0,0,0-2.22-.44c-.25,0-.38-.57-.38-1.73a3.33,3.33,0,0,1,.29-1.83l7.89.34q3.56.15,6.25.15,6.24,0,16.15-.29c3.33-.07,6.24-.11,8.71-.15s4.53,0,6.2,0c.06.33.32,1.67.77,4s1.12,5.77,2,10.2a3.39,3.39,0,0,1-2.22.48,1.3,1.3,0,0,1-1.34-.67,13.37,13.37,0,0,0-3.42-4.48,20,20,0,0,0-4.9-3.17A12.4,12.4,0,0,0,231,158h-3.66c-4.1,0-6.19.42-6.25,1.25s-.24,1.78-.34,3-.14,2.74-.14,4.47V181.6c0,.38,1.38.58,4.13.58h5.1q6.06,0,6.54-.39a5.76,5.76,0,0,0,.77-2.79,16.52,16.52,0,0,1,.58-2.79c.06-.44.54-.67,1.44-.67a3.21,3.21,0,0,1,2.12.48V194.2a3.36,3.36,0,0,1-2,.38c-.84,0-1.35-.25-1.54-.77-.77-2.5-1.29-4-1.54-4.61s-.43-.66-.53-.63-.31-.08-.63-.34c-.89-.51-3.4-.77-7.5-.77q-6.92,0-6.92.87v14.81a35.5,35.5,0,0,0,.67,7.89c.13.51.68,1,1.64,1.34a14.85,14.85,0,0,0,3.17.87,17.81,17.81,0,0,0,2.69.29c.26,0,.39.61.39,1.82a7.57,7.57,0,0,1-.19,1.73q-11.55-.57-14.72-.57Z" transform="translate(-2.5 0.01)" style="fill:#fcefb2"/><path d="M253.4,217.08a2.44,2.44,0,0,1-.38-1.63c0-1.28.13-1.92.38-1.92a12.46,12.46,0,0,0,2.21-.29,13.94,13.94,0,0,0,2.7-.82c.83-.35,1.31-.69,1.44-1a40.27,40.27,0,0,0,.58-8.46V166.6a33,33,0,0,0-.58-7.5c-.13-.39-.63-.79-1.49-1.21a18.71,18.71,0,0,0-2.74-1,8.41,8.41,0,0,0-2.21-.44c-.26,0-.39-.57-.39-1.73a3.33,3.33,0,0,1,.29-1.83c2.56.13,5,.24,7.36.34s4.6.15,6.78.15q4.23,0,14.9-.29c3.59-.07,6.73-.11,9.43-.15s4.93,0,6.73,0c.06.33.32,1.67.77,4s1.12,5.77,2,10.2a3.38,3.38,0,0,1-2.21.48c-.71,0-1.16-.23-1.35-.67a13.47,13.47,0,0,0-3.41-4.48,20.29,20.29,0,0,0-4.91-3.17,12.4,12.4,0,0,0-5.14-1.2h-3.66c-4.1,0-6.19.42-6.25,1.25s-.24,1.78-.34,3-.14,2.74-.14,4.47V181.6c0,.38,1.38.58,4.13.58H283q6.06,0,6.54-.39a5.76,5.76,0,0,0,.77-2.79,16.52,16.52,0,0,1,.58-2.79c.06-.44.54-.67,1.44-.67a3.21,3.21,0,0,1,2.12.48V194.2a3.34,3.34,0,0,1-2,.38c-.84,0-1.35-.25-1.54-.77-.77-2.5-1.29-4-1.54-4.61s-.43-.66-.53-.63-.3-.08-.63-.34q-1.33-.76-7.5-.77-6.91,0-6.92.87v14.81a22.66,22.66,0,0,0,.77,6.83c.25,1,2.44,1.54,6.54,1.54h2.5a23.1,23.1,0,0,0,10.77-2.5,14.05,14.05,0,0,0,3.7-3.27,18.29,18.29,0,0,0,3.22-5.39c.13-.38.58-.58,1.35-.58,1.54,0,2.5.2,2.89.58q-4.81,13.28-5.2,16.54c-1.6,0-3.7,0-6.3,0l-9.28-.14c-3.52-.06-6.73-.14-9.61-.24s-5.45-.08-7.7,0Z" transform="translate(-2.5 0.01)" style="fill:#fcefb2"/><path d="M330.82,217.66a62.35,62.35,0,0,1-8.37-.62c-3-.42-6.32-1-9.91-1.88q-.48-2.11-1-5.29t-.87-6.2a43.55,43.55,0,0,1-.34-4.47c.2-.64.77-1,1.73-1,2,0,3,.19,3.08.57a17.49,17.49,0,0,0,2.6,6,18.91,18.91,0,0,0,4.95,5.24,10.37,10.37,0,0,0,6.2,2.12q9.53,0,9.52-10.48a7.31,7.31,0,0,0-2.16-5.1,26,26,0,0,0-5-4.13q-2.83-1.83-4.86-3.18l-2.88-1.92q-3.27-2.22-6.16-4.57a19.62,19.62,0,0,1-4.66-5.48,15.19,15.19,0,0,1-1.78-7.65,14.27,14.27,0,0,1,3-8.84,21,21,0,0,1,7.69-6.25,22,22,0,0,1,9.81-2.31,30.55,30.55,0,0,1,4.19.29c1.44.19,2.67.38,3.7.57q2.88.59,5,1.11c1.38.35,2.49.59,3.32.72q.48,4.71.77,8.66c.19,2.62.29,5.06.29,7.3a1.43,1.43,0,0,1-1.44,1c-1.93,0-2.92-.23-3-.68a17.43,17.43,0,0,0-6.54-11.49,9.8,9.8,0,0,0-6.15-2.07,8,8,0,0,0-5.53,2q-2.26,2-2.26,6.45a8.89,8.89,0,0,0,3.51,6.92,83.44,83.44,0,0,0,9.09,6.54l4.9,3.08a44.08,44.08,0,0,1,5.1,3.6,15.15,15.15,0,0,1,3.94,5.1,19.44,19.44,0,0,1,1.54,8.51,15.22,15.22,0,0,1-2.93,9.14,20.15,20.15,0,0,1-7.7,6.34A23.34,23.34,0,0,1,330.82,217.66Z" transform="translate(-2.5 0.01)" style="fill:#fcefb2"/><path d="M372.46,217.08a2.17,2.17,0,0,1-.39-1.53c0-1.35.1-2,.29-2a9.22,9.22,0,0,0,2.21-.39,15.63,15.63,0,0,0,2.7-1c.83-.38,1.31-.74,1.44-1.06a17,17,0,0,0,.53-3.17c.09-1.22.14-2.63.14-4.23V168.91c0-5-.26-7.95-.77-8.85l-.48-.87a5.54,5.54,0,0,0-2.5-.62,44.08,44.08,0,0,0-4.9-.24,9.53,9.53,0,0,0-6.45,2.16c-1.66,1.44-2.95,3.86-3.84,7.26-.13.32-.45.48-1,.48a4,4,0,0,1-2.78-.67l1.82-15.68c1.41.32,2.66.58,3.75.77a17.09,17.09,0,0,0,2.89.29q4.91,0,10.53.29t10.53.29c3.27,0,6.79-.1,10.58-.29s7.31-.29,10.58-.29a17.08,17.08,0,0,0,2.88-.29c1.09-.19,2.34-.45,3.75-.77l1.83,15.77a4.08,4.08,0,0,1-2.79.68q-.77,0-1-.48-2.4-9.53-10.29-9.52c-5.13,0-7.86.57-8.18,1.73a20.18,20.18,0,0,0-.57,3.46c-.13,1.41-.2,3.11-.2,5.1v34.71a43.06,43.06,0,0,0,.2,4.33,25.48,25.48,0,0,0,.57,3.46,3.23,3.23,0,0,0,1.4,1,16.94,16.94,0,0,0,2.6,1,7.77,7.77,0,0,0,2,.44c.25,0,.38.61.38,1.82a7,7,0,0,1-.19,1.73q-.39,0-1.83-.09L394,216.7c-1.67-.13-3.14-.22-4.42-.29s-2.35-.09-3.18-.09c-1.15,0-2.72.06-4.71.19s-3.86.24-5.63.33S373.1,217,372.46,217.08Z" transform="translate(-2.5 0.01)" style="fill:#fcefb2"/></g><path d="M58,104.53v9a18.58,18.58,0,0,1-5.74-1.31L52,105.4a5.29,5.29,0,0,0,4.69.87A1.9,1.9,0,0,0,58,104.53Z" transform="translate(-2.5 0.01)" style="fill:#e9764f"/><path d="M167,97.88c-9.66-1.2-31,9.72-31.91,10.2l-1.42.71c-3.12,1.5-6.24,2.58-7.09.94.14.29,1.87,4,3.8,7.7.59,1.13,1.19,2.26,1.78,3.28,2.58,4.49,7.52,2.63,12,.58,7.57-3.45,21.93-9,32.74-8.72C177,112.57,169.28,100.9,167,97.88Z" transform="translate(-2.5 0.01)" style="fill:#f2b167"/><path d="M104.21,113.84l1,6V120L107,130a10,10,0,0,1-7.21,5.17,9.36,9.36,0,0,1-8-2.29L87,120.67l-1.7-4.31c1.77,3.06,5.58,5.3,11.21,4.55a9.82,9.82,0,0,0,5.46-2.27A6.82,6.82,0,0,0,104.21,113.84Z" transform="translate(-2.5 0.01)" style="fill:#f2b167"/><path d="M131.34,104.4c1.31,3.37-4.73,5.31-4.73,5.31h0c.14.29,1.87,4,3.8,7.7A32.9,32.9,0,0,0,105.26,120v-.13c-.12-.82-.76-5.23-1-6h0c-.25-.72-3.73-1.14-4.4-4.6s9.09-6.6,13.88-7.56a42.79,42.79,0,0,1,4.52-.66c4.86-.47,10.73-.25,12.71,2.6Z" transform="translate(-2.5 0.01)" style="fill:#e9764f"/><path d="M104.21,113.83h0a6.87,6.87,0,0,1-2.29,4.8l-2.11-9.41C100.48,112.69,104,113.11,104.21,113.83Z" transform="translate(-2.5 0.01)" style="fill:#fcefb2"/><path d="M133.7,108.77h0c-3.12,1.5-6.24,2.58-7.09.94h0s6-1.94,4.73-5.31Z" transform="translate(-2.5 0.01)" style="fill:#fcefb2"/><path d="M118.19,100.82c14.55-10.52,28.05-8.51,28.05-8.51-.28,5.85-15.32,11.3-15.32,11.3-2-2.85-7.85-3.07-12.71-2.6Z" transform="translate(-2.5 0.01)" style="fill:#fcefb2"/><path d="M141.09,80.71l5.15,11.6s-13.5-2-28.05,8.51V101a42.79,42.79,0,0,0-4.52.66c-4.79,1-14.55,4.12-13.88,7.56l2.11,9.41a9.82,9.82,0,0,1-5.46,2.27c-5.64.75-9.45-1.49-11.22-4.55h0l-.9-2.36a7.83,7.83,0,0,1-.21-1.52c-.09-2.14.94-5,3.28-8.19,2.78-3.84,7.42-8.25,14.24-12.78,12.17-8.08,23.89-12.19,37.7-12A2,2,0,0,1,141.09,80.71Z" transform="translate(-2.5 0.01)" style="fill:#d14f34"/><path d="M85.25,116.36l1.7,4.31c-9.89,6.85-24.86,7.32-28.59,6.85s-9.19-3.55-10.24-8.17a98.71,98.71,0,0,1-1.44-12.84c.36,2.17,2.23,4.35,5.54,5.72A18.89,18.89,0,0,0,58,113.54c.62.06,1.26.09,1.93.1,8.14.09,20.64-4.22,27.5-9.34-2.34,3.23-3.37,6-3.28,8.19a7.83,7.83,0,0,0,.21,1.52,8.52,8.52,0,0,0,.92,2.33Z" transform="translate(-2.5 0.01)" style="fill:#f2b167"/><path d="M58,104.53a1.92,1.92,0,0,1-1.23,1.74A5.3,5.3,0,0,1,52,105.4l.18,6.83c-3.31-1.37-5.18-3.55-5.54-5.72-.57-3.49,4.88-7.33,8.43-5.69C57.23,101.8,58.05,103.32,58,104.53Z" transform="translate(-2.5 0.01)" style="fill:#db582e"/><path d="M186.15,103.49c1.87-4.41-1.76-7.38-10.55-8.07C175.6,95.42,184.25,108,186.15,103.49Z" transform="translate(-2.5 0.01)" style="fill:#fcefb2"/><path d="M48.61,112.59a.23.23,0,0,1-.16-.06,6.38,6.38,0,0,1-.74-.73.24.24,0,0,1,0-.34h0a.24.24,0,0,1,.35,0,4.25,4.25,0,0,0,.67.67.24.24,0,0,1,0,.34h0A.23.23,0,0,1,48.61,112.59Z" transform="translate(-2.5 0.01)" style="fill:#fcefb2"/><path d="M59.34,116.19h0a17.37,17.37,0,0,1-1.93-.13.25.25,0,0,1-.22-.28h0a.22.22,0,0,1,.24-.22h0c.62.07,1.25.11,1.9.13a.25.25,0,0,1,.24.26h0a.24.24,0,0,1-.24.24Zm1.92,0A.26.26,0,0,1,61,116a.27.27,0,0,1,.24-.26c.62,0,1.26-.07,1.91-.13a.24.24,0,0,1,.27.21h0a.26.26,0,0,1-.22.28c-.66.06-1.31.11-1.94.13Zm3.83-.38a.26.26,0,0,1-.25-.21.25.25,0,0,1,.2-.29h0c.61-.1,1.24-.21,1.88-.35a.24.24,0,0,1,.29.2.24.24,0,0,1-.19.29c-.64.14-1.28.26-1.9.35Zm-9.56,0h-.05c-.65-.14-1.29-.3-1.89-.49a.24.24,0,0,1-.16-.3h0a.25.25,0,0,1,.31-.17h0c.6.19,1.22.35,1.84.48a.25.25,0,0,1,0,.49ZM68.86,115a.26.26,0,0,1-.25-.19.25.25,0,0,1,.19-.3h0l1.87-.45a.26.26,0,0,1,.31.18.26.26,0,0,1-.19.31l-1.88.45Zm-17-.42h-.1a15.82,15.82,0,0,1-1.73-.91.26.26,0,0,1-.09-.35.27.27,0,0,1,.35-.08,14.9,14.9,0,0,0,1.68.88.25.25,0,0,1,.12.33.25.25,0,0,1-.23.16Zm20.73-.51a.25.25,0,0,1-.24-.18.25.25,0,0,1,.17-.31c.65-.17,1.26-.35,1.85-.52a.25.25,0,1,1,.14.48l-1.86.53Zm3.68-1.1a.25.25,0,0,1-.08-.48c.65-.22,1.26-.43,1.81-.64a.26.26,0,0,1,.32.16.26.26,0,0,1-.15.31c-.56.21-1.16.42-1.82.64Zm3.6-1.34a.25.25,0,0,1-.23-.15.26.26,0,0,1,.13-.33c.63-.27,1.21-.53,1.73-.8a.25.25,0,1,1,.23.45c-.54.27-1.13.54-1.76.81Z" transform="translate(-2.5 0.01)" style="fill:#fcefb2"/><path d="M83.31,109.89a.26.26,0,0,1-.21-.11.25.25,0,0,1,.07-.35h0a5.29,5.29,0,0,0,.75-.57.25.25,0,0,1,.35,0h0a.24.24,0,0,1,0,.35,4.71,4.71,0,0,1-.83.64A.33.33,0,0,1,83.31,109.89Z" transform="translate(-2.5 0.01)" style="fill:#fcefb2"/><path d="M62,126H60.8a.24.24,0,0,1-.24-.24v0a.25.25,0,0,1,.26-.24h2a.24.24,0,0,1,.26.22v0a.25.25,0,0,1-.24.26Zm2.86-.11a.25.25,0,0,1,0-.5c.65,0,1.31-.11,2-.19a.25.25,0,0,1,.28.22h0a.26.26,0,0,1-.22.28c-.67.08-1.35.14-2,.19Zm-6-.08h0c-.68-.09-1.35-.21-2-.35a.25.25,0,0,1-.19-.3A.24.24,0,0,1,57,125c.63.14,1.28.25,2,.34a.25.25,0,1,1,0,.5Zm10-.39a.25.25,0,0,1,0-.49l2-.36a.24.24,0,0,1,.29.19.25.25,0,0,1-.19.3c-.67.13-1.33.25-2,.36ZM55,124.92h-.09a16,16,0,0,1-1.87-.77.24.24,0,0,1-.12-.33h0a.26.26,0,0,1,.34-.11,15.14,15.14,0,0,0,1.82.75.24.24,0,0,1,.13.33.26.26,0,0,1-.21.15Zm17.77-.28a.26.26,0,0,1-.24-.19.25.25,0,0,1,.19-.3h0c.65-.16,1.29-.32,1.93-.5a.25.25,0,0,1,.13.49h0c-.64.17-1.29.34-2,.49Zm3.86-1a.26.26,0,0,1-.24-.18.25.25,0,0,1,.17-.31c.64-.2,1.27-.4,1.9-.62a.25.25,0,0,1,.16.48c-.63.21-1.26.42-1.91.62Zm-25.21-.43a.33.33,0,0,1-.14,0,8.38,8.38,0,0,1-1.58-1.33.25.25,0,0,1,0-.35h0a.26.26,0,0,1,.35,0,7.67,7.67,0,0,0,1.48,1.25.23.23,0,0,1,.06.33h0a.21.21,0,0,1-.25.08Zm29-.86a.26.26,0,0,1-.09-.49c.64-.24,1.26-.48,1.86-.73a.23.23,0,0,1,.31.13h0a.26.26,0,0,1-.13.33l-1.87.73Zm3.7-1.53a.23.23,0,0,1-.28-.19.24.24,0,0,1,.18-.28l1.19-.56a.26.26,0,0,1,.34.12.26.26,0,0,1-.13.34l-1.2.55a.19.19,0,0,1-.18,0Z" transform="translate(-2.5 0.01)" style="fill:#fcefb2"/><path d="M54.66,107.89h0a5.48,5.48,0,0,1-2-.73.25.25,0,0,1-.07-.34.26.26,0,0,1,.35-.08,5.05,5.05,0,0,0,1.77.66.24.24,0,0,1,.2.27v0A.25.25,0,0,1,54.66,107.89Zm2-.08a.25.25,0,0,1-.07-.49,4.13,4.13,0,0,0,1.24-.58.25.25,0,0,1,.29.41,4.65,4.65,0,0,1-1.39.65Z" transform="translate(-2.5 0.01)" style="fill:#fcefb2"/><path d="M94.83,123.85h-.66a.25.25,0,0,1-.24-.26h0a.25.25,0,0,1,.26-.24h0a13.35,13.35,0,0,0,2,0,.26.26,0,0,1,.28.22.26.26,0,0,1-.23.28C95.75,123.82,95.29,123.85,94.83,123.85Zm-2.64-.25h0a11.59,11.59,0,0,1-2-.54.24.24,0,0,1-.16-.3v0a.26.26,0,0,1,.32-.15,12.61,12.61,0,0,0,1.89.52.25.25,0,0,1,.2.29A.27.27,0,0,1,92.19,123.6Zm6-.17a.26.26,0,0,1-.24-.19.25.25,0,0,1,.18-.3,10.84,10.84,0,0,0,1.83-.67.26.26,0,0,1,.34.11h0a.25.25,0,0,1-.12.33,11,11,0,0,1-1.92.7Zm-9.67-1.22a.33.33,0,0,1-.14,0,6.54,6.54,0,0,1-1.58-1.34.24.24,0,0,1,0-.35.24.24,0,0,1,.34,0h0a5.93,5.93,0,0,0,1.46,1.23.25.25,0,0,1-.14.46Zm13.26-.5a.22.22,0,0,1-.2-.1.24.24,0,0,1,0-.34h0a8.08,8.08,0,0,0,1.39-1.35.25.25,0,1,1,.39.32,9,9,0,0,1-1.47,1.43.3.3,0,0,1-.16,0Zm2.49-3.08a.21.21,0,0,1-.11,0,.25.25,0,0,1-.11-.33c.11-.24.22-.49.31-.74a.24.24,0,0,1,.32-.14h0a.25.25,0,0,1,.15.31h0c-.1.27-.21.52-.33.77a.25.25,0,0,1-.28.12Z" transform="translate(-2.5 0.01)" style="fill:#fcefb2"/><path d="M98.78,134.08a.25.25,0,0,1,0-.5,11.36,11.36,0,0,0,1.92-.34.25.25,0,0,1,.13.49,12.31,12.31,0,0,1-2,.35Zm-2,0h0a11.19,11.19,0,0,1-2-.37.25.25,0,1,1,.14-.48,12.49,12.49,0,0,0,1.92.36.26.26,0,0,1,.22.27.25.25,0,0,1-.28.21Zm5.84-1a.27.27,0,0,1-.23-.14.26.26,0,0,1,.12-.34,9,9,0,0,0,1.66-1,.25.25,0,0,1,.3.4,9.68,9.68,0,0,1-1.74,1.07.26.26,0,0,1-.11-.07ZM93,133h-.11a10.77,10.77,0,0,1-1.73-1.1.24.24,0,0,1,0-.35.24.24,0,0,1,.34,0h0a10.39,10.39,0,0,0,1.64,1,.24.24,0,0,1,0,.35A.22.22,0,0,1,93,133Zm12.81-2.35a.23.23,0,0,1-.16-.06.24.24,0,0,1,0-.34h0a10.43,10.43,0,0,0,.75-1,.25.25,0,0,1,.34-.08.24.24,0,0,1,.08.34h0a9.12,9.12,0,0,1-.79,1.06.27.27,0,0,1-.26.05Z" transform="translate(-2.5 0.01)" style="fill:#fcefb2"/><path d="M101,110.88h0a.26.26,0,0,1-.21-.29,4.5,4.5,0,0,1,.79-1.93.26.26,0,0,1,.35-.07.25.25,0,0,1,.06.35h0a3.92,3.92,0,0,0-.7,1.73A.26.26,0,0,1,101,110.88Zm2.14-3.25a.26.26,0,0,1-.2-.1.24.24,0,0,1,0-.35,12.87,12.87,0,0,1,1.72-1.1.23.23,0,0,1,.32.1h0a.25.25,0,0,1-.09.33h0a13.17,13.17,0,0,0-1.65,1,.2.2,0,0,1-.11.11Zm27.47-1.87a.24.24,0,0,1-.22-.15,3.31,3.31,0,0,0-.73-1,.25.25,0,0,1,0-.36.24.24,0,0,1,.35,0,4.22,4.22,0,0,1,.83,1.14.25.25,0,0,1-.12.33.17.17,0,0,1-.12,0Zm-24-.05a.28.28,0,0,1-.24-.15.26.26,0,0,1,.14-.33c.59-.23,1.22-.47,1.9-.69a.26.26,0,0,1,.32.16.26.26,0,0,1-.17.32c-.66.22-1.29.44-1.86.68Zm3.79-1.25a.25.25,0,0,1-.06-.49c.61-.17,1.26-.33,2-.49a.26.26,0,0,1,.29.19.24.24,0,0,1-.17.3h0c-.68.16-1.33.32-1.93.48Zm17.73-.83a.17.17,0,0,1-.1,0,9.27,9.27,0,0,0-1.86-.56.26.26,0,0,1-.2-.3.25.25,0,0,1,.3-.19,10.91,10.91,0,0,1,2,.59.26.26,0,0,1,.14.33.25.25,0,0,1-.26.13Zm-13.83-.07a.25.25,0,0,1-.25-.2.26.26,0,0,1,.19-.3h0c.67-.13,1.33-.24,2-.35a.25.25,0,1,1,.08.5c-.65.1-1.3.21-2,.34Zm4-.62a.24.24,0,0,1-.25-.22.25.25,0,0,1,.22-.28h0c.69-.08,1.36-.14,2-.18a.26.26,0,0,1,.27.24.25.25,0,0,1-.23.26c-.67,0-1.33.1-2,.18Zm6-.16h0c-.62-.06-1.29-.08-2-.08a.25.25,0,0,1,0-.5,15.91,15.91,0,0,1,2,.08.25.25,0,0,1,.23.27h0a.25.25,0,0,1-.27.23Z" transform="translate(-2.5 0.01)" style="fill:#fcefb2"/><path d="M105.5,118.89a.22.22,0,0,1-.2-.1.24.24,0,0,1,0-.34h0a15.82,15.82,0,0,1,1.68-1.12.24.24,0,0,1,.33.07h0a.27.27,0,0,1-.08.35,15.05,15.05,0,0,0-1.64,1.09Zm3.43-2a.25.25,0,0,1-.25-.25.25.25,0,0,1,.15-.23c.6-.27,1.23-.52,1.88-.75a.24.24,0,0,1,.31.14h0a.24.24,0,0,1-.13.31h0c-.63.22-1.25.47-1.83.74Zm19.95-1.14h-.06l-.33-.09a.24.24,0,0,1-.18-.29h0a.24.24,0,0,1,.29-.18h0l.33.08a.25.25,0,0,1,.17.31.25.25,0,0,1-.23.18Zm-16.18-.18a.26.26,0,0,1-.24-.19.25.25,0,0,1,.18-.3c.64-.17,1.3-.31,2-.43a.24.24,0,0,1,.29.18v0a.24.24,0,0,1-.18.29h0c-.66.12-1.31.26-1.94.42Zm13.89-.32h0c-.64-.11-1.3-.22-2-.3a.25.25,0,1,1,.06-.5c.67.09,1.34.19,2,.31a.25.25,0,0,1,0,.5Zm-10-.39a.24.24,0,0,1-.24-.23.24.24,0,0,1,.21-.27h0c.65-.07,1.33-.13,2-.16a.25.25,0,0,1,0,.5,16.84,16.84,0,0,0-2,.16Zm6-.11h0c-.66,0-1.33-.08-2-.08a.26.26,0,0,1-.25-.26.26.26,0,0,1,.25-.24h0a16.56,16.56,0,0,1,2,.08.25.25,0,0,1,0,.5Z" transform="translate(-2.5 0.01)" style="fill:#fcefb2"/><path d="M129.49,112.65a3.58,3.58,0,0,1-1.17-.18.25.25,0,1,1,.16-.48h0a3.52,3.52,0,0,0,1.85.08.26.26,0,0,1,.29.21.26.26,0,0,1-.2.29A5.84,5.84,0,0,1,129.49,112.65Zm2.8-.66a.28.28,0,0,1-.24-.15.26.26,0,0,1,.13-.33h0c.53-.21,1.12-.48,1.81-.82a.24.24,0,0,1,.32.1v0a.25.25,0,0,1-.11.33c-.7.35-1.3.62-1.84.84Zm3.59-1.75a.25.25,0,0,1-.22-.13.26.26,0,0,1,.1-.34q.59-.3,1.17-.63l.59-.32a.25.25,0,1,1,.24.44l-.59.32-1.17.63A.27.27,0,0,1,135.88,110.24Zm3.52-1.9a.25.25,0,0,1-.22-.13.25.25,0,0,1,.11-.34h0c.53-.27,1.13-.58,1.79-.9a.26.26,0,0,1,.34.11h0a.24.24,0,0,1-.1.32h0c-.66.32-1.26.62-1.78.89Zm3.6-1.75a.24.24,0,0,1-.22-.14.26.26,0,0,1,.11-.34h0c.58-.27,1.2-.54,1.83-.82a.25.25,0,0,1,.33.13h0a.26.26,0,0,1-.13.33c-.63.27-1.24.55-1.82.82Zm3.67-1.62a.25.25,0,0,1-.23-.15.25.25,0,0,1,.13-.33h0c.61-.26,1.23-.51,1.86-.76a.25.25,0,0,1,.32.13.26.26,0,0,1-.13.33h0l-1.85.76a.16.16,0,0,1-.09,0Zm3.71-1.49a.25.25,0,0,1-.23-.16.24.24,0,0,1,.14-.32l1.89-.69a.24.24,0,0,1,.32.14.26.26,0,0,1-.14.33h0c-.62.21-1.25.44-1.88.68Zm3.78-1.32a.26.26,0,0,1-.24-.18.25.25,0,0,1,.17-.31c.69-.22,1.34-.41,1.93-.56a.24.24,0,0,1,.32.14.25.25,0,0,1-.14.33h0c-.59.16-1.23.34-1.91.56Zm3.88-1a.25.25,0,0,1-.24-.21.25.25,0,0,1,.21-.28,12.09,12.09,0,0,1,1.21-.12h0a.26.26,0,0,1,.25.24.26.26,0,0,1-.25.26,7.34,7.34,0,0,0-1.15.11Z" transform="translate(-2.5 0.01)" style="fill:#fcefb2"/><path d="M137.21,122.33a.23.23,0,0,1-.24-.22h0a.24.24,0,0,1,.21-.27h0a11.43,11.43,0,0,0,1.93-.32.27.27,0,0,1,.31.18.25.25,0,0,1-.18.3,12.48,12.48,0,0,1-2,.34Zm-2,0h0a9.19,9.19,0,0,1-2-.45.25.25,0,0,1-.15-.32.23.23,0,0,1,.28-.16h0a9.51,9.51,0,0,0,1.9.43.23.23,0,1,1-.05.45Zm5.86-.92a.24.24,0,0,1-.24-.26.24.24,0,0,1,.15-.22c.36-.15.73-.32,1.1-.5.2-.11.44-.22.7-.34a.24.24,0,0,1,.34.08.25.25,0,0,1-.08.35l0,0-.69.34c-.38.19-.76.36-1.13.51l-.09,0Zm3.64-1.68a.25.25,0,0,1-.23-.15.23.23,0,0,1,.1-.31h0c.56-.25,1.18-.52,1.84-.79a.24.24,0,0,1,.32.11v0a.26.26,0,0,1-.13.33l-1.84.78-.09,0Zm3.69-1.54a.25.25,0,0,1-.23-.16.26.26,0,0,1,.14-.33l1.86-.73a.26.26,0,0,1,.33.13h0a.25.25,0,0,1-.15.32l-1.86.74Zm3.73-1.45a.24.24,0,0,1-.23-.17.25.25,0,0,1,.15-.32l1.88-.69a.26.26,0,0,1,.32.15.24.24,0,0,1-.13.31h0l-1.88.69Zm3.77-1.36a.24.24,0,0,1-.23-.17.25.25,0,0,1,.15-.32l1.9-.64a.25.25,0,0,1,.16.48l-1.9.64Zm3.81-1.25a.25.25,0,0,1-.09-.49h0l1.92-.57a.23.23,0,0,1,.3.15v0a.23.23,0,0,1-.15.3h0l-1.91.57Zm3.84-1.11a.25.25,0,0,1-.24-.18.27.27,0,0,1,.18-.31c.67-.17,1.32-.34,1.95-.48a.25.25,0,0,1,.11.49c-.63.14-1.27.3-1.93.47Zm3.91-.88a.26.26,0,0,1-.25-.21.26.26,0,0,1,.2-.29l1.29-.21a.25.25,0,0,1,.07.5c-.41.06-.83.12-1.27.2Z" transform="translate(-2.5 0.01)" style="fill:#fcefb2"/><path d="M87,117.13a.25.25,0,0,1-.24-.18,17.37,17.37,0,0,1-.54-2,.25.25,0,0,1,.2-.3.25.25,0,0,1,.29.2c.13.61.3,1.2.52,1.9a.25.25,0,0,1-.15.31h0Zm-.74-3.92h0A.24.24,0,0,1,86,113a8.39,8.39,0,0,1,.28-2,.25.25,0,0,1,.3-.19h0a.24.24,0,0,1,.18.3h0A8.3,8.3,0,0,0,86.5,113a.25.25,0,0,1-.29.17Zm.94-3.85a.17.17,0,0,1-.1,0,.24.24,0,0,1-.14-.31v0a17.4,17.4,0,0,1,1-1.79.27.27,0,0,1,.34-.09.26.26,0,0,1,.09.35,16,16,0,0,0-.92,1.74.26.26,0,0,1-.33.12Zm2-3.44a.2.2,0,0,1-.15,0,.23.23,0,0,1-.06-.33v0c.37-.51.79-1,1.24-1.58a.24.24,0,0,1,.34,0h0a.24.24,0,0,1,0,.35c-.45.53-.86,1.06-1.23,1.56a.25.25,0,0,1-.17,0Zm2.56-3.07a.22.22,0,0,1-.17-.07.24.24,0,0,1,0-.35c.45-.48.91-1,1.4-1.45a.25.25,0,0,1,.35,0,.24.24,0,0,1,0,.3c-.48.49-.94,1-1.38,1.44a.24.24,0,0,1-.21.08ZM94.58,100a.27.27,0,0,1-.19-.08.25.25,0,0,1,0-.35h0c.48-.45,1-.9,1.48-1.34a.25.25,0,0,1,.35,0h0a.24.24,0,0,1,0,.34h0c-.5.45-1,.89-1.47,1.34A.31.31,0,0,1,94.58,100Zm3-2.65a.25.25,0,0,1-.19-.09.24.24,0,0,1,0-.34h0c.51-.42,1-.85,1.56-1.26a.24.24,0,0,1,.35,0,.24.24,0,0,1,0,.34h0c-.53.41-1,.83-1.55,1.26a.25.25,0,0,1-.17.11Zm3.15-2.47a.25.25,0,0,1-.21-.1.25.25,0,0,1,.06-.35h0c.54-.4,1.08-.79,1.63-1.17a.23.23,0,0,1,.32,0l0,0a.25.25,0,0,1-.06.35h0c-.54.38-1.08.76-1.62,1.16a.19.19,0,0,1-.14.07ZM104,92.61a.26.26,0,0,1-.21-.11.26.26,0,0,1,.07-.35c.57-.37,1.14-.72,1.71-1.06a.27.27,0,0,1,.34.08.26.26,0,0,1-.09.35c-.56.33-1.12.68-1.69,1A.2.2,0,0,1,104,92.61Zm3.43-2.06a.24.24,0,0,1-.12-.46h0l1.75-1a.24.24,0,0,1,.33.08v0a.25.25,0,0,1-.09.33h0l-1.75,1a.2.2,0,0,1-.11,0ZM111,88.64a.25.25,0,0,1-.22-.13.24.24,0,0,1,.08-.33h0c.58-.31,1.18-.61,1.79-.92a.24.24,0,0,1,.32.1v0a.24.24,0,0,1-.08.32h0l-1.77.91A.27.27,0,0,1,111,88.64Zm3.58-1.78a.25.25,0,0,1-.23-.27.23.23,0,0,1,.13-.2c.59-.28,1.21-.55,1.83-.82a.24.24,0,0,1,.32.11v0a.26.26,0,0,1-.13.33c-.62.26-1.23.53-1.82.81Zm3.68-1.56a.25.25,0,0,1-.23-.16.26.26,0,0,1,.13-.33h0l1.89-.69a.25.25,0,0,1,.16.48c-.64.22-1.26.44-1.87.68ZM122,84a.25.25,0,0,1-.07-.49c.63-.19,1.27-.37,1.93-.54a.25.25,0,0,1,.31.17.27.27,0,0,1-.18.31c-.65.17-1.29.35-1.91.54Zm3.87-1a.24.24,0,0,1-.24-.2.25.25,0,0,1,.19-.3h0l2-.4a.27.27,0,0,1,.3.21.26.26,0,0,1-.21.29c-.67.12-1.33.25-2,.39Zm3.93-.72a.26.26,0,0,1-.25-.21.27.27,0,0,1,.22-.29c.65-.09,1.31-.17,2-.24a.25.25,0,0,1,.31.17.25.25,0,0,1-.17.31h-.09c-.67.07-1.33.16-2,.25Zm4-.42a.25.25,0,0,1,0-.5c.66,0,1.33-.08,2-.1a.24.24,0,0,1,.25.23h0a.24.24,0,0,1-.22.26h0c-.67,0-1.33.06-2,.1Zm6-.1h-2a.25.25,0,0,1,0-.5h2a.25.25,0,0,1,0,.5Z" transform="translate(-2.5 0.01)" style="fill:#fcefb2"/><path d="M116.37,100.4a.26.26,0,0,1-.19-.1.24.24,0,0,1,0-.34h0l.08-.07c.4-.31.9-.71,1.5-1.16a.25.25,0,0,1,.3.4c-.6.45-1.09.84-1.49,1.15l-.08.07A.27.27,0,0,1,116.37,100.4Zm3.21-2.4a.26.26,0,0,1-.21-.11.23.23,0,0,1,.06-.33h0c.55-.39,1.12-.76,1.68-1.1a.26.26,0,0,1,.35.08.25.25,0,0,1-.09.34c-.55.35-1.11.71-1.66,1.09A.23.23,0,0,1,119.58,98Zm3.4-2.1a.26.26,0,0,1-.22-.13.25.25,0,0,1,.1-.34h0c.58-.32,1.19-.63,1.78-.93a.26.26,0,0,1,.34.11h0a.24.24,0,0,1-.1.32h0c-.59.29-1.18.6-1.76.92a.19.19,0,0,1-.1,0Zm3.59-1.76a.25.25,0,0,1-.23-.15.26.26,0,0,1,.13-.33c.62-.26,1.25-.51,1.87-.74a.25.25,0,0,1,.18.47c-.62.22-1.24.47-1.85.73A.18.18,0,0,1,126.57,94.14Zm3.75-1.38a.26.26,0,0,1-.24-.18.25.25,0,0,1,.17-.31l1.21-.35.73-.2a.25.25,0,0,1,.3.18.27.27,0,0,1-.18.31l-.72.19c-.41.11-.8.23-1.19.35Zm3.87-1a.25.25,0,0,1-.24-.2.26.26,0,0,1,.19-.3c.66-.13,1.33-.26,2-.36a.25.25,0,0,1,.14.48h-.06c-.64.1-1.3.23-1.95.36Zm3.95-.65a.25.25,0,0,1,0-.5c.67-.07,1.34-.14,2-.19a.26.26,0,0,1,.27.24.25.25,0,0,1-.23.26,17.53,17.53,0,0,0-2,.19Zm6-.27h-2a.25.25,0,0,1,0-.5h2a.24.24,0,0,1,.24.24v0a.26.26,0,0,1-.25.24Z" transform="translate(-2.5 0.01)" style="fill:#fcefb2"/><path d="M209.76,0a62.69,62.69,0,0,0-30.5,117.89.86.86,0,0,0,1.16-.36.2.2,0,0,0,0-.08l5.69-14A46.77,46.77,0,0,1,207.09,16h2.67Z" transform="translate(-2.5 0.01)" style="fill:#e9764f"/><path d="M360.37,104.53v9a18.58,18.58,0,0,0,5.74-1.31l.18-6.83a5.29,5.29,0,0,1-4.69.87A1.92,1.92,0,0,1,360.37,104.53Z" transform="translate(-2.5 0.01)" style="fill:#e9764f"/><path d="M251.29,97.88c9.66-1.2,31,9.72,31.91,10.2.47.24.94.48,1.42.71,3.12,1.5,6.24,2.58,7.09.94-.14.29-1.87,4-3.8,7.7-.59,1.13-1.19,2.26-1.78,3.28-2.58,4.49-7.52,2.63-12,.58-7.57-3.45-21.93-9-32.74-8.72C241.37,112.57,249.05,100.9,251.29,97.88Z" transform="translate(-2.5 0.01)" style="fill:#f2b167"/><path d="M314.12,113.84l-1,6V120l-1.73,10a10,10,0,0,0,7.21,5.17,9.36,9.36,0,0,0,8-2.29l4.82-12.21,1.7-4.31c-1.77,3.06-5.58,5.3-11.21,4.55a9.82,9.82,0,0,1-5.46-2.27A6.81,6.81,0,0,1,314.12,113.84Z" transform="translate(-2.5 0.01)" style="fill:#f2b167"/><path d="M287,104.4c-1.31,3.37,4.73,5.31,4.73,5.31h0c-.14.29-1.87,4-3.8,7.7A32.92,32.92,0,0,1,313.07,120v-.13c.12-.82.76-5.23,1-6h0c.25-.72,3.73-1.14,4.4-4.6s-9.09-6.6-13.88-7.56a42.79,42.79,0,0,0-4.52-.66c-4.86-.47-10.73-.25-12.71,2.6Z" transform="translate(-2.5 0.01)" style="fill:#e9764f"/><path d="M314.12,113.83h0a6.87,6.87,0,0,0,2.29,4.8l2.11-9.41C317.85,112.69,314.37,113.11,314.12,113.83Z" transform="translate(-2.5 0.01)" style="fill:#fcefb2"/><path d="M284.63,108.77h0c3.12,1.5,6.24,2.58,7.09.94h0s-6-1.94-4.73-5.31Z" transform="translate(-2.5 0.01)" style="fill:#fcefb2"/><path d="M300.14,100.82c-14.55-10.52-28.05-8.51-28.05-8.51.28,5.85,15.32,11.3,15.32,11.3,2-2.85,7.85-3.07,12.71-2.6Z" transform="translate(-2.5 0.01)" style="fill:#fcefb2"/><path d="M277.24,80.71l-5.15,11.6s13.5-2,28.05,8.51V101a42.79,42.79,0,0,1,4.52.66c4.79,1,14.55,4.12,13.88,7.56l-2.11,9.41a9.82,9.82,0,0,0,5.46,2.27c5.64.75,9.45-1.49,11.22-4.55h0L334,114a7.83,7.83,0,0,0,.21-1.52c.09-2.14-.94-5-3.28-8.19-2.78-3.84-7.42-8.25-14.24-12.78-12.17-8.08-23.89-12.19-37.7-12A2,2,0,0,0,277.24,80.71Z" transform="translate(-2.5 0.01)" style="fill:#d14f34"/><path d="M333.08,116.36l-1.7,4.31c9.89,6.85,24.86,7.32,28.59,6.85s9.19-3.55,10.24-8.17a98.71,98.71,0,0,0,1.44-12.84c-.36,2.17-2.23,4.35-5.54,5.72a18.58,18.58,0,0,1-5.74,1.31c-.62.06-1.26.09-1.93.1-8.14.09-20.64-4.22-27.5-9.34,2.34,3.23,3.37,6,3.28,8.19A7.64,7.64,0,0,1,334,114a8.52,8.52,0,0,1-.92,2.33Z" transform="translate(-2.5 0.01)" style="fill:#f2b167"/><path d="M360.37,104.53a1.92,1.92,0,0,0,1.23,1.74,5.29,5.29,0,0,0,4.69-.87l-.18,6.83c3.31-1.37,5.18-3.55,5.54-5.72.57-3.49-4.88-7.33-8.43-5.69C361.1,101.8,360.28,103.32,360.37,104.53Z" transform="translate(-2.5 0.01)" style="fill:#db582e"/><path d="M232.18,103.49c-1.87-4.41,1.76-7.38,10.55-8.07C242.73,95.42,234.08,108,232.18,103.49Z" transform="translate(-2.5 0.01)" style="fill:#fcefb2"/><path d="M369.72,112.59a.25.25,0,0,1-.19-.09.24.24,0,0,1,0-.34h0a4.25,4.25,0,0,0,.67-.67.24.24,0,0,1,.35,0,.24.24,0,0,1,0,.34h0a6.38,6.38,0,0,1-.74.73Z" transform="translate(-2.5 0.01)" style="fill:#fcefb2"/><path d="M359,116.19a.24.24,0,0,1-.25-.23h0a.25.25,0,0,1,.24-.26h0a16.83,16.83,0,0,0,1.9-.13.24.24,0,0,1,.27.21h0a.25.25,0,0,1-.22.28h0c-.62.07-1.28.11-1.93.13Zm-1.92,0h0c-.63,0-1.28-.07-1.94-.13a.26.26,0,0,1-.22-.28.22.22,0,0,1,.24-.22h0c.65.06,1.29.11,1.91.13a.27.27,0,0,1,.24.26.25.25,0,0,1-.27.23h0Zm-3.83-.38h0c-.62-.1-1.26-.21-1.9-.35a.25.25,0,0,1-.19-.3h0a.23.23,0,0,1,.28-.19h0c.64.14,1.27.25,1.88.35a.25.25,0,0,1,.21.28h0a.26.26,0,0,1-.3.19Zm9.57,0a.25.25,0,0,1-.25-.2.24.24,0,0,1,.18-.29h0a18.92,18.92,0,0,0,1.83-.48.25.25,0,0,1,.31.17.25.25,0,0,1-.15.31h0c-.6.19-1.24.35-1.89.49ZM349.47,115h-.05l-1.88-.45a.24.24,0,0,1-.18-.3.25.25,0,0,1,.3-.19l1.87.45a.25.25,0,0,1,.19.3h0A.26.26,0,0,1,349.47,115Zm17-.42a.25.25,0,0,1-.11-.48,14.9,14.9,0,0,0,1.68-.88.25.25,0,0,1,.34.08.25.25,0,0,1-.08.35h0a16.79,16.79,0,0,1-1.73.91Zm-20.73-.51h-.06c-.66-.17-1.27-.35-1.86-.52a.25.25,0,1,1,.14-.48c.59.17,1.2.35,1.85.52a.25.25,0,0,1,.17.31h0a.25.25,0,0,1-.24.2Zm-3.68-1.1H342c-.66-.22-1.26-.43-1.82-.64a.25.25,0,0,1,.17-.47c.55.21,1.15.42,1.81.64a.26.26,0,0,1-.1.5Zm-3.6-1.34h-.1c-.64-.27-1.23-.55-1.76-.81a.25.25,0,1,1,.23-.45c.52.26,1.1.53,1.73.8a.26.26,0,0,1-.1.49Z" transform="translate(-2.5 0.01)" style="fill:#fcefb2"/><path d="M335,109.89a.29.29,0,0,1-.13,0,5.18,5.18,0,0,1-.84-.64.26.26,0,0,1,0-.35.25.25,0,0,1,.35,0h0a5.29,5.29,0,0,0,.75.57.25.25,0,0,1,.07.35h0A.27.27,0,0,1,335,109.89Z" transform="translate(-2.5 0.01)" style="fill:#fcefb2"/><path d="M356.38,126h-.86a.26.26,0,0,1-.25-.26.26.26,0,0,1,.25-.24h2a.26.26,0,0,1,.25.24.24.24,0,0,1-.22.26h-1.17Zm-2.86-.11h0c-.66,0-1.34-.11-2-.19a.25.25,0,0,1-.22-.28h0a.24.24,0,0,1,.26-.22h0c.66.08,1.33.14,2,.19a.25.25,0,0,1,0,.5Zm6-.08a.26.26,0,0,1-.25-.22.25.25,0,0,1,.22-.28h0c.66-.09,1.32-.2,1.95-.34a.25.25,0,0,1,.3.19.26.26,0,0,1-.2.3h0c-.64.14-1.31.26-2,.35Zm-10-.39h0l-2-.36a.26.26,0,0,1-.19-.29.24.24,0,0,1,.27-.2h0c.65.13,1.3.25,2,.36a.25.25,0,0,1,0,.49Zm13.85-.5a.25.25,0,0,1-.23-.27.24.24,0,0,1,.15-.21,15.14,15.14,0,0,0,1.82-.75.25.25,0,1,1,.23.45h0a14.55,14.55,0,0,1-1.88.77Zm-17.77-.28h-.06c-.66-.15-1.31-.32-2-.49a.25.25,0,0,1-.17-.31h0a.27.27,0,0,1,.31-.18c.63.18,1.27.34,1.92.5a.25.25,0,0,1,.19.3h0a.26.26,0,0,1-.21.16Zm-3.86-1h-.08l-1.91-.62a.25.25,0,0,1-.15-.32.24.24,0,0,1,.3-.16h0c.61.21,1.25.41,1.89.61a.25.25,0,0,1,.17.31h0a.27.27,0,0,1-.21.15Zm25.21-.43a.23.23,0,0,1-.2-.11.25.25,0,0,1,.05-.34h0a7.67,7.67,0,0,0,1.48-1.25.26.26,0,0,1,.35,0,.25.25,0,0,1,0,.35h0a9.06,9.06,0,0,1-1.57,1.33H367Zm-29-.86h-.09l-1.87-.73a.24.24,0,0,1-.13-.33h0a.24.24,0,0,1,.32-.14c.6.25,1.22.49,1.86.73a.23.23,0,0,1,0,.45Zm-3.7-1.53a.17.17,0,0,1-.1,0l-1.2-.55a.24.24,0,0,1-.12-.33h0a.26.26,0,0,1,.33-.12l1.19.56a.25.25,0,0,1,.19.28.25.25,0,0,1-.29.19h0Z" transform="translate(-2.5 0.01)" style="fill:#fcefb2"/><path d="M363.67,107.89a.25.25,0,0,1-.24-.21.24.24,0,0,1,.18-.29h0a5.05,5.05,0,0,0,1.77-.66.26.26,0,0,1,.35.08.23.23,0,0,1-.06.33h0a5.48,5.48,0,0,1-2,.73Zm-2-.08h-.06a4.83,4.83,0,0,1-1.4-.65.25.25,0,0,1,.29-.41,4.13,4.13,0,0,0,1.24.58.25.25,0,0,1,.17.31.25.25,0,0,1-.24.18Z" transform="translate(-2.5 0.01)" style="fill:#fcefb2"/><path d="M323.52,123.85h0a8.92,8.92,0,0,1-1.37-.07.25.25,0,0,1-.23-.27.26.26,0,0,1,.28-.23h0c.44,0,.89.06,1.34.07h.62a.25.25,0,0,1,.26.24h0a.25.25,0,0,1-.24.26h-.66Zm2.62-.25a.26.26,0,0,1-.25-.21.25.25,0,0,1,.2-.29,12.61,12.61,0,0,0,1.89-.52.25.25,0,0,1,.32.15.24.24,0,0,1-.13.31h0a11.59,11.59,0,0,1-2,.54Zm-5.95-.17h-.07a11,11,0,0,1-1.92-.7.25.25,0,0,1,.21-.45,10.94,10.94,0,0,0,1.84.67.25.25,0,0,1,.18.3.26.26,0,0,1-.24.18Zm9.67-1.22a.26.26,0,0,1-.21-.12.27.27,0,0,1,.08-.35,5.93,5.93,0,0,0,1.46-1.23.24.24,0,0,1,.34,0h0a.24.24,0,0,1,0,.35A6.54,6.54,0,0,1,330,122.2Zm-13.26-.5a.38.38,0,0,1-.15,0,9,9,0,0,1-1.47-1.43.25.25,0,1,1,.39-.32h0a8.08,8.08,0,0,0,1.39,1.35.24.24,0,0,1,0,.34h0a.24.24,0,0,1-.16,0Zm-2.49-3.08a.24.24,0,0,1-.23-.14c-.12-.25-.23-.51-.33-.77a.23.23,0,0,1,.13-.31h0a.26.26,0,0,1,.33.13h0c.09.26.2.5.31.74a.25.25,0,0,1-.11.33A.2.2,0,0,1,314.11,118.63Z" transform="translate(-2.5 0.01)" style="fill:#fcefb2"/><path d="M319.55,134.08h0a12.31,12.31,0,0,1-2-.35.24.24,0,0,1-.18-.3h0a.27.27,0,0,1,.31-.18,11.36,11.36,0,0,0,1.92.34.25.25,0,0,1,0,.5Zm2,0a.25.25,0,0,1-.25-.23.26.26,0,0,1,.22-.27,12.49,12.49,0,0,0,1.92-.36.25.25,0,0,1,.14.48h0a11.19,11.19,0,0,1-2,.37Zm-5.84-1h-.11a10.69,10.69,0,0,1-1.74-1.07.25.25,0,0,1,.3-.4,8.72,8.72,0,0,0,1.66,1,.26.26,0,0,1,.12.34.27.27,0,0,1-.23.05Zm9.66-.07a.24.24,0,0,1-.24-.26.23.23,0,0,1,.13-.21,10.39,10.39,0,0,0,1.64-1,.24.24,0,0,1,.34,0h0a.24.24,0,0,1,0,.35,10.77,10.77,0,0,1-1.73,1.1.2.2,0,0,1-.15.06Zm-12.81-2.35a.25.25,0,0,1-.19-.09,10.05,10.05,0,0,1-.79-1.06.26.26,0,0,1,.08-.35.25.25,0,0,1,.34.08,10.43,10.43,0,0,0,.75,1,.24.24,0,0,1,0,.34h0a.22.22,0,0,1-.19,0Z" transform="translate(-2.5 0.01)" style="fill:#fcefb2"/><path d="M317.34,110.88a.26.26,0,0,1-.25-.21,3.92,3.92,0,0,0-.7-1.73.25.25,0,0,1,.06-.35h0a.26.26,0,0,1,.35.07,4.5,4.5,0,0,1,.79,1.93.26.26,0,0,1-.21.29Zm-2.14-3.25a.2.2,0,0,1-.15-.06,13.17,13.17,0,0,0-1.65-1,.24.24,0,0,1-.1-.32h0a.25.25,0,0,1,.32-.12h0a12.87,12.87,0,0,1,1.72,1.1.24.24,0,0,1,0,.35.27.27,0,0,1-.15,0Zm-27.47-1.87h-.11a.25.25,0,0,1-.12-.33,4.07,4.07,0,0,1,.83-1.14.24.24,0,0,1,.35,0,.25.25,0,0,1,0,.35h0a3.31,3.31,0,0,0-.73,1,.27.27,0,0,1-.22.11Zm24-.05h-.09c-.57-.24-1.2-.46-1.86-.68a.25.25,0,0,1-.16-.31h0a.25.25,0,0,1,.31-.16c.68.22,1.32.46,1.9.69a.24.24,0,0,1,.13.33.25.25,0,0,1-.23.15Zm-3.79-1.25h-.07c-.6-.16-1.25-.32-1.93-.48a.25.25,0,1,1,.11-.49l2,.49a.25.25,0,0,1,.17.31.25.25,0,0,1-.23.18Zm-17.73-.83a.25.25,0,0,1-.23-.15.26.26,0,0,1,.14-.33,10.91,10.91,0,0,1,2-.59.24.24,0,0,1,.29.19.25.25,0,0,1-.19.3h0a9.27,9.27,0,0,0-1.86.56.17.17,0,0,1-.18,0Zm13.83-.07h0c-.67-.13-1.32-.24-2-.34a.25.25,0,0,1-.21-.28h0a.25.25,0,0,1,.28-.21l2,.35a.24.24,0,0,1,.2.29h0a.25.25,0,0,1-.3.19h0Zm-4-.62h0c-.67-.08-1.34-.14-2-.18a.25.25,0,0,1-.24-.26h0a.27.27,0,0,1,.27-.24,17.88,17.88,0,0,1,2,.18.25.25,0,0,1,.22.28h0a.24.24,0,0,1-.26.22h0Zm-6-.16a.25.25,0,0,1,0-.5c.63-.06,1.31-.08,2-.08a.25.25,0,0,1,0,.5A16.31,16.31,0,0,0,294.09,102.78Z" transform="translate(-2.5 0.01)" style="fill:#fcefb2"/><path d="M312.83,118.89a.38.38,0,0,1-.15,0,17.79,17.79,0,0,0-1.63-1.09.26.26,0,0,1-.09-.35.25.25,0,0,1,.33-.09h0a16.91,16.91,0,0,1,1.68,1.12.24.24,0,0,1,0,.34h0A.27.27,0,0,1,312.83,118.89Zm-3.43-2h-.11c-.58-.27-1.2-.52-1.83-.74a.23.23,0,0,1-.16-.28v0a.25.25,0,0,1,.31-.16c.65.23,1.28.48,1.88.75a.24.24,0,0,1,.13.33.25.25,0,0,1-.23.15Zm-19.95-1.14a.25.25,0,0,1-.24-.18.27.27,0,0,1,.18-.31l.33-.08a.24.24,0,0,1,.3.17h0a.24.24,0,0,1-.17.3h0l-.33.09Zm16.18-.18h-.06c-.63-.16-1.28-.3-1.94-.42a.24.24,0,0,1-.2-.27v0a.24.24,0,0,1,.27-.2h0c.67.12,1.33.26,2,.43a.24.24,0,0,1,.18.29h0a.28.28,0,0,1-.27.15Zm-13.89-.32a.26.26,0,0,1-.25-.21.26.26,0,0,1,.2-.29c.65-.12,1.32-.22,2-.31a.25.25,0,0,1,.28.2v0a.25.25,0,0,1-.22.28h0c-.66.08-1.32.19-2,.3Zm9.95-.39h0c-.65-.08-1.32-.13-2-.16a.25.25,0,0,1-.24-.26h0a.25.25,0,0,1,.26-.24h0a18.61,18.61,0,0,1,2,.16.24.24,0,0,1,.22.26h0a.25.25,0,0,1-.24.2Zm-6-.11a.25.25,0,0,1,0-.5c.66,0,1.34-.08,2-.08a.24.24,0,0,1,.25.23h0a.26.26,0,0,1-.25.26A17,17,0,0,0,295.69,114.75Z" transform="translate(-2.5 0.01)" style="fill:#fcefb2"/><path d="M288.85,112.65a6,6,0,0,1-.94-.08.26.26,0,0,1-.2-.29.25.25,0,0,1,.28-.21h0a3.52,3.52,0,0,0,1.85-.08.25.25,0,1,1,.16.48h0A3.8,3.8,0,0,1,288.85,112.65ZM286,112h0c-.54-.22-1.15-.49-1.84-.84a.25.25,0,0,1-.11-.33.24.24,0,0,1,.31-.13h0c.68.34,1.27.61,1.81.82a.26.26,0,0,1,.14.33A.28.28,0,0,1,286,112Zm-3.59-1.75a.24.24,0,0,1-.12,0l-1.37-.74-.39-.21a.26.26,0,0,1-.1-.34.25.25,0,0,1,.34-.1h0l.38.21,1.38.74a.26.26,0,0,1,.1.34.24.24,0,0,1-.18.09Zm-3.52-1.9a.24.24,0,0,1-.12,0c-.52-.27-1.12-.57-1.78-.89a.24.24,0,0,1-.13-.31v0a.24.24,0,0,1,.33-.12h0c.66.32,1.26.63,1.79.9a.26.26,0,0,1,.11.34h0a.26.26,0,0,1-.18.09Zm-3.61-1.75h-.1c-.58-.27-1.19-.55-1.82-.82a.26.26,0,0,1-.13-.33.24.24,0,0,1,.33-.13h0l1.83.82a.24.24,0,0,1,.12.33h0a.21.21,0,0,1-.19.11Zm-3.62-1.6a.17.17,0,0,1-.1,0l-1.84-.76a.24.24,0,0,1-.14-.32.25.25,0,0,1,.31-.15h0c.63.25,1.25.5,1.86.76a.24.24,0,0,1,.13.33h0A.22.22,0,0,1,271.66,105ZM268,103.48h-.09c-.64-.24-1.26-.47-1.88-.68a.26.26,0,0,1-.15-.32.25.25,0,0,1,.32-.15q.93.32,1.89.69a.24.24,0,0,1-.09.46Zm-3.78-1.32h-.08c-.68-.22-1.32-.4-1.91-.56a.25.25,0,1,1,.08-.49h.05c.59.15,1.24.34,1.93.56a.25.25,0,0,1,.17.31h0a.26.26,0,0,1-.29.17Zm-3.89-1h0a7.34,7.34,0,0,0-1.15-.11.26.26,0,0,1-.25-.26.27.27,0,0,1,.26-.24,12.09,12.09,0,0,1,1.21.12.25.25,0,0,1,.21.28.25.25,0,0,1-.23.25l-.1,0Z" transform="translate(-2.5 0.01)" style="fill:#fcefb2"/><path d="M281.12,122.33h0a12.48,12.48,0,0,1-2-.34.25.25,0,0,1-.18-.3.27.27,0,0,1,.31-.18,11.43,11.43,0,0,0,1.93.32.25.25,0,0,1,0,.5Zm2,0a.26.26,0,0,1-.25-.22.26.26,0,0,1,.22-.27,9.51,9.51,0,0,0,1.9-.43.23.23,0,0,1,.3.12v0a.25.25,0,0,1-.15.32,9.19,9.19,0,0,1-2,.45Zm-5.86-.92a.17.17,0,0,1-.1,0c-.37-.15-.76-.32-1.13-.51l-.69-.34a.25.25,0,0,1,.21-.45c.26.12.5.23.7.34.37.18.74.35,1.1.5a.24.24,0,0,1,.14.32h0a.25.25,0,0,1-.24.09Zm-3.64-1.68h-.1l-1.83-.78a.26.26,0,0,1-.14-.33.24.24,0,0,1,.31-.14h0c.66.27,1.28.54,1.84.79a.23.23,0,0,1,.14.29v0a.25.25,0,0,1-.24.09Zm-3.69-1.54h-.09l-1.86-.74a.25.25,0,0,1-.15-.32.24.24,0,0,1,.32-.14h0l1.86.73a.22.22,0,1,1-.1.43Zm-3.73-1.45h-.09l-1.88-.69a.24.24,0,0,1-.16-.3v0a.26.26,0,0,1,.32-.15l1.88.69a.25.25,0,0,1,.15.32.25.25,0,0,1-.24.11Zm-3.77-1.36h-.08l-1.9-.64a.25.25,0,1,1,.16-.48l1.9.64a.26.26,0,0,1,.16.32.25.25,0,0,1-.25.12Zm-3.81-1.25h-.07l-1.91-.57a.25.25,0,0,1-.17-.31h0a.23.23,0,0,1,.27-.18h0l1.92.57a.25.25,0,0,1,.16.31h0a.25.25,0,0,1-.25.12ZM254.77,113h-.07c-.66-.17-1.3-.33-1.93-.47a.25.25,0,0,1,.11-.49c.63.14,1.28.31,2,.48a.27.27,0,0,1,.18.31A.25.25,0,0,1,254.77,113Zm-3.91-.88h0c-.44-.08-.86-.14-1.27-.2a.26.26,0,0,1-.21-.29.27.27,0,0,1,.28-.21l1.29.21a.24.24,0,1,1-.09.47Z" transform="translate(-2.5 0.01)" style="fill:#fcefb2"/><path d="M331.38,117.13h-.07a.24.24,0,0,1-.16-.3h0c.22-.7.39-1.29.52-1.9a.25.25,0,0,1,.29-.2.25.25,0,0,1,.2.3,17.37,17.37,0,0,1-.54,2A.25.25,0,0,1,331.38,117.13Zm.74-3.92a.26.26,0,0,1-.25-.24,8.3,8.3,0,0,0-.26-1.92.25.25,0,0,1,.17-.31h0a.25.25,0,0,1,.3.19h0a8.39,8.39,0,0,1,.28,2,.25.25,0,0,1-.25.25Zm-.94-3.85a.25.25,0,0,1-.23-.15,16,16,0,0,0-.92-1.74.26.26,0,0,1,.09-.35.25.25,0,0,1,.34.09,18.52,18.52,0,0,1,1,1.79.24.24,0,0,1-.11.32h0A.2.2,0,0,1,331.18,109.36Zm-2-3.44a.22.22,0,0,1-.2-.1c-.36-.49-.77-1-1.23-1.56a.24.24,0,0,1,0-.35.24.24,0,0,1,.34,0h0c.46.55.88,1.08,1.24,1.58a.24.24,0,0,1,0,.35.22.22,0,0,1-.2.08Zm-2.56-3.07a.25.25,0,0,1-.18-.08q-.66-.7-1.38-1.44a.25.25,0,0,1,.05-.35.24.24,0,0,1,.3,0c.49.49.95,1,1.4,1.45a.24.24,0,0,1,0,.35.25.25,0,0,1-.23.07ZM323.75,100a.22.22,0,0,1-.17-.07c-.48-.45-1-.89-1.47-1.34a.24.24,0,0,1,0-.34h0a.25.25,0,0,1,.35,0h0c.51.44,1,.89,1.49,1.35a.24.24,0,0,1,0,.35A.26.26,0,0,1,323.75,100Zm-3-2.65a.3.3,0,0,1-.16,0c-.51-.43-1-.84-1.55-1.26a.24.24,0,0,1,0-.34h0a.24.24,0,0,1,.35,0c.53.41,1,.84,1.56,1.26a.24.24,0,0,1,0,.34h0a.25.25,0,0,1-.2.07Zm-3.14-2.47a.21.21,0,0,1-.15,0c-.54-.4-1.08-.78-1.62-1.16a.25.25,0,0,1-.06-.35h0a.23.23,0,0,1,.33-.06h0c.55.38,1.1.77,1.64,1.17a.25.25,0,0,1,.05.35.24.24,0,0,1-.2.12Zm-3.29-2.29h-.14a18.54,18.54,0,0,0-1.68-1,.25.25,0,1,1,.26-.43c.56.34,1.13.69,1.7,1.06a.26.26,0,0,1,.07.35.26.26,0,0,1-.21,0Zm-3.43-2.06a.24.24,0,0,1-.12,0l-1.75-1a.24.24,0,0,1-.1-.32h0a.24.24,0,0,1,.32-.11h0c.6.32,1.18.65,1.75,1a.25.25,0,0,1,.1.34h0a.27.27,0,0,1-.22.11Zm-3.51-1.91h-.12c-.57-.3-1.16-.61-1.77-.91a.25.25,0,0,1-.11-.33.24.24,0,0,1,.31-.13h0c.61.31,1.21.61,1.79.92a.24.24,0,0,1,.11.32v0a.25.25,0,0,1-.22.12Zm-3.58-1.78h-.11c-.59-.27-1.2-.55-1.82-.81a.24.24,0,0,1-.14-.31v0a.24.24,0,0,1,.33-.13h0c.62.27,1.24.54,1.83.82a.25.25,0,0,1,.1.34.26.26,0,0,1-.2.13Zm-3.68-1.56H300c-.61-.23-1.23-.46-1.87-.68a.25.25,0,0,1,.16-.48l1.89.69a.24.24,0,0,1,.14.32h0a.25.25,0,0,1-.23.16ZM296.34,84h-.07q-.94-.28-1.92-.54a.27.27,0,0,1-.18-.31.25.25,0,0,1,.31-.17c.66.17,1.3.35,1.93.54a.25.25,0,0,1,.17.31.25.25,0,0,1-.24.18Zm-3.87-1h-.05l-1.95-.39a.26.26,0,0,1-.21-.29.24.24,0,0,1,.29-.2h0l2,.39a.25.25,0,0,1,0,.5Zm-3.93-.72h0c-.64-.09-1.3-.18-2-.25a.25.25,0,0,1-.27-.23.26.26,0,0,1,.23-.27h.09c.68.07,1.34.15,2,.24a.25.25,0,0,1,.21.28h0a.25.25,0,0,1-.26.19Zm-4-.42h0c-.65,0-1.31-.08-2-.1a.24.24,0,0,1-.24-.24v0a.24.24,0,0,1,.24-.24h0c.68,0,1.35.06,2,.1a.25.25,0,0,1,0,.5Zm-6-.1a.25.25,0,0,1,0-.5h2a.25.25,0,0,1,0,.5Z" transform="translate(-2.5 0.01)" style="fill:#fcefb2"/><path d="M302,100.4a.23.23,0,0,1-.16-.06l-.1-.08c-.39-.31-.88-.7-1.47-1.14a.25.25,0,0,1,.3-.4h0c.6.45,1.09.84,1.48,1.15l.1.08a.24.24,0,0,1,0,.34h0A.25.25,0,0,1,302,100.4ZM298.75,98a.33.33,0,0,1-.14,0c-.55-.38-1.11-.74-1.66-1.09a.25.25,0,0,1-.09-.34.26.26,0,0,1,.35-.08c.56.35,1.13.72,1.68,1.1a.24.24,0,0,1,.08.33h0A.27.27,0,0,1,298.75,98Zm-3.4-2.1h-.12c-.58-.32-1.17-.63-1.76-.92a.24.24,0,0,1-.13-.31v0a.24.24,0,0,1,.33-.12h0c.6.3,1.2.61,1.78.93a.25.25,0,0,1-.12.47Zm-3.59-1.76a.17.17,0,0,1-.1,0c-.61-.26-1.23-.51-1.85-.73a.24.24,0,0,1-.14-.32.24.24,0,0,1,.3-.16h0c.62.23,1.25.48,1.87.74A.26.26,0,0,1,292,94,.24.24,0,0,1,291.76,94.14ZM288,92.76h-.08l-1.19-.35-.72-.19a.27.27,0,0,1-.18-.31.25.25,0,0,1,.3-.18l.73.2,1.21.35a.24.24,0,0,1,.16.3h0A.24.24,0,0,1,288,92.76Zm-3.87-1h-.06c-.65-.13-1.31-.26-1.95-.36a.25.25,0,0,1-.21-.28h0a.24.24,0,0,1,.27-.2h0c.65.1,1.32.23,2,.36a.25.25,0,0,1-.06.49Zm-3.95-.65h0c-.66-.08-1.32-.14-2-.19a.25.25,0,0,1,0-.5,19.06,19.06,0,0,1,2,.19.25.25,0,0,1,0,.5Zm-6-.27a.26.26,0,0,1-.25-.24.24.24,0,0,1,.22-.26h2a.25.25,0,0,1,0,.5h-2Z" transform="translate(-2.5 0.01)" style="fill:#fcefb2"/><path d="M208.57,0a62.69,62.69,0,0,1,30.5,117.89.86.86,0,0,1-1.16-.36.2.2,0,0,1,0-.08l-5.69-14A46.77,46.77,0,0,0,211.24,16h-2.67Z" transform="translate(-2.5 0.01)" style="fill:#e9764f"/><path d="M179.87,116.21a.24.24,0,0,1-.12,0l-1.19-.68-.55-.32a.25.25,0,1,1,.26-.43l.54.32,1.18.67a.25.25,0,0,1-.12.47Zm58.59,0a.25.25,0,0,1-.12-.47l.2-.11a.25.25,0,0,1,.34.09.26.26,0,0,1-.1.34l-.2.12Zm1.93-1.12a.21.21,0,0,1-.21-.12.24.24,0,0,1,.07-.33h0c.57-.34,1.13-.69,1.69-1.06a.25.25,0,0,1,.34.08.23.23,0,0,1-.06.33h0c-.56.37-1.13.72-1.7,1.07a.31.31,0,0,1-.13,0Zm-63.95-.93a.33.33,0,0,1-.14,0c-.56-.36-1.12-.73-1.67-1.11a.26.26,0,0,1-.07-.35.25.25,0,0,1,.35-.07h0c.55.38,1.1.75,1.66,1.11a.24.24,0,0,1,.07.35.23.23,0,0,1-.2.11Zm67.3-1.24a.24.24,0,0,1-.2-.11.25.25,0,0,1,.05-.34h0q.83-.57,1.62-1.17a.25.25,0,0,1,.35.06h0a.24.24,0,0,1,0,.35c-.54.39-1.08.79-1.63,1.17a.28.28,0,0,1-.2,0Zm-70.6-1a.38.38,0,0,1-.15,0c-.54-.4-1.07-.81-1.59-1.22a.26.26,0,0,1-.07-.35.26.26,0,0,1,.35-.07l0,0c.52.41,1,.81,1.58,1.21a.23.23,0,0,1,.06.33v0a.27.27,0,0,1-.2,0ZM247,110.53a.25.25,0,0,1-.19-.09.24.24,0,0,1,0-.35c.52-.41,1-.84,1.54-1.27a.25.25,0,0,1,.33.38h0c-.51.44-1,.86-1.55,1.28A.21.21,0,0,1,247,110.53Zm-77-1.12a.25.25,0,0,1-.16-.06L168.33,108a.25.25,0,0,1,.34-.38q.74.67,1.5,1.32a.31.31,0,0,1-.17.47Zm80-1.47a.23.23,0,0,1-.18-.08.24.24,0,0,1,0-.34h0c.49-.45,1-.9,1.45-1.37a.24.24,0,0,1,.35,0,.24.24,0,0,1,0,.34h0c-.48.47-1,.93-1.46,1.38A.24.24,0,0,1,250,107.94Zm-83-1.22a.24.24,0,0,1-.18-.07c-.48-.46-1-.93-1.42-1.41a.25.25,0,0,1,0-.36.24.24,0,0,1,.35,0l1.41,1.41a.24.24,0,0,1,0,.35A.3.3,0,0,1,167,106.72Zm85.82-1.56a.28.28,0,0,1-.17-.07.25.25,0,0,1,0-.36c.46-.48.92-1,1.36-1.45a.25.25,0,0,1,.37.33c-.45.5-.9,1-1.37,1.47a.28.28,0,0,1-.15.08Zm-88.61-1.3a.21.21,0,0,1-.18-.09c-.45-.49-.9-1-1.33-1.5a.25.25,0,0,1,0-.35h0a.26.26,0,0,1,.35,0q.64.77,1.32,1.5a.24.24,0,0,1,0,.35.29.29,0,0,1-.12.1Zm91.29-1.67a.25.25,0,0,1-.25-.25.23.23,0,0,1,.06-.16c.43-.51.85-1,1.26-1.55a.24.24,0,0,1,.35,0,.24.24,0,0,1,0,.34h0c-.41.53-.84,1-1.27,1.56a.22.22,0,0,1-.11,0Zm-93.88-1.38a.25.25,0,0,1-.19-.09q-.63-.8-1.23-1.59a.24.24,0,0,1,0-.35.24.24,0,0,1,.34,0h0c.4.53.8,1.06,1.22,1.58a.26.26,0,0,1,0,.35.35.35,0,0,1-.11.1ZM258,99.05a.38.38,0,0,1-.15,0,.25.25,0,0,1-.05-.35L259,97a.24.24,0,0,1,.33-.08h0a.25.25,0,0,1,.07.35h0c-.38.55-.77,1.1-1.17,1.64A.24.24,0,0,1,258,99.05ZM159.28,97.6a.25.25,0,0,1-.21-.1c-.38-.55-.75-1.11-1.12-1.67a.26.26,0,0,1,.08-.35.25.25,0,0,1,.34.08c.36.55.73,1.11,1.11,1.65a.25.25,0,0,1-.06.35h0A.23.23,0,0,1,159.28,97.6Zm101-1.85a.33.33,0,0,1-.14,0,.24.24,0,0,1-.08-.33h0c.36-.56.71-1.13,1.05-1.7a.25.25,0,0,1,.33-.09h0a.25.25,0,0,1,.09.34c-.35.57-.7,1.14-1.06,1.71a.25.25,0,0,1-.2.07ZM157.1,94.25a.27.27,0,0,1-.22-.12c-.34-.58-.68-1.16-1-1.74a.24.24,0,0,1,0-.35.25.25,0,0,1,.35,0,.3.3,0,0,1,0,.08c.33.58.66,1.15,1,1.72a.25.25,0,0,1-.08.34.28.28,0,0,1-.12,0Zm105.23-1.94h-.12a.25.25,0,0,1-.1-.34h0c.32-.58.63-1.17.93-1.76a.25.25,0,1,1,.45.23h0c-.31.6-.62,1.19-.94,1.77a.25.25,0,0,1-.21.1ZM155.16,90.76a.26.26,0,0,1-.22-.14c-.3-.59-.6-1.19-.89-1.8a.25.25,0,1,1,.46-.21c.28.6.57,1.19.88,1.78a.26.26,0,0,1-.11.34A.27.27,0,0,1,155.16,90.76Zm109-2h-.1a.24.24,0,0,1-.13-.31v0c.28-.6.55-1.21.81-1.82a.24.24,0,0,1,.33-.13h0a.24.24,0,0,1,.14.31v0c-.26.61-.54,1.23-.82,1.83a.25.25,0,0,1-.24.11Zm-110.69-1.6a.25.25,0,0,1-.23-.15c-.27-.62-.52-1.24-.77-1.86a.23.23,0,0,1,.13-.31h0a.26.26,0,0,1,.33.13h0c.24.62.49,1.23.76,1.84a.26.26,0,0,1-.13.33Zm112.27-2.08h-.09a.24.24,0,0,1-.14-.32c.24-.62.47-1.25.69-1.88a.25.25,0,1,1,.47.17c-.22.63-.46,1.26-.7,1.89a.24.24,0,0,1-.24.13ZM152,83.43a.24.24,0,0,1-.23-.16c-.23-.63-.44-1.27-.65-1.9a.26.26,0,0,1,.17-.32.25.25,0,0,1,.31.16c.2.64.42,1.26.64,1.89a.26.26,0,0,1-.15.32Zm115.07-2.14H267a.26.26,0,0,1-.16-.32c.2-.63.39-1.27.57-1.91a.25.25,0,0,1,.48.13c-.18.65-.37,1.29-.57,1.93a.26.26,0,0,1-.26.17ZM150.78,79.63a.25.25,0,0,1-.24-.18c-.19-.64-.36-1.29-.52-1.94a.26.26,0,0,1,.18-.31.26.26,0,0,1,.31.19q.24,1,.51,1.92a.25.25,0,0,1-.17.31Zm117.35-2.2h-.06a.25.25,0,0,1-.18-.3c.16-.65.3-1.3.44-2a.26.26,0,0,1,.29-.19.24.24,0,0,1,.2.27v0c-.14.66-.29,1.32-.44,2A.27.27,0,0,1,268.13,77.43ZM149.82,75.76a.26.26,0,0,1-.25-.2c-.14-.65-.26-1.31-.38-2a.24.24,0,0,1,.18-.29h0a.25.25,0,0,1,.29.2c.12.66.24,1.31.38,2a.26.26,0,0,1-.19.29ZM269,73.51H269a.25.25,0,0,1-.2-.28c.11-.66.22-1.31.31-2a.25.25,0,0,1,.28-.22h0a.27.27,0,0,1,.22.29c-.1.66-.2,1.32-.32,2A.25.25,0,0,1,269,73.51ZM149.11,71.82a.25.25,0,0,1-.24-.21c-.1-.66-.18-1.33-.26-2a.25.25,0,1,1,.5-.06c.07.66.16,1.32.25,2a.25.25,0,0,1-.21.28ZM269.5,69.55h0a.26.26,0,0,1-.23-.28c.07-.67.13-1.33.18-2a.24.24,0,0,1,.25-.23h0a.25.25,0,0,1,.23.26c-.05.67-.11,1.34-.18,2a.25.25,0,0,1-.25.25Zm-120.83-1.7a.25.25,0,0,1-.25-.23c0-.67-.09-1.33-.12-2a.25.25,0,0,1,.24-.26h0a.25.25,0,0,1,.26.24h0c0,.67.07,1.33.12,2a.25.25,0,0,1-.23.27h0Zm121.12-2.29h0a.25.25,0,0,1-.24-.26v-2c0-.14.12-.28.26-.25a.26.26,0,0,1,.24.25v2a.25.25,0,0,1-.24.26Zm-121.3-1.71a.26.26,0,0,1-.25-.24v-2a.25.25,0,0,1,.25-.25.26.26,0,0,1,.25.26v2a.25.25,0,0,1-.25.25Zm121.34-2.29a.26.26,0,0,1-.25-.24c0-.67-.05-1.33-.08-2a.25.25,0,0,1,.23-.27h0a.26.26,0,0,1,.27.24c0,.66.06,1.33.08,2a.26.26,0,0,1-.25.26Zm-121.26-1.7h0a.24.24,0,0,1-.24-.24v0c0-.67.08-1.34.14-2a.25.25,0,0,1,.27-.23h0a.24.24,0,0,1,.22.26h0c0,.66-.1,1.32-.13,2A.26.26,0,0,1,148.57,59.86Zm121-2.29a.25.25,0,0,1-.25-.23c-.06-.67-.13-1.33-.21-2a.26.26,0,0,1,.22-.28.25.25,0,0,1,.28.22h0c.08.66.15,1.33.21,2a.25.25,0,0,1-.23.27h0Zm-120.69-1.7h0a.25.25,0,0,1-.22-.28h0c.08-.66.17-1.33.27-2a.27.27,0,0,1,.28-.21.25.25,0,0,1,.21.28h0c-.1.65-.19,1.31-.27,2a.24.24,0,0,1-.24.2Zm120.2-2.27a.25.25,0,0,1-.24-.21c-.11-.66-.22-1.31-.34-2a.24.24,0,0,1,.18-.29h0a.26.26,0,0,1,.29.19c.12.66.24,1.32.34,2a.25.25,0,0,1-.2.29h0Zm-119.6-1.68h0a.24.24,0,0,1-.2-.27v0c.12-.66.25-1.31.4-2a.26.26,0,0,1,.3-.2.25.25,0,0,1,.19.3c-.15.65-.28,1.3-.4,2a.25.25,0,0,1-.26.19Zm118.86-2.25a.26.26,0,0,1-.25-.19c-.14-.65-.3-1.3-.47-1.94a.25.25,0,0,1,.49-.13h0c.17.64.32,1.29.47,1.95a.25.25,0,0,1-.19.3h-.05ZM150.36,48h-.06a.27.27,0,0,1-.18-.31c.17-.65.34-1.29.53-1.94a.26.26,0,0,1,.31-.17.25.25,0,0,1,.17.31h0c-.19.64-.36,1.28-.52,1.92A.26.26,0,0,1,150.36,48Zm117-2.21a.25.25,0,0,1-.24-.18c-.19-.63-.39-1.27-.6-1.9a.25.25,0,0,1,.48-.16h0c.21.63.41,1.27.6,1.91a.25.25,0,0,1-.17.31h-.07ZM151.48,44.17h-.08a.25.25,0,0,1-.16-.31c.21-.64.43-1.28.66-1.91a.26.26,0,0,1,.32-.15.25.25,0,0,1,.15.32c-.23.63-.45,1.26-.65,1.89A.25.25,0,0,1,151.48,44.17ZM266.1,42a.26.26,0,0,1-.24-.16q-.35-.95-.72-1.86a.26.26,0,0,1,.14-.33.23.23,0,0,1,.31.13h0c.26.62.5,1.24.73,1.87a.24.24,0,0,1-.13.31h0ZM152.85,40.4h-.09a.24.24,0,0,1-.14-.32h0c.25-.62.51-1.24.78-1.85a.24.24,0,0,1,.33-.13h0a.24.24,0,0,1,.13.33h0c-.27.61-.53,1.22-.78,1.84a.25.25,0,0,1-.23.15Zm111.74-2.1a.25.25,0,0,1-.23-.15q-.41-.9-.84-1.8a.24.24,0,0,1,.08-.34.25.25,0,0,1,.35.08s0,0,0,0c.29.6.57,1.2.85,1.81a.25.25,0,0,1-.13.33h0a.17.17,0,0,1-.1,0ZM154.47,36.74h-.11a.26.26,0,0,1-.11-.34q.44-.9.9-1.8a.26.26,0,0,1,.34-.1.24.24,0,0,1,.11.32v0c-.31.58-.6,1.18-.89,1.78A.27.27,0,0,1,154.47,36.74Zm108.37-2a.26.26,0,0,1-.22-.14c-.31-.58-.65-1.16-1-1.74a.26.26,0,0,1,.1-.34.27.27,0,0,1,.34.09c.33.58.65,1.17,1,1.76a.25.25,0,0,1-.1.34h0a.25.25,0,0,1-.12,0ZM156.33,33.19a.24.24,0,0,1-.12,0,.25.25,0,0,1-.1-.34h0c.33-.59.67-1.16,1-1.74a.25.25,0,1,1,.43.27c-.35.56-.69,1.14-1,1.71A.23.23,0,0,1,156.33,33.19Zm104.53-1.93a.24.24,0,0,1-.21-.12c-.35-.56-.71-1.12-1.07-1.67a.25.25,0,0,1,.07-.35h0a.25.25,0,0,1,.34.07c.37.56.73,1.12,1.08,1.69a.24.24,0,0,1-.07.33h0A.2.2,0,0,1,260.86,31.26ZM158.42,29.77a.33.33,0,0,1-.14,0,.24.24,0,0,1-.08-.33h0c.37-.56.74-1.12,1.13-1.66a.24.24,0,0,1,.33-.07h0a.23.23,0,0,1,.06.33h0c-.39.55-.76,1.1-1.12,1.65A.27.27,0,0,1,158.42,29.77Zm100.24-1.84a.25.25,0,0,1-.21-.1c-.38-.54-.77-1.08-1.18-1.6a.25.25,0,0,1,.05-.35.24.24,0,0,1,.34,0h0c.41.53.8,1.07,1.19,1.62a.25.25,0,0,1-.06.35h0A.29.29,0,0,1,258.66,27.93ZM160.72,26.5a.27.27,0,0,1-.15-.05.24.24,0,0,1,0-.35c.41-.53.82-1.06,1.24-1.58a.24.24,0,0,1,.35,0,.24.24,0,0,1,0,.34h0c-.42.52-.83,1-1.23,1.58A.23.23,0,0,1,160.72,26.5Zm95.51-1.74a.26.26,0,0,1-.19-.1c-.42-.51-.85-1-1.28-1.52a.24.24,0,0,1,0-.35.25.25,0,0,1,.36,0c.44.51.87,1,1.29,1.54a.24.24,0,0,1,0,.34h0A.23.23,0,0,1,256.23,24.76Zm-93-1.37a.23.23,0,0,1-.16-.06.24.24,0,0,1,0-.34h0c.44-.51.88-1,1.34-1.5a.25.25,0,0,1,.41.29l0,.05c-.45.49-.89,1-1.32,1.49a.25.25,0,0,1-.21.08Zm90.37-1.65a.25.25,0,0,1-.18-.08L252,20.23a.25.25,0,0,1,0-.35h0a.26.26,0,0,1,.35,0c.47.48.94,1,1.39,1.45a.24.24,0,0,1,0,.34h0a.22.22,0,0,1-.17.07ZM166,20.45a.22.22,0,0,1-.17-.07.24.24,0,0,1,0-.35q.71-.72,1.44-1.41a.25.25,0,0,1,.39.31.12.12,0,0,1,0,.05c-.48.46-1,.93-1.42,1.4A.23.23,0,0,1,166,20.45Zm84.84-1.55a.27.27,0,0,1-.17-.06q-.72-.69-1.47-1.35a.25.25,0,0,1,.33-.37c.5.44,1,.89,1.49,1.35a.25.25,0,0,1,0,.35h0a.25.25,0,0,1-.23.07ZM168.9,17.7a.27.27,0,0,1-.19-.08.25.25,0,0,1,0-.36c.5-.44,1-.88,1.52-1.3a.25.25,0,0,1,.35,0,.24.24,0,0,1,0,.35.08.08,0,0,1,0,0c-.51.42-1,.86-1.51,1.3a.22.22,0,0,1-.19.06Zm79-1.44a.23.23,0,0,1-.16-.06c-.51-.42-1-.84-1.56-1.24a.27.27,0,0,1-.05-.36.25.25,0,0,1,.36,0c.53.41,1,.83,1.57,1.25a.25.25,0,0,1,0,.36.27.27,0,0,1-.26.05ZM172,15.14a.24.24,0,0,1-.15-.44h0c.52-.41,1.06-.82,1.6-1.21a.25.25,0,0,1,.35.06h0a.25.25,0,0,1-.06.35c-.53.39-1.06.78-1.59,1.19a.21.21,0,0,1-.25.05Zm72.71-1.33a.27.27,0,0,1-.15-.05c-.54-.39-1.08-.77-1.63-1.14a.24.24,0,0,1-.08-.33h0a.25.25,0,0,1,.35-.07h0c.55.37,1.1.76,1.65,1.15a.25.25,0,0,1,.05.35h0a.26.26,0,0,1-.3.1Zm-69.48-1a.26.26,0,0,1-.21-.11.26.26,0,0,1,.07-.35c.55-.38,1.11-.74,1.68-1.1a.25.25,0,0,1,.34.08.24.24,0,0,1-.07.33h0l-1.66,1.09a.24.24,0,0,1-.24,0Zm66.16-1.22h-.13c-.57-.35-1.14-.7-1.71-1a.24.24,0,0,1-.12-.33.25.25,0,0,1,.33-.13l0,0c.58.33,1.15.68,1.72,1a.24.24,0,1,1-.23.42Zm-62.78-.92a.25.25,0,0,1-.22-.12.25.25,0,0,1,.09-.34l1.75-1a.25.25,0,0,1,.33.09h0a.24.24,0,0,1-.08.33h0l-1.73,1a.28.28,0,0,1-.22,0ZM238,9.58h-.12c-.59-.32-1.18-.62-1.78-.92a.25.25,0,0,1-.11-.33.24.24,0,0,1,.33-.12h0c.6.3,1.19.61,1.78.93a.25.25,0,0,1,.12.32h0a.25.25,0,0,1-.32.1ZM182,8.76a.24.24,0,0,1-.22-.14.25.25,0,0,1,.11-.33c.6-.3,1.2-.59,1.81-.87a.25.25,0,0,1,.21.45c-.61.28-1.2.57-1.79.87Zm52.23-1h-.11c-.6-.27-1.21-.54-1.83-.79a.24.24,0,0,1-.14-.31v0a.23.23,0,0,1,.29-.14h0c.62.25,1.24.52,1.85.8a.25.25,0,0,1,.12.33.24.24,0,0,1-.19.15Zm-48.6-.7a.25.25,0,0,1-.23-.15.25.25,0,0,1,.13-.33h0c.61-.25,1.23-.5,1.86-.74a.24.24,0,0,1,.32.14.26.26,0,0,1-.15.33c-.61.23-1.23.48-1.84.74Zm44.89-.84h-.08l-1.88-.67a.24.24,0,0,1-.17-.29v0a.25.25,0,0,1,.32-.15c.63.21,1.26.44,1.89.68a.25.25,0,0,1-.06.49Zm-41.17-.58a.24.24,0,0,1-.23-.17.25.25,0,0,1,.15-.32l1.91-.62a.23.23,0,0,1,.3.15v0a.25.25,0,0,1-.15.31h0c-.64.2-1.27.4-1.89.62ZM226.76,5h-.08c-.63-.19-1.27-.37-1.91-.54A.25.25,0,0,1,224.9,4h0l1.93.55a.25.25,0,0,1,.17.31A.26.26,0,0,1,226.76,5Zm-33.55-.47a.26.26,0,0,1-.25-.18.27.27,0,0,1,.18-.31c.64-.17,1.29-.34,2-.49a.26.26,0,0,1,.33.13.25.25,0,0,1-.14.33l-.08,0-1.93.49ZM222.89,4h-.06c-.64-.15-1.29-.29-1.94-.42A.28.28,0,0,1,221,3h0l2,.42a.25.25,0,0,1,.17.31.25.25,0,0,1-.23.18Zm-25.79-.4a.26.26,0,0,1-.25-.2.25.25,0,0,1,.2-.29c.65-.13,1.31-.26,2-.37a.25.25,0,0,1,.08.5q-1,.17-1.95.36ZM219,3.16h0c-.65-.11-1.31-.2-2-.29a.25.25,0,0,1-.22-.28h0a.25.25,0,0,1,.28-.22h0l2,.29a.25.25,0,0,1,0,.5Zm-18-.25a.25.25,0,0,1,0-.5c.66-.09,1.32-.16,2-.23a.26.26,0,0,1,.27.22.25.25,0,0,1-.22.28h0c-.66.06-1.32.14-2,.23Zm14-.26h0c-.66-.06-1.32-.12-2-.16a.25.25,0,1,1,0-.5c.67,0,1.33.1,2,.16a.26.26,0,0,1,.22.27A.25.25,0,0,1,215,2.65Zm-10-.14a.25.25,0,0,1,0-.5c.67,0,1.33-.08,2-.1a.24.24,0,0,1,.25.23h0a.24.24,0,0,1-.22.26h0c-.66,0-1.33.06-2,.1Zm6-.11h-2a.25.25,0,0,1,0-.5h2a.25.25,0,0,1,0,.5Z" transform="translate(-2.5 0.01)" style="fill:#fcefb2"/><path d="M183.92,104.78a.29.29,0,0,1-.13,0c-.57-.34-1.14-.7-1.7-1.07a.25.25,0,1,1,.28-.42c.55.37,1.11.72,1.68,1.07a.25.25,0,0,1,.09.34A.27.27,0,0,1,183.92,104.78Zm50.86-.23a.24.24,0,0,1-.21-.12.24.24,0,0,1,.07-.33h0l.81-.51a.26.26,0,0,1,.35.07.26.26,0,0,1-.08.35l-.82.52A.31.31,0,0,1,234.78,104.55Zm2.47-1.63a.24.24,0,0,1-.2-.11.25.25,0,0,1,.06-.35h0c.54-.38,1.07-.77,1.6-1.18a.25.25,0,1,1,.3.4c-.53.41-1.07.8-1.61,1.19A.27.27,0,0,1,237.25,102.92Zm-56.66-.35a.38.38,0,0,1-.15,0c-.54-.39-1.08-.8-1.6-1.21a.25.25,0,0,1,0-.35.25.25,0,0,1,.32,0c.52.41,1,.81,1.58,1.2a.24.24,0,0,1,.08.32l0,0A.24.24,0,0,1,180.59,102.57Zm59.83-2.09a.25.25,0,0,1-.19-.09.24.24,0,0,1,0-.35c.51-.43,1-.86,1.5-1.31a.25.25,0,0,1,.36,0,.24.24,0,0,1,0,.35c-.5.45-1,.89-1.52,1.32A.28.28,0,0,1,240.42,100.48Zm-63-.39a.23.23,0,0,1-.16-.06c-.51-.43-1-.88-1.5-1.34a.24.24,0,0,1,0-.34h0a.25.25,0,0,1,.35,0h0c.48.45,1,.89,1.48,1.32a.24.24,0,0,1,0,.34h0a.28.28,0,0,1-.15.08Zm65.93-2.3a.22.22,0,0,1-.17-.07.25.25,0,0,1,0-.35h0c.47-.46.93-.94,1.39-1.42a.24.24,0,0,1,.35,0,.24.24,0,0,1,0,.34h0c-.46.49-.92,1-1.4,1.44a.25.25,0,0,1-.14.06Zm-68.86-.42a.25.25,0,0,1-.18-.08c-.47-.47-.93-1-1.38-1.45a.25.25,0,0,1,0-.35h0a.25.25,0,0,1,.36,0c.44.49.9,1,1.37,1.44a.25.25,0,0,1,0,.36.42.42,0,0,1-.14.09Zm71.59-2.5a.25.25,0,0,1-.16-.06.24.24,0,0,1,0-.35q.65-.75,1.26-1.53a.24.24,0,0,1,.34,0h0a.25.25,0,0,1,.05.35c-.42.52-.85,1-1.29,1.55a.28.28,0,0,1-.18,0Zm-74.29-.45a.25.25,0,0,1-.19-.09c-.43-.52-.85-1-1.26-1.57a.25.25,0,1,1,.4-.3h0c.4.52.82,1,1.25,1.54a.25.25,0,0,1,0,.36A.25.25,0,0,1,171.79,94.42Zm76.78-2.68a.38.38,0,0,1-.15,0,.24.24,0,0,1,0-.35c.39-.53.77-1.08,1.14-1.63a.25.25,0,0,1,.34-.07.24.24,0,0,1,.1.31c-.37.56-.75,1.11-1.15,1.65a.27.27,0,0,1-.25.09Zm-79.22-.49a.2.2,0,0,1-.2-.1c-.39-.55-.77-1.1-1.13-1.66a.25.25,0,0,1,.07-.35h0a.26.26,0,0,1,.35.07q.54.84,1.11,1.65a.25.25,0,0,1-.06.35h0a.21.21,0,0,1-.11,0Zm81.44-2.84a.29.29,0,0,1-.13,0,.26.26,0,0,1-.08-.35c.34-.56.68-1.14,1-1.72a.25.25,0,0,1,.34-.09.25.25,0,0,1,.1.34h0l-1,1.73a.25.25,0,0,1-.2.09ZM167.2,87.9a.24.24,0,0,1-.21-.12c-.35-.58-.68-1.16-1-1.75a.25.25,0,0,1,.1-.34h0a.25.25,0,0,1,.34.11h0c.31.58.64,1.16,1,1.73a.25.25,0,0,1-.09.34A.32.32,0,0,1,167.2,87.9Zm85.56-3h-.11a.26.26,0,0,1-.11-.34c.3-.59.58-1.19.86-1.79a.24.24,0,0,1,.31-.14h0a.25.25,0,0,1,.12.33c-.27.61-.56,1.22-.86,1.82a.27.27,0,0,1-.23.12Zm-87.46-.52a.24.24,0,0,1-.22-.15c-.29-.59-.58-1.21-.84-1.82a.25.25,0,0,1,.13-.33h0a.26.26,0,0,1,.33.13c.26.61.54,1.21.83,1.81a.24.24,0,0,1-.1.32h0a.21.21,0,0,1-.11,0Zm89.11-3.12h-.09a.24.24,0,0,1-.14-.32h0c.24-.6.48-1.23.71-1.86a.23.23,0,0,1,.28-.16h0a.26.26,0,0,1,.16.32c-.23.64-.47,1.27-.72,1.88a.25.25,0,0,1-.23.15Zm-90.71-.54a.26.26,0,0,1-.23-.16c-.24-.63-.47-1.25-.69-1.89a.26.26,0,0,1,.16-.32.25.25,0,0,1,.31.16q.33.94.69,1.86a.26.26,0,0,1-.15.33Zm92.05-3.23h-.07a.28.28,0,0,1-.17-.32c.2-.63.39-1.28.55-1.91a.24.24,0,0,1,.3-.18h0a.27.27,0,0,1,.18.31c-.17.64-.36,1.29-.56,1.93a.25.25,0,0,1-.24.18ZM162.41,77a.25.25,0,0,1-.24-.18c-.19-.64-.37-1.29-.53-1.94a.25.25,0,0,1,.18-.3.27.27,0,0,1,.31.18c.16.64.33,1.28.52,1.92a.25.25,0,0,1-.17.31Zm94.37-3.32h-.06a.25.25,0,0,1-.19-.3h0c.15-.64.28-1.3.39-1.95a.25.25,0,0,1,.29-.2.25.25,0,0,1,.21.28h0c-.12.66-.25,1.32-.4,2a.25.25,0,0,1-.24.11Zm-95.35-.55a.25.25,0,0,1-.24-.2c-.14-.66-.26-1.31-.37-2a.25.25,0,0,1,.2-.28.24.24,0,0,1,.29.18v0c.11.66.23,1.31.37,2a.26.26,0,0,1-.19.29Zm96.05-3.39h0a.24.24,0,0,1-.22-.26v0c.09-.65.17-1.31.23-2a.25.25,0,0,1,.27-.23h0a.25.25,0,0,1,.23.27h0c-.07.67-.14,1.34-.23,2a.26.26,0,0,1-.28.19Zm-96.7-.56a.25.25,0,0,1-.25-.22c-.08-.66-.15-1.32-.21-2a.25.25,0,1,1,.5,0c.06.67.12,1.33.21,2a.26.26,0,0,1-.22.28Zm97.08-3.42h0a.25.25,0,0,1-.23-.27c0-.66.05-1.32.06-2a.26.26,0,0,1,.25-.24h0a.24.24,0,0,1,.24.24h0c0,.67,0,1.33-.06,2a.26.26,0,0,1-.26.21Zm-97.41-.56a.26.26,0,0,1-.25-.24V63a.25.25,0,0,1,.25-.25h0a.25.25,0,0,1,.25.25v2a.25.25,0,0,1-.24.26h0Zm97.46-3.44a.25.25,0,0,1-.25-.25c0-.66-.05-1.32-.1-2a.26.26,0,0,1,.24-.27.25.25,0,0,1,.26.23c.05.67.08,1.34.1,2a.25.25,0,0,1-.24.26Zm-97.47-.56h0a.24.24,0,0,1-.24-.24v0c0-.67.06-1.34.12-2a.25.25,0,0,1,.5,0c-.06.65-.1,1.32-.12,2a.24.24,0,0,1-.26.21Zm97.2-3.43a.26.26,0,0,1-.25-.22c-.07-.66-.16-1.32-.25-2a.25.25,0,0,1,.48-.14.17.17,0,0,1,0,.07c.1.66.18,1.32.26,2a.26.26,0,0,1-.22.28Zm-96.89-.55h0a.24.24,0,0,1-.21-.27h0c.08-.67.17-1.34.28-2a.25.25,0,0,1,.28-.21.25.25,0,0,1,.21.28h0c-.1.65-.2,1.3-.28,2a.26.26,0,0,1-.28.14ZM257,53.77a.25.25,0,0,1-.24-.21c-.13-.65-.27-1.3-.42-1.94a.25.25,0,0,1,.19-.3h0a.24.24,0,0,1,.3.17h0c.15.65.29,1.31.42,2a.26.26,0,0,1-.2.29Zm-95.65-.55h0a.26.26,0,0,1-.19-.3c.13-.66.28-1.31.44-2a.26.26,0,0,1,.31-.19.26.26,0,0,1,.18.31h0c-.16.64-.31,1.29-.44,1.94a.25.25,0,0,1-.26.24h0Zm94.74-3.34a.26.26,0,0,1-.24-.19c-.18-.63-.38-1.27-.58-1.9a.26.26,0,0,1,.16-.32.25.25,0,0,1,.31.16c.21.64.41,1.29.59,1.93a.27.27,0,0,1-.18.31Zm-93.77-.54h-.07a.24.24,0,0,1-.18-.29v0c.19-.65.39-1.28.6-1.92A.24.24,0,0,1,163,47a.23.23,0,0,1,.16.28v0c-.21.63-.41,1.26-.59,1.9a.28.28,0,0,1-.2.13Zm92.53-3.27a.24.24,0,0,1-.23-.16c-.24-.62-.48-1.23-.73-1.84a.24.24,0,0,1,.11-.32h0a.26.26,0,0,1,.33.13c.25.62.5,1.24.73,1.87a.23.23,0,0,1-.13.31h-.1Zm-91.25-.52h-.09a.25.25,0,0,1-.15-.31h0c.24-.63.49-1.25.76-1.87a.25.25,0,0,1,.46.2c-.27.61-.52,1.23-.76,1.85a.25.25,0,0,1-.19.14Zm89.71-3.15a.28.28,0,0,1-.23-.15c-.28-.6-.57-1.19-.88-1.78a.25.25,0,0,1,.45-.23h0c.3.59.6,1.2.89,1.8a.26.26,0,0,1-.12.33l-.07,0Zm-88.12-.53h-.11a.26.26,0,0,1-.11-.34c.29-.6.59-1.2.91-1.79a.25.25,0,0,1,.34-.1h0a.24.24,0,0,1,.1.32h0c-.31.59-.61,1.18-.9,1.78a.25.25,0,0,1-.19.12Zm86.28-3a.26.26,0,0,1-.22-.13l-1-1.7a.26.26,0,0,1,.08-.35.24.24,0,0,1,.33.07h0c.36.57.7,1.14,1,1.72a.25.25,0,0,1-.09.34l-.07,0Zm-84.39-.52H167a.26.26,0,0,1-.09-.35c.34-.57.7-1.15,1.06-1.71a.26.26,0,0,1,.35-.07.24.24,0,0,1,.08.33h0c-.36.56-.71,1.13-1,1.7a.27.27,0,0,1-.22.08Zm82.27-2.87a.25.25,0,0,1-.21-.1c-.38-.55-.76-1.09-1.16-1.62a.25.25,0,1,1,.4-.3h0c.4.54.79,1.08,1.17,1.63a.25.25,0,0,1-.06.35h0a.19.19,0,0,1-.1,0ZM169.29,35h-.14a.24.24,0,0,1-.07-.33v0c.38-.54.78-1.08,1.19-1.61a.25.25,0,1,1,.4.3h0c-.41.53-.8,1.06-1.19,1.6A.24.24,0,0,1,169.29,35ZM247,32.3a.23.23,0,0,1-.19-.1c-.42-.51-.85-1-1.29-1.51a.24.24,0,0,1,0-.35.22.22,0,0,1,.32,0l0,0c.45.5.88,1,1.3,1.53a.24.24,0,0,1,0,.34h0a.23.23,0,0,1-.16.06Zm-75.26-.47a.23.23,0,0,1-.16-.06.24.24,0,0,1,0-.34h0c.43-.52.87-1,1.32-1.52a.24.24,0,0,1,.35,0,.25.25,0,0,1,0,.36c-.45.49-.88,1-1.31,1.5a.29.29,0,0,1-.2,0Zm72.61-2.53a.24.24,0,0,1-.18-.07c-.46-.48-.93-.95-1.4-1.41a.25.25,0,1,1,.29-.41s0,0,0,.05c.48.46,1,.94,1.42,1.42a.24.24,0,0,1,0,.34h0a.24.24,0,0,1-.18.05Zm-69.93-.44a.22.22,0,0,1-.17-.07.24.24,0,0,1,0-.34h0a18.87,18.87,0,0,1,1.44-1.4.24.24,0,0,1,.34,0h0a.24.24,0,0,1,0,.35c-.49.45-1,.92-1.43,1.39a.22.22,0,0,1-.19.06Zm67.05-2.32a.28.28,0,0,1-.17-.07c-.49-.44-1-.87-1.52-1.29a.25.25,0,0,1-.07-.35.26.26,0,0,1,.35-.07l0,0c.52.42,1,.85,1.53,1.3a.24.24,0,0,1,0,.34h0a.24.24,0,0,1-.16.07Zm-64.13-.41a.27.27,0,0,1-.19-.08.25.25,0,0,1,0-.36c.51-.43,1-.86,1.55-1.28a.25.25,0,0,1,.35,0,.24.24,0,0,1,0,.35l0,0c-.52.42-1,.84-1.53,1.27a.23.23,0,0,1-.14,0Zm61-2.12a.19.19,0,0,1-.15,0c-.54-.4-1.07-.78-1.62-1.16a.25.25,0,0,1-.07-.35h0a.25.25,0,0,1,.35-.06h0c.55.38,1.1.77,1.64,1.17a.25.25,0,0,1,.05.35h0a.25.25,0,0,1-.17,0Zm-57.9-.36a.26.26,0,0,1-.2-.1.25.25,0,0,1,0-.34h0c.54-.4,1.08-.78,1.64-1.15a.25.25,0,0,1,.35.07h0a.25.25,0,0,1-.07.34c-.55.37-1.1.75-1.63,1.14l-.12,0ZM235,21.74a.33.33,0,0,1-.14,0c-.56-.36-1.13-.7-1.7-1a.25.25,0,0,1-.1-.34h0a.25.25,0,0,1,.34-.09l1.73,1a.26.26,0,0,1,.08.35.28.28,0,0,1-.18.06Zm-51.28-.31a.24.24,0,0,1-.21-.12.24.24,0,0,1,.07-.33h0c.58-.36,1.16-.7,1.74-1a.25.25,0,0,1,.34.09.26.26,0,0,1-.1.34c-.57.32-1.15.66-1.72,1a.17.17,0,0,1-.1,0Zm47.8-1.67h-.11c-.59-.31-1.19-.6-1.79-.88a.25.25,0,0,1-.16-.32.24.24,0,0,1,.32-.15l.05,0c.61.28,1.21.58,1.81.88a.25.25,0,0,1,.1.34h0a.25.25,0,0,1-.19.09Zm-44.31-.27a.24.24,0,0,1-.22-.14.25.25,0,0,1,.11-.33c.59-.3,1.2-.59,1.81-.87a.26.26,0,0,1,.33.13.25.25,0,0,1-.13.33h0c-.6.27-1.2.56-1.79.85h-.08ZM228,18h-.09c-.62-.25-1.23-.5-1.86-.73a.26.26,0,0,1-.15-.32.25.25,0,0,1,.32-.15c.64.24,1.26.48,1.88.74a.24.24,0,0,1,.14.31v0A.26.26,0,0,1,228,18Zm-37-.21a.25.25,0,0,1-.27-.22.25.25,0,0,1,.18-.27c.62-.25,1.25-.48,1.88-.71a.25.25,0,0,1,.32.15.26.26,0,0,1-.15.32c-.63.22-1.25.46-1.86.71Zm33.29-1.18h-.07c-.63-.21-1.27-.4-1.91-.58a.23.23,0,0,1-.17-.29h0a.24.24,0,0,1,.3-.18h0c.64.18,1.29.38,1.92.58a.26.26,0,0,1,.16.32.26.26,0,0,1-.28.22l-.06,0Zm-29.52-.17a.25.25,0,0,1-.07-.49c.63-.2,1.28-.38,1.93-.55a.24.24,0,0,1,.3.16h0a.25.25,0,0,1-.17.31h0c-.64.17-1.28.35-1.91.55Zm25.67-.9h-.05c-.65-.15-1.3-.29-1.95-.41a.26.26,0,0,1-.2-.3.26.26,0,0,1,.29-.19c.66.12,1.32.26,2,.41a.26.26,0,0,1,.19.3.26.26,0,0,1-.38.23Zm-21.81-.13a.25.25,0,0,1-.23-.27.26.26,0,0,1,.18-.22c.65-.14,1.31-.28,2-.4a.27.27,0,0,1,.3.21.26.26,0,0,1-.21.29q-1,.17-1.95.39Zm17.89-.62h0c-.65-.09-1.31-.18-2-.25a.25.25,0,0,1-.23-.27h0a.26.26,0,0,1,.28-.23c.67.08,1.33.16,2,.26a.25.25,0,0,1,0,.5Zm-14-.08a.25.25,0,0,1,0-.5c.66-.09,1.33-.17,2-.23a.24.24,0,0,1,.29.2.25.25,0,0,1-.19.29h-.1c-.67.07-1.32.14-2,.23Zm10-.35h0c-.65,0-1.32-.08-2-.09a.26.26,0,0,1-.25-.26.25.25,0,0,1,.26-.24h0a14.8,14.8,0,0,1,2,.09.25.25,0,0,1,0,.5Zm-6,0a.26.26,0,0,1-.25-.24.23.23,0,0,1,.2-.26h0c.67,0,1.34-.06,2-.07a.29.29,0,0,1,.26.24.26.26,0,0,1-.25.26c-.67,0-1.33,0-2,.06Z" transform="translate(-2.5 0.01)" style="fill:#fcefb2"/><path d="M233.19,57.08l-16.9-30a3.19,3.19,0,0,0-2.78-1.62H196.68a3.19,3.19,0,0,0-3.2,3.18,3.23,3.23,0,0,0,.43,1.61l15.84,27.54a3.23,3.23,0,0,1,0,3.21l-2,3.46-14,24.09a3.2,3.2,0,0,0,2.76,4.81h17.18a3.19,3.19,0,0,0,2.77-1.59L223,80.45h0l6-10.32L233.2,63A5.91,5.91,0,0,0,233.19,57.08Z" transform="translate(-2.5 0.01)" style="fill:#edc04e"/><polygon points="188.74 25.48 201.57 25.79 226.24 69.86 220.27 80.2 188.74 25.48" style="fill:#3577bc"/><polygon points="188.54 92.94 208.13 59.7 214.6 70.86 201.37 93.53 188.54 92.94" style="fill:#9ab964"/><polygon points="201.37 93.53 214.6 70.45 220.27 80.2 212.81 93.14 201.37 93.53" style="fill:#fcefb2"/><path d="M204.07,25.78h9.27a3.4,3.4,0,0,1,2.95,1.72l16.34,28.7a7.7,7.7,0,0,1-.18,7.9l-3.71,5.75Z" transform="translate(-2.5 0.01)" style="fill:#e9764f"/><polygon points="205.71 63.63 208.17 59.3 220.45 80.45 205.71 63.63" style="fill:#6f2b5a;opacity:0.30000001192092896;isolation:isolate"/><path d="M204.7,25.91h9.35a1.74,1.74,0,0,1,1.52.89l17.16,30.52a5.38,5.38,0,0,1,0,5.35L229,69.08,204.7,25.91m-.9-.53L229,70.13,233.2,63a5.91,5.91,0,0,0,0-5.87L215.86,26.27a1.67,1.67,0,0,0-1.46-.86H203.8Z" transform="translate(-2.5 0.01)" style="fill:#fcefb2"/><path d="M192.05,25.87h11.44L228.38,70.1,223,79.41l-5.4-9.32L211.13,59,192.05,25.87m-.91-.52L210.67,59.3l6.42,11.06L223,80.45l6-10.32L203.8,25.38H191.14Z" transform="translate(-2.5 0.01)" style="fill:#fcefb2"/><path d="M217.09,71.41l5.25,9-7.18,12.31H204.75L216.14,73l1-1.63m0-1-1.4,2.42-11.9,20.47h11.62L223,80.45l-5.86-10.09Z" transform="translate(-2.5 0.01)" style="fill:#fcefb2"/><path d="M189.38,30.77l17.88,31.1,3.41-2.57L191.14,25.35l-.78.59A3.72,3.72,0,0,0,189.38,30.77Z" transform="translate(-2.5 0.01)" style="fill:#fcefb2"/><path d="M203.84,93.26h-13l16.82-28.89,3-5.06-3.41,2.57L204.3,67,188.9,93.38a1.63,1.63,0,0,0,.59,2.23,1.68,1.68,0,0,0,.82.22h20a5.08,5.08,0,0,0,3.07-1l2-1.54Z" transform="translate(-2.5 0.01)" style="fill:#fcefb2"/><path d="M210.67,60.34l5.81,10-1.25,2.16L203.54,92.73H191.8l16.37-28.1,2.5-4.29m0-1-3,5.06L190.89,93.25h13l11.85-20.48,1.4-2.42-6.47-11Z" transform="translate(-2.5 0.01)" style="fill:#fcefb2"/><path d="M233.19,57.08,215.86,26.27a1.69,1.69,0,0,0-1.47-.86H191.14L210.67,59.3l-3,5.06L190.89,93.25h24.62L223,80.45h0l6-10.32L233.2,63A5.91,5.91,0,0,0,233.19,57.08Zm-.47,5.64-4.19,7.17-6,10.31-7,12a1.23,1.23,0,0,1-1.05.6H193.09a.73.73,0,0,1-.73-.73.69.69,0,0,1,.1-.37l15.72-27,2.95-5.06.16-.26-.16-.26L192.51,26.7a.48.48,0,0,1,.11-.67.44.44,0,0,1,.27-.09h10.92L214,26a1.89,1.89,0,0,1,1.63,1l17.12,30.42A5.38,5.38,0,0,1,232.72,62.72Z" transform="translate(-2.5 0.01)" style="fill:#fcefb2"/><path d="M169.63,132.27c3.89.9,8,1.82,11.89.51,7.8-2.56,13.14-9.39,16.64-16.53,2-3.3,4-7.72,7.73-9.3-1.87.84-3,2.67-4.12,4.32s-2,3.51-3,5.32c-3.26,7.44-9,14.56-17.05,17-4.08,1.16-8.29.06-12.13-1.32Z" transform="translate(-2.5 0.01)" style="fill:#fbc889"/><path d="M204,109.41c-.56,2.21.07,6.12,1.46,5.68S204,109.41,204,109.41Z" transform="translate(-2.5 0.01)" style="fill:#f2b167"/><path d="M194.71,126c-1.12,2-1.57,5.92-.12,5.87S194.71,126,194.71,126Z" transform="translate(-2.5 0.01)" style="fill:#f2b167"/><path d="M190.56,129.57c-1.48,1.73-2.65,5.52-1.22,5.74S190.56,129.57,190.56,129.57Z" transform="translate(-2.5 0.01)" style="fill:#f2b167"/><path d="M185.69,133.23c-1.48,1.73-2.66,5.52-1.22,5.74S185.69,133.23,185.69,133.23Z" transform="translate(-2.5 0.01)" style="fill:#f2b167"/><path d="M182,135.19c-2,1.13-4.38,4.28-3.11,5S182,135.19,182,135.19Z" transform="translate(-2.5 0.01)" style="fill:#f2b167"/><path d="M177.55,135.75c-2.23.49-5.45,2.8-4.44,3.84S177.55,135.75,177.55,135.75Z" transform="translate(-2.5 0.01)" style="fill:#f2b167"/><path d="M173.39,135c-2.22.49-5.45,2.79-4.44,3.84S173.39,135,173.39,135Z" transform="translate(-2.5 0.01)" style="fill:#f2b167"/><path d="M171.11,134c-2.21-.56-6.12.06-5.69,1.45S171.11,134,171.11,134Z" transform="translate(-2.5 0.01)" style="fill:#f2b167"/><path d="M172,131.92c-2.09-.9-4.81-3.78-3.63-4.62S172,131.92,172,131.92Z" transform="translate(-2.5 0.01)" style="fill:#f2b167"/><path d="M175.79,131.92c-2.09-.9-4.82-3.78-3.63-4.62S175.79,131.92,175.79,131.92Z" transform="translate(-2.5 0.01)" style="fill:#f2b167"/><path d="M179.51,131.92c-2.1-.9-4.82-3.78-3.63-4.62S179.51,131.92,179.51,131.92Z" transform="translate(-2.5 0.01)" style="fill:#f2b167"/><path d="M183.85,130.82c-2.26-.34-5.62-2.43-4.68-3.54S183.85,130.82,183.85,130.82Z" transform="translate(-2.5 0.01)" style="fill:#f2b167"/><path d="M187.16,128.52c-2.28.06-6-1.39-5.24-2.65S187.16,128.52,187.16,128.52Z" transform="translate(-2.5 0.01)" style="fill:#f2b167"/><path d="M190.75,125.41c-2.24.4-6.1-.51-5.57-1.86S190.75,125.41,190.75,125.41Z" transform="translate(-2.5 0.01)" style="fill:#f2b167"/><path d="M193.5,121.81c-2.09.9-6.06.9-5.85-.53S193.5,121.81,193.5,121.81Z" transform="translate(-2.5 0.01)" style="fill:#f2b167"/><path d="M195.83,117.91c-1.88,1.29-5.77,2-5.84.6S195.83,117.91,195.83,117.91Z" transform="translate(-2.5 0.01)" style="fill:#f2b167"/><path d="M198.33,113.18c-1.6,1.62-5.28,3.1-5.62,1.69S198.33,113.18,198.33,113.18Z" transform="translate(-2.5 0.01)" style="fill:#f2b167"/><path d="M200.86,109.75c-2,1.19-5.87,1.75-5.87.3S200.86,109.75,200.86,109.75Z" transform="translate(-2.5 0.01)" style="fill:#f2b167"/><path d="M206.7,122.19c-1.14,2-4.31,4.35-5,3.07S206.7,122.19,206.7,122.19Z" transform="translate(-2.5 0.01)" style="fill:#f2b167"/><path d="M206.7,126.25c-1.14,2-4.31,4.35-5,3.07S206.7,126.25,206.7,126.25Z" transform="translate(-2.5 0.01)" style="fill:#f2b167"/><path d="M206.7,130.43c-1.14,2-4.31,4.35-5,3.07S206.7,130.43,206.7,130.43Z" transform="translate(-2.5 0.01)" style="fill:#f2b167"/><path d="M206.7,134.7c-1.14,2-4.31,4.35-5,3.07S206.7,134.7,206.7,134.7Z" transform="translate(-2.5 0.01)" style="fill:#f2b167"/><path d="M206.53,138.65c-.56,1.72-2.84,3.83-3.77,2.74S206.53,138.65,206.53,138.65Z" transform="translate(-2.5 0.01)" style="fill:#f2b167"/><path d="M208.57,122.19c1.14,2,4.31,4.35,5,3.07S208.57,122.19,208.57,122.19Z" transform="translate(-2.5 0.01)" style="fill:#f2b167"/><path d="M208.57,126.25c1.14,2,4.31,4.35,5,3.07S208.57,126.25,208.57,126.25Z" transform="translate(-2.5 0.01)" style="fill:#f2b167"/><path d="M208.57,130.43c1.14,2,4.31,4.35,5,3.07S208.57,130.43,208.57,130.43Z" transform="translate(-2.5 0.01)" style="fill:#f2b167"/><path d="M208.57,134.7c1.14,2,4.31,4.35,5,3.07S208.57,134.7,208.57,134.7Z" transform="translate(-2.5 0.01)" style="fill:#f2b167"/><path d="M208.75,138.65c.55,1.72,2.83,3.83,3.76,2.74S208.75,138.65,208.75,138.65Z" transform="translate(-2.5 0.01)" style="fill:#f2b167"/><path d="M207.42,139c1.07,2,1.39,6-.06,5.87S207.42,139,207.42,139Z" transform="translate(-2.5 0.01)" style="fill:#f2b167"/><path d="M203.73,107c-2.17.72-6.11.39-5.78-1S203.73,107,203.73,107Z" transform="translate(-2.5 0.01)" style="fill:#f2b167"/><path d="M168.64,132.14c-1.63-1.58-5.34-3-5.65-1.57S168.64,132.14,168.64,132.14Z" transform="translate(-2.5 0.01)" style="fill:#f2b167"/><path d="M201.86,112.65c-.55,2.21-.16,6.43,1.22,6S201.86,112.65,201.86,112.65Z" transform="translate(-2.5 0.01)" style="fill:#f2b167"/><path d="M200.14,116.91c-.55,2.21-.31,7,1.07,6.52S200.14,116.91,200.14,116.91Z" transform="translate(-2.5 0.01)" style="fill:#f2b167"/><path d="M198.07,120.75c-.87,2.11-1.13,7.44.3,7.21S198.07,120.75,198.07,120.75Z" transform="translate(-2.5 0.01)" style="fill:#f2b167"/><path d="M245.24,132.27c-3.84,1.38-8.05,2.48-12.13,1.32-8.08-2.44-13.79-9.56-17.05-17a57,57,0,0,0-3-5.32c-1.12-1.72-2.25-3.48-4.13-4.32,3.76,1.57,5.7,6,7.74,9.3,3.5,7.14,8.84,14,16.63,16.53,3.88,1.31,8,.39,11.9-.51Z" transform="translate(-2.5 0.01)" style="fill:#fbc889"/><path d="M220.15,126c1.13,2,1.58,5.92.12,5.87S220.15,126,220.15,126Z" transform="translate(-2.5 0.01)" style="fill:#f2b167"/><path d="M224.31,129.57c1.48,1.73,2.65,5.52,1.21,5.74S224.31,129.57,224.31,129.57Z" transform="translate(-2.5 0.01)" style="fill:#f2b167"/><path d="M229.18,133.23c1.48,1.73,2.66,5.52,1.22,5.74S229.18,133.23,229.18,133.23Z" transform="translate(-2.5 0.01)" style="fill:#f2b167"/><path d="M232.85,135.19c2,1.13,4.38,4.28,3.11,5S232.85,135.19,232.85,135.19Z" transform="translate(-2.5 0.01)" style="fill:#f2b167"/><path d="M237.32,135.75c2.23.49,5.45,2.8,4.44,3.84S237.32,135.75,237.32,135.75Z" transform="translate(-2.5 0.01)" style="fill:#f2b167"/><path d="M241.48,135c2.22.49,5.45,2.79,4.44,3.84S241.48,135,241.48,135Z" transform="translate(-2.5 0.01)" style="fill:#f2b167"/><path d="M243.76,134c2.21-.56,6.12.06,5.69,1.45S243.76,134,243.76,134Z" transform="translate(-2.5 0.01)" style="fill:#f2b167"/><path d="M242.85,131.92c2.09-.9,4.81-3.78,3.62-4.62S242.85,131.92,242.85,131.92Z" transform="translate(-2.5 0.01)" style="fill:#f2b167"/><path d="M239.08,131.92c2.09-.9,4.82-3.78,3.63-4.62S239.08,131.92,239.08,131.92Z" transform="translate(-2.5 0.01)" style="fill:#f2b167"/><path d="M235.36,131.92c2.09-.9,4.82-3.78,3.63-4.62S235.36,131.92,235.36,131.92Z" transform="translate(-2.5 0.01)" style="fill:#f2b167"/><path d="M231,130.82c2.26-.34,5.62-2.43,4.68-3.54S231,130.82,231,130.82Z" transform="translate(-2.5 0.01)" style="fill:#f2b167"/><path d="M227.71,128.52c2.28.06,6-1.39,5.24-2.65S227.71,128.52,227.71,128.52Z" transform="translate(-2.5 0.01)" style="fill:#f2b167"/><path d="M224.12,125.41c2.24.4,6.1-.51,5.57-1.86S224.12,125.41,224.12,125.41Z" transform="translate(-2.5 0.01)" style="fill:#f2b167"/><path d="M221.37,121.81c2.09.9,6,.9,5.84-.53S221.37,121.81,221.37,121.81Z" transform="translate(-2.5 0.01)" style="fill:#f2b167"/><path d="M219,117.91c1.89,1.29,5.78,2,5.85.6S219,117.91,219,117.91Z" transform="translate(-2.5 0.01)" style="fill:#f2b167"/><path d="M216.54,113.18c1.6,1.62,5.27,3.1,5.62,1.69S216.54,113.18,216.54,113.18Z" transform="translate(-2.5 0.01)" style="fill:#f2b167"/><path d="M214,109.75c2,1.19,5.87,1.75,5.87.3S214,109.75,214,109.75Z" transform="translate(-2.5 0.01)" style="fill:#f2b167"/><path d="M211.14,107c2.16.72,6.11.39,5.78-1S211.14,107,211.14,107Z" transform="translate(-2.5 0.01)" style="fill:#f2b167"/><path d="M246.22,132.14c1.64-1.58,5.35-3,5.66-1.57S246.22,132.14,246.22,132.14Z" transform="translate(-2.5 0.01)" style="fill:#f2b167"/><path d="M213,112.65c.55,2.21.16,6.43-1.22,6S213,112.65,213,112.65Z" transform="translate(-2.5 0.01)" style="fill:#f2b167"/><path d="M210.45,109.48c.55,2.21.16,6.43-1.22,6S210.45,109.48,210.45,109.48Z" transform="translate(-2.5 0.01)" style="fill:#f2b167"/><path d="M214.72,116.91c.56,2.21.32,7-1.07,6.52S214.72,116.91,214.72,116.91Z" transform="translate(-2.5 0.01)" style="fill:#f2b167"/><path d="M216.8,120.75c.87,2.11,1.13,7.44-.3,7.21S216.8,120.75,216.8,120.75Z" transform="translate(-2.5 0.01)" style="fill:#f2b167"/><path d="M207.48,115.34a149.9,149.9,0,0,1,0,24.89A152.1,152.1,0,0,1,207.48,115.34Z" transform="translate(-2.5 0.01)" style="fill:#fbc889"/></g></g></svg>