<svg xmlns="http://www.w3.org/2000/svg" viewBox="0 0 382.89 92.87"><g style="isolation:isolate"><g id="Calque_2" data-name="Calque 2"><g id="Calque_2-2" data-name="Calque 2"><path d="M71.78,12.26h13q12.23,0,19.13,7.24a23.82,23.82,0,0,1,6.9,17,25.23,25.23,0,0,1-7,18.11q-7,7.32-19.13,7.31-1.43,0-5.85-.19t-7.05-.18L60.9,62a1.9,1.9,0,0,1-.3-1.28q0-1.5.3-1.5a12,12,0,0,0,2.82-.52c1.27-.35,2-.73,2.13-1.13A31.26,31.26,0,0,0,66.3,51V22.61a26.19,26.19,0,0,0-.45-5.85c-.15-.4-.88-.85-2.21-1.35a9.47,9.47,0,0,0-2.81-.75q-.3,0-.3-1.35a2.61,2.61,0,0,1,.22-1.43C64.75,12.14,68.43,12.26,71.78,12.26Zm5,10.13v29.1c0,3.25.23,5,.68,5.25q1.65,1,8.47,1a11,11,0,0,0,9.76-5.4q3.44-5.4,3.45-16.12a25.64,25.64,0,0,0-3.64-14,11.35,11.35,0,0,0-10.09-5.74h-.38q-6.37,0-7.27,1.2C77.13,18.56,76.8,20.14,76.8,22.39Z" style="fill:#1a213d"/><path d="M126.08,12.26q3.3,0,11.63-.19t12.6-.19q.08.76,2.17,11.11a2.62,2.62,0,0,1-1.72.37c-.55,0-.9-.17-1-.52a12.64,12.64,0,0,0-4.5-4.88,10.9,10.9,0,0,0-6-2h-2.85c-3.15,0-4.78.32-4.88,1a32.15,32.15,0,0,0-.37,5.85V34.31c0,.3,1.07.45,3.22.45h4q4.65,0,5.1-.3c.25-.2.45-.92.6-2.17a15.31,15.31,0,0,1,.45-2.18c0-.35.42-.52,1.12-.52a2.48,2.48,0,0,1,1.65.37V44.14a2.53,2.53,0,0,1-1.57.3q-1,0-1.2-.6c-.2-.7-.38-1.3-.53-1.8s-.27-.88-.37-1.13a4.65,4.65,0,0,0-.34-.67,2.44,2.44,0,0,0-.26-.38,1.43,1.43,0,0,0-.3-.19,1.15,1.15,0,0,1-.3-.18q-1-.6-5.85-.6-5.4,0-5.4.67V51.11a17.45,17.45,0,0,0,.6,5.33q.38,1.2,5.1,1.2h1.95a17.93,17.93,0,0,0,8.4-2,10.94,10.94,0,0,0,2.89-2.55,14.42,14.42,0,0,0,2.51-4.2q.08-.45,1.05-.45a3.56,3.56,0,0,1,2.25.45q-3.68,10.35-4.05,12.9-3.83,0-12.15-.15t-13.5-.15l-11,.45a1.9,1.9,0,0,1-.3-1.28q0-1.5.3-1.5a11.94,11.94,0,0,0,2.81-.52c1.27-.35,2-.73,2.14-1.13a31.26,31.26,0,0,0,.45-6.6V22.61a26.19,26.19,0,0,0-.45-5.85q-.22-.6-2.22-1.35a9.47,9.47,0,0,0-2.81-.75q-.3,0-.3-1.35a2.58,2.58,0,0,1,.23-1.43C119.06,12.14,122.73,12.26,126.08,12.26Z" style="fill:#1a213d"/><path d="M169.88,12.64q.52,0,11.33-.6a2.44,2.44,0,0,1,.3,1.53c0,.83-.1,1.24-.3,1.24a9.33,9.33,0,0,0-3.11.68c-1.23.45-1.84,1.12-1.84,2A26.34,26.34,0,0,0,178,22.46L188,47.21l10.58-24.67a14.13,14.13,0,0,0,1.5-5.1c0-.75-.51-1.38-1.54-1.88a8.54,8.54,0,0,0-3.78-.75c-.15-.05-.23-.45-.23-1.2a5.6,5.6,0,0,1,.15-1.57c.7.05,2,.16,3.86.33s3.44.27,4.69.27,2.78-.09,4.58-.27S211,12.09,212,12a1.58,1.58,0,0,1,.3,1.12c0,1.05,0,1.58-.15,1.58a9.1,9.1,0,0,0-2.62.63,10.16,10.16,0,0,0-2.93,1.54q-.6.53-2.85,5.48l-16.2,37.27a5.55,5.55,0,0,1-1.54,2,2.82,2.82,0,0,1-1.69.75,2,2,0,0,1-1.72-1l-15.38-38q-2.25-5.62-2.47-6.15a3.48,3.48,0,0,0-2.44-1.84,10.73,10.73,0,0,0-3-.64c-.2,0-.3-.42-.3-1.27a4,4,0,0,1,.15-1.5q.38,0,4.62.3T169.88,12.64Z" style="fill:#1a213d"/><path d="M225.61,12.26q4.88,0,12.6-.19c5.15-.12,9-.19,11.63-.19q.07.76,2.17,11.11a2.62,2.62,0,0,1-1.72.37c-.55,0-.9-.17-1-.52a12.64,12.64,0,0,0-4.5-4.88,10.9,10.9,0,0,0-6-2h-2.85c-3.15,0-4.78.32-4.88,1a32.15,32.15,0,0,0-.37,5.85V34.31c0,.3,1.07.45,3.22.45h4q4.65,0,5.1-.3c.25-.2.45-.92.6-2.17a15.31,15.31,0,0,1,.45-2.18c0-.35.42-.52,1.12-.52a2.48,2.48,0,0,1,1.65.37V44.14a2.53,2.53,0,0,1-1.57.3q-1,0-1.2-.6c-.2-.7-.38-1.3-.53-1.8s-.27-.88-.37-1.13a4.65,4.65,0,0,0-.34-.67,3.5,3.5,0,0,0-.26-.38,1.43,1.43,0,0,0-.3-.19,1.15,1.15,0,0,1-.3-.18q-1-.6-5.85-.6-5.4,0-5.4.67V51.11a29,29,0,0,0,.52,6.15c.15.6,1,1.08,2.48,1.43a16.27,16.27,0,0,0,3.37.52c.2,0,.3.48.3,1.43a4.55,4.55,0,0,1-.15,1.35q-9-.45-11.47-.45L214.74,62a1.9,1.9,0,0,1-.3-1.28q0-1.5.3-1.5a11.94,11.94,0,0,0,2.81-.52c1.27-.35,2-.73,2.14-1.13a31.26,31.26,0,0,0,.45-6.6V22.61a26.19,26.19,0,0,0-.45-5.85q-.23-.6-2.22-1.35a9.47,9.47,0,0,0-2.81-.75q-.3,0-.3-1.35a2.58,2.58,0,0,1,.23-1.43C219.09,12.14,222.76,12.26,225.61,12.26Z" style="fill:#1a213d"/><path d="M267.09,12.26q3.3,0,11.62-.19t12.6-.19q.07.76,2.18,11.11a2.64,2.64,0,0,1-1.73.37c-.55,0-.89-.17-1-.52A12.74,12.74,0,0,0,286.21,18a10.9,10.9,0,0,0-6-2h-2.85c-3.15,0-4.77.32-4.87,1a31.93,31.93,0,0,0-.38,5.85V34.31c0,.3,1.08.45,3.23.45h4q4.65,0,5.1-.3c.25-.2.45-.92.6-2.17a15.31,15.31,0,0,1,.45-2.18c.05-.35.43-.52,1.13-.52a2.48,2.48,0,0,1,1.65.37V44.14a2.57,2.57,0,0,1-1.58.3q-1,0-1.2-.6c-.2-.7-.37-1.3-.52-1.8s-.28-.88-.37-1.13a6,6,0,0,0-.34-.67,3.1,3.1,0,0,0-.27-.38,1.43,1.43,0,0,0-.3-.19,1.15,1.15,0,0,1-.3-.18q-1-.6-5.85-.6-5.4,0-5.4.67V51.11a17.45,17.45,0,0,0,.6,5.33q.38,1.2,5.1,1.2h1.95a17.93,17.93,0,0,0,8.4-2,10.79,10.79,0,0,0,2.89-2.55,14.24,14.24,0,0,0,2.52-4.2c0-.3.39-.45,1-.45a3.58,3.58,0,0,1,2.26.45c-2.46,6.9-3.8,11.2-4.05,12.9q-3.82,0-12.16-.15t-13.5-.15l-11,.45a1.9,1.9,0,0,1-.3-1.28q0-1.5.3-1.5a12,12,0,0,0,2.82-.52c1.27-.35,2-.73,2.13-1.13a31.26,31.26,0,0,0,.45-6.6V22.61a26.19,26.19,0,0,0-.45-5.85c-.15-.4-.88-.85-2.21-1.35a9.47,9.47,0,0,0-2.81-.75q-.3,0-.3-1.35a2.61,2.61,0,0,1,.22-1.43C260.06,12.14,263.74,12.26,267.09,12.26Z" style="fill:#1a213d"/><path d="M301.07,25q0-5.62,5-9.6a17.25,17.25,0,0,1,11-4,24.62,24.62,0,0,1,3.26.23q1.69.23,2.85.45c.78.15,1.85.39,3.23.71s2.46.57,3.26.72A113.14,113.14,0,0,1,330.47,26a1.12,1.12,0,0,1-1.13.75c-1.45,0-2.22-.18-2.32-.53a14.77,14.77,0,0,0-3.23-7.16,8.19,8.19,0,0,0-6.67-3.41,6.26,6.26,0,0,0-4.32,1.57q-1.76,1.58-1.76,5a6.19,6.19,0,0,0,.75,2.92,10.42,10.42,0,0,0,2.51,2.93,33.72,33.72,0,0,0,2.89,2.25q1.13.75,3.68,2.4c.45.3.8.52,1.05.67l2.47,1.5c1.25.75,2.14,1.31,2.66,1.69a24.3,24.3,0,0,1,2.18,1.84,9.2,9.2,0,0,1,2,2.51,15.81,15.81,0,0,1,1.17,3.22,17.22,17.22,0,0,1,.52,4.39A12.2,12.2,0,0,1,328,58.5a17.77,17.77,0,0,1-11.4,3.94,64,64,0,0,1-14.25-1.95,62.19,62.19,0,0,1-1.16-6.57,49.53,49.53,0,0,1-.56-5.88c.15-.5.6-.75,1.34-.75,1.55,0,2.36.15,2.41.45a14.11,14.11,0,0,0,3.75,6.94,9.28,9.28,0,0,0,7,3.48q7.43,0,7.43-8.17a5.24,5.24,0,0,0-.68-2.52,9.3,9.3,0,0,0-2-2.43,29.68,29.68,0,0,0-2.4-1.95c-.71-.5-1.69-1.15-3-2s-2.08-1.33-2.43-1.58-.63-.4-1.13-.75q-2.47-1.65-3.75-2.62a28.29,28.29,0,0,1-3-2.7,10.05,10.05,0,0,1-2.4-3.79A14.22,14.22,0,0,1,301.07,25Z" style="fill:#1a213d"/><path d="M351.58,12.19c3.38.15,6.11.22,8.21.22s4.85-.07,8.25-.22,6.15-.23,8.25-.23a22.81,22.81,0,0,0,5.18-.82l1.42,12.3a3.18,3.18,0,0,1-2.17.52c-.45,0-.7-.12-.75-.37q-1.87-7.43-8-7.43t-6.37,1.35a26.68,26.68,0,0,0-.6,6.68V51.26a25.1,25.1,0,0,0,.6,6.08c.1.35.79.75,2.06,1.2a9.83,9.83,0,0,0,2.59.67c.2,0,.3.48.3,1.43a4.55,4.55,0,0,1-.15,1.35q-.53,0-4.5-.3t-5.93-.3q-2,0-5.92.26l-4.95.34a1.74,1.74,0,0,1-.3-1.2c0-1,.07-1.58.22-1.58a10.63,10.63,0,0,0,2.78-.63c1.3-.43,2-.84,2.17-1.24a24.34,24.34,0,0,0,.53-5.78V24.41q0-5.85-.6-6.9a2.84,2.84,0,0,0-.41-.64,5.11,5.11,0,0,0-1.62-.45,24.91,24.91,0,0,0-4.12-.26,7.39,7.39,0,0,0-5,1.69,11,11,0,0,0-3,5.66c-.05.25-.3.38-.75.38a3.17,3.17,0,0,1-2.17-.53l1.42-12.22a22.81,22.81,0,0,0,5.18.82Q346.52,12,351.58,12.19Z" style="fill:#1a213d"/><path d="M46.44,33.11,28.81,1.76a3.35,3.35,0,0,0-2.9-1.7L15.77,0,8.35,0a3.33,3.33,0,0,0-2.9,5L22,33.75a3.32,3.32,0,0,1,0,3.34l-2.11,3.62L5.22,65.84a3.34,3.34,0,0,0,2.88,5h7.72l10.2,0a3.34,3.34,0,0,0,2.89-1.66L35.76,57.5h0l6.29-10.77,4.38-7.49A6.2,6.2,0,0,0,46.44,33.11Z" style="fill:#edc04e"/><polygon points="2.67 0.14 16.05 0.45 41.8 46.44 35.57 57.23 2.67 0.14" style="fill:#3577bc"/><polygon points="2.46 70.52 22.91 35.85 29.65 47.47 15.85 71.14 2.46 70.52" style="fill:#9ab964"/><polygon points="15.85 71.14 29.65 47.06 35.57 57.23 27.78 70.72 15.85 71.14" style="fill:#fcefb2"/><path d="M16.06.45h9.67A3.55,3.55,0,0,1,28.8,2.24L45.85,32.19a8,8,0,0,1-.19,8.24l-3.86,6Z" style="fill:#e9764f"/><polygon points="20.37 39.95 22.94 35.42 35.76 57.5 20.37 39.95" style="fill:#6f2b5a;opacity:0.30000000000000004;mix-blend-mode:multiply"/><path d="M16.71.59l9.76,0a1.81,1.81,0,0,1,1.58.93L46,33.38A5.64,5.64,0,0,1,46,39l-3.89,6.67L16.71.59M15.77,0,42.05,46.73l4.38-7.49a6.2,6.2,0,0,0,0-6.13L28.36,1a1.79,1.79,0,0,0-1.53-.9L15.77,0Z" style="fill:#1a213d"/><path d="M3.52.55l11.93,0,26,46.14-5.66,9.69-5.64-9.72-6.7-11.54L3.52.55M2.57,0,22.94,35.42,29.64,47,35.76,57.5l6.29-10.77L15.77,0,2.57,0Z" style="fill:#1a213d"/><path d="M29.64,48.06l5.48,9.44L27.63,70.34l-10.86,0L28.65,49.77l1-1.71m0-1.1-1.46,2.53L15.82,70.86l12.12,0L35.76,57.5,29.64,47Z" style="fill:#1a213d"/><path d="M.73,5.66,19.39,38.11l3.55-2.69L2.57,0,1.75.62A3.89,3.89,0,0,0,.73,5.66Z" style="fill:#1a213d"/><path d="M15.82,70.86H2.3L19.86,40.71l3.08-5.29-3.55,2.69-3.08,5.28L.23,71A1.7,1.7,0,0,0,1.7,73.54H12.27l10.34,0a5.23,5.23,0,0,0,3.2-1.07l2.13-1.61Z" style="fill:#1a213d"/><path d="M22.94,36.51,29,47,27.7,49.22,15.51,70.31H3.25L20.33,41l2.61-4.47m0-1.09-3.08,5.29L2.3,70.85H15.82L28.18,49.49,29.64,47l-6.7-11.54Z" style="fill:#1a213d"/><path d="M46.44,33.11,28.36,1A1.78,1.78,0,0,0,26.82.06l-11,0L2.57,0,22.94,35.42l-3.08,5.29L2.3,70.85H15.82l12.12,0L35.76,57.5h0l6.29-10.77,4.38-7.49A6.2,6.2,0,0,0,46.44,33.11ZM46,39l-4.37,7.48L35.29,57.23,28,69.71a1.28,1.28,0,0,1-1.11.63l-11.07,0H4.6a.77.77,0,0,1-.66-1.16L20.34,41l3.09-5.28.16-.27-.16-.28L4,1.42a.51.51,0,0,1,.4-.8l11.38,0,10.61,0a2,2,0,0,1,1.71,1L46,33.41A5.64,5.64,0,0,1,46,39Z" style="fill:#1a213d"/><path d="M231.7,92.73c-.21,0-.49-.21-.86-.64l-11.27-14v10.6a5.56,5.56,0,0,0,.22,2,1.31,1.31,0,0,0,.67.54,4.25,4.25,0,0,0,1,.35,4.59,4.59,0,0,0,.8.11s.07.08.09.24,0,.31,0,.48a.74.74,0,0,1,0,.33,18.22,18.22,0,0,1-2.26-.11,14.09,14.09,0,0,0-1.48-.11q-.66,0-1,0l-.87.08c-.33,0-.83.08-1.51.11-.06,0-.08-.22-.08-.5s0-.52.08-.52a4,4,0,0,0,1.34-.26,1.87,1.87,0,0,0,1-.79,4.49,4.49,0,0,0,.28-2V77.73a3.32,3.32,0,0,0-.42-2c0-.09-.22-.17-.51-.23s-.59-.12-.91-.17a5.27,5.27,0,0,0-.76-.07s-.07-.07-.1-.22a1.88,1.88,0,0,1,0-.48c0-.18,0-.29.07-.32l1.77.11,1.15.08.87,0c.32,0,.7,0,1.15-.06s1-.09,1.57-.16a16.88,16.88,0,0,0,1.53,2.43c.66.89,1.4,1.83,2.22,2.81l2.54,3.06c.88,1.05,1.71,2.11,2.51,3.16a2.46,2.46,0,0,0,0-.39c0-.18,0-.43,0-.75v-6.5a3.43,3.43,0,0,0-.36-2,1.51,1.51,0,0,0-.59-.4,6.61,6.61,0,0,0-.89-.29,3.45,3.45,0,0,0-.67-.11s-.07-.07-.1-.22a2.45,2.45,0,0,1,0-.48c0-.18,0-.29.05-.32.85.07,1.58.13,2.19.16s1.1.06,1.47.06.71,0,1.19-.06l1.37-.11.87,0a1,1,0,0,1,.11.5c0,.35,0,.52-.14.52a2.93,2.93,0,0,0-2.3.91,3.52,3.52,0,0,0-.38,2V88.74c0,.34,0,.83,0,1.47s0,1.45.09,2.41A1.29,1.29,0,0,1,231.7,92.73Z" style="fill:#fff"/><path d="M234.57,92.7a.59.59,0,0,1-.11-.41c0-.39,0-.58.06-.58a2.51,2.51,0,0,0,.66-.14,5.45,5.45,0,0,0,.87-.35,1.2,1.2,0,0,0,.54-.4,6.44,6.44,0,0,0,.47-.82,6,6,0,0,0,.36-.78l.14-.34,6.12-14.06a1,1,0,0,1,1-.72.78.78,0,0,1,.67.36l5.67,14c.17.42.33.82.49,1.2s.3.73.43,1.07a1,1,0,0,0,.5.48,3.66,3.66,0,0,0,.84.32,3.43,3.43,0,0,0,.71.11c.07,0,.11.16.11.47a1.48,1.48,0,0,1-.06.55l-1.69-.11L251,92.5a6.21,6.21,0,0,0-.94,0l-4.18.22c-.08-.07-.11-.26-.11-.58s0-.44.11-.44a3.32,3.32,0,0,0,1.24-.26c.43-.18.64-.41.64-.71,0,0-.05-.18-.15-.5s-.28-.76-.54-1.36l-.83-2a.34.34,0,0,0-.2-.11l-.94,0h-3.33l-1.18,0a.23.23,0,0,0-.19.14L239.47,89a7.71,7.71,0,0,0-.54,1.6.75.75,0,0,0,.49.78,2.85,2.85,0,0,0,.87.29c.25,0,.47,0,.65,0s.08.17.08.44a2.9,2.9,0,0,1-.05.58c-.83,0-1.44-.1-1.82-.14l-.84-.06a3.94,3.94,0,0,0-.59,0l-1,.07ZM243.38,85h1l.93,0,.08-.14-2-5-2.16,5c0,.08,0,.11.06.11A19.73,19.73,0,0,0,243.38,85Z" style="fill:#fff"/><path d="M271.47,92.73c-.2,0-.48-.21-.85-.64l-11.27-14v10.6a5.56,5.56,0,0,0,.22,2,1.31,1.31,0,0,0,.67.54,4.25,4.25,0,0,0,1,.35,4.59,4.59,0,0,0,.8.11s.07.08.09.24,0,.31,0,.48a.74.74,0,0,1-.05.33,18.22,18.22,0,0,1-2.26-.11,14.09,14.09,0,0,0-1.48-.11q-.66,0-1.05,0l-.87.08c-.33,0-.83.08-1.51.11-.06,0-.09-.22-.09-.5s0-.52.09-.52a4,4,0,0,0,1.34-.26,1.87,1.87,0,0,0,1-.79,4.49,4.49,0,0,0,.28-2V77.73a3.32,3.32,0,0,0-.42-2c-.05-.09-.22-.17-.51-.23s-.59-.12-.91-.17a5.27,5.27,0,0,0-.76-.07s-.07-.07-.1-.22a1.88,1.88,0,0,1,0-.48c0-.18,0-.29.07-.32l1.77.11,1.15.08.87,0c.32,0,.7,0,1.15-.06s1-.09,1.57-.16A16,16,0,0,0,263,76.7c.66.89,1.4,1.83,2.22,2.81l2.54,3.06c.88,1.05,1.71,2.11,2.51,3.16a2.46,2.46,0,0,0,0-.39c0-.18,0-.43,0-.75v-6.5a3.43,3.43,0,0,0-.36-2,1.51,1.51,0,0,0-.59-.4,6.61,6.61,0,0,0-.89-.29,3.41,3.41,0,0,0-.68-.11s-.06-.07-.09-.22a2.45,2.45,0,0,1,0-.48c0-.18,0-.29.05-.32.85.07,1.58.13,2.19.16s1.1.06,1.47.06.71,0,1.19-.06l1.37-.11.87,0a1,1,0,0,1,.11.5c0,.35-.05.52-.14.52a2.93,2.93,0,0,0-2.3.91,3.52,3.52,0,0,0-.38,2V88.74c0,.34,0,.83,0,1.47s.05,1.45.09,2.41A1.31,1.31,0,0,1,271.47,92.73Z" style="fill:#fff"/><path d="M280.8,92.7a.65.65,0,0,1-.11-.44c0-.39,0-.58.09-.58a3,3,0,0,0,.63-.11,5.49,5.49,0,0,0,.78-.28c.24-.11.38-.21.41-.3a3.93,3.93,0,0,0,.15-.92c0-.35.05-.75.05-1.22v-10a7.55,7.55,0,0,0-.23-2.54l-.13-.25a1.58,1.58,0,0,0-.72-.18,11.92,11.92,0,0,0-1.42-.07,2.76,2.76,0,0,0-1.85.62,4.11,4.11,0,0,0-1.11,2.09c0,.09-.13.14-.27.14a1.19,1.19,0,0,1-.81-.19l.53-4.52c.4.1.76.17,1.08.23a5.37,5.37,0,0,0,.83.08c.94,0,1.95,0,3,.08s2.09.08,3,.08,2,0,3.05-.08,2.1-.08,3-.08a5.37,5.37,0,0,0,.83-.08c.31-.06.68-.13,1.08-.23l.53,4.54a1.18,1.18,0,0,1-.81.2c-.14,0-.24,0-.27-.14-.46-1.83-1.45-2.74-3-2.74s-2.26.17-2.36.5a5.38,5.38,0,0,0-.16,1q-.06.61-.06,1.47v10a11.63,11.63,0,0,0,.06,1.25,6.76,6.76,0,0,0,.16,1,1,1,0,0,0,.4.27,5.09,5.09,0,0,0,.75.29,2.08,2.08,0,0,0,.57.13c.07,0,.11.17.11.52a1.85,1.85,0,0,1-.06.5l-.52,0L287,92.59l-1.27-.08-.91,0c-.34,0-.79,0-1.36.06l-1.62.09Z" style="fill:#fff"/><path d="M294.86,92.7a.71.71,0,0,1-.11-.47c0-.37,0-.55.11-.55a4,4,0,0,0,.64-.08,4.45,4.45,0,0,0,.78-.24.76.76,0,0,0,.41-.29,11.59,11.59,0,0,0,.17-2.44V78.17a9.48,9.48,0,0,0-.17-2.16c0-.11-.18-.23-.43-.35a5,5,0,0,0-.79-.3,2.47,2.47,0,0,0-.63-.12c-.08,0-.11-.17-.11-.5s0-.47.08-.53l2.12.1c.67,0,1.32,0,1.95,0,.81,0,2.24,0,4.29-.08l2.71,0h1.94c0,.09.09.48.22,1.16s.32,1.66.58,2.94a1,1,0,0,1-.63.14c-.21,0-.34-.07-.39-.2a3.75,3.75,0,0,0-1-1.28,5.85,5.85,0,0,0-1.42-.92,3.54,3.54,0,0,0-1.48-.34h-1.05q-1.77,0-1.8.36a7.34,7.34,0,0,0-.09.87c0,.36,0,.79,0,1.28v4.27c0,.11.4.16,1.19.16h1.47a6.85,6.85,0,0,0,1.88-.11,1.62,1.62,0,0,0,.22-.8,5.61,5.61,0,0,1,.17-.8c0-.13.16-.2.42-.2a1,1,0,0,1,.61.14v5.23c-.08.08-.27.11-.59.11s-.38-.07-.44-.22c-.22-.72-.37-1.16-.44-1.32s-.13-.19-.15-.18a.4.4,0,0,1-.18-.1,5.91,5.91,0,0,0-2.16-.22c-1.33,0-2,.08-2,.25v4.26a6.8,6.8,0,0,0,.22,2q.12.45,1.89.45h.72a6.65,6.65,0,0,0,3.1-.72,4,4,0,0,0,1.06-.94,5.33,5.33,0,0,0,.93-1.55c0-.11.17-.17.39-.17a1.31,1.31,0,0,1,.83.17,33.06,33.06,0,0,0-1.5,4.76l-1.81,0-2.67,0-2.77-.07c-.83,0-1.57,0-2.21,0Z" style="fill:#fff"/><path d="M317.15,92.87a17.69,17.69,0,0,1-2.41-.18q-1.31-.18-2.85-.54c-.09-.41-.19-.91-.29-1.52s-.19-1.21-.25-1.79a11.61,11.61,0,0,1-.1-1.29c.06-.18.22-.27.5-.27.57,0,.87,0,.89.16a5.1,5.1,0,0,0,.74,1.73,5.57,5.57,0,0,0,1.43,1.51,3,3,0,0,0,1.79.61c1.82,0,2.74-1,2.74-3a2.08,2.08,0,0,0-.63-1.46,7,7,0,0,0-1.44-1.19l-1.39-.92-.83-.55c-.63-.43-1.22-.86-1.78-1.32a5.57,5.57,0,0,1-1.34-1.57,4.42,4.42,0,0,1-.51-2.2,4.13,4.13,0,0,1,.86-2.55,6,6,0,0,1,2.21-1.8,6.42,6.42,0,0,1,2.83-.66,8.43,8.43,0,0,1,1.2.08c.42.05.77.11,1.07.16.55.11,1,.22,1.42.32s.72.17,1,.21c.09.9.16,1.74.22,2.49s.08,1.46.08,2.11a.4.4,0,0,1-.41.27c-.56,0-.84-.06-.86-.19a5,5,0,0,0-.61-1.83,4.81,4.81,0,0,0-1.28-1.48,2.78,2.78,0,0,0-1.77-.59,2.31,2.31,0,0,0-1.59.58A2.36,2.36,0,0,0,315.1,78a2.55,2.55,0,0,0,1,2,23.86,23.86,0,0,0,2.62,1.89l1.41.88a12.94,12.94,0,0,1,1.47,1,4.31,4.31,0,0,1,1.13,1.47,5.54,5.54,0,0,1,.44,2.45,4.39,4.39,0,0,1-.84,2.63,5.81,5.81,0,0,1-2.21,1.82A6.68,6.68,0,0,1,317.15,92.87Z" style="fill:#fff"/><path d="M330.69,92.59a1.6,1.6,0,0,1-.34-.91c.89-1,1.73-2,2.54-3.07s1.51-2.13,2.14-3.17a19.81,19.81,0,0,0,1.48-3,6.75,6.75,0,0,0,.54-2.38,3.54,3.54,0,0,0-.63-2.09,2,2,0,0,0-1.72-.9,2.88,2.88,0,0,0-1.51.39A3.86,3.86,0,0,0,332,78.7l-.28.38a1,1,0,0,1-.51-.2.58.58,0,0,1-.29-.49,5.08,5.08,0,0,1,.59-1,12.2,12.2,0,0,1,1-1.15,4.85,4.85,0,0,1,1.57-1,5.39,5.39,0,0,1,2.08-.39,5.08,5.08,0,0,1,2.46.58,4.37,4.37,0,0,1,1.71,1.65,5,5,0,0,1,.62,2.53,5.73,5.73,0,0,1-.65,2.84,25.46,25.46,0,0,1-1.46,2.26,12.39,12.39,0,0,1-1.52,1.71l-.88.89c-.23.22-.43.42-.63.59l-.69.64-1.09,1a.14.14,0,0,0,0,.15.12.12,0,0,0,.14.1h4.73a1.78,1.78,0,0,0,1.88-1.23,9.87,9.87,0,0,0,.39-1.23c0-.13.18-.2.47-.2a1,1,0,0,1,.64.17c-.19.79-.37,1.59-.54,2.41s-.36,1.65-.54,2.51q-.06.39-.33.39Z" style="fill:#fff"/><path d="M350.06,92.68a4.75,4.75,0,0,1-2.43-.68,6.69,6.69,0,0,1-2.06-1.89,9.49,9.49,0,0,1-1.43-2.78,10.85,10.85,0,0,1,0-6.7,9.49,9.49,0,0,1,1.43-2.78A6.77,6.77,0,0,1,347.63,76a4.75,4.75,0,0,1,2.43-.68,4.58,4.58,0,0,1,2.38.68,6.89,6.89,0,0,1,2,1.88,9.49,9.49,0,0,1,1.4,2.77,11.29,11.29,0,0,1,0,6.71,9.43,9.43,0,0,1-1.4,2.78,6.79,6.79,0,0,1-2,1.89A4.58,4.58,0,0,1,350.06,92.68Zm0-1.44c.81,0,1.42-.67,1.83-2a20,20,0,0,0,.58-5.42,17.38,17.38,0,0,0-.64-5.23c-.4-1.28-1-1.91-1.77-1.91s-1.43.66-1.91,2a16.41,16.41,0,0,0-.69,5.29,14.88,14.88,0,0,0,.77,5.23C348.76,90.55,349.37,91.24,350.09,91.24Z" style="fill:#fff"/><path d="M358.09,92.59a1.67,1.67,0,0,1-.33-.91c.88-1,1.73-2,2.53-3.07s1.52-2.13,2.15-3.17a20.83,20.83,0,0,0,1.48-3,6.75,6.75,0,0,0,.54-2.38,3.55,3.55,0,0,0-.64-2.09,2,2,0,0,0-1.72-.9,2.84,2.84,0,0,0-1.5.39,3.78,3.78,0,0,0-1.21,1.19l-.28.38a1,1,0,0,1-.51-.2.6.6,0,0,1-.29-.49,5.7,5.7,0,0,1,.6-1,11.93,11.93,0,0,1,1-1.15,4.79,4.79,0,0,1,1.58-1,5.37,5.37,0,0,1,2.07-.39,5.09,5.09,0,0,1,2.47.58,4.35,4.35,0,0,1,1.7,1.65,4.87,4.87,0,0,1,.62,2.53,5.63,5.63,0,0,1-.65,2.84,25.32,25.32,0,0,1-1.45,2.26,14,14,0,0,1-1.52,1.71l-.89.89c-.22.22-.43.42-.62.59l-.69.64-1.1,1a.19.19,0,0,0,0,.15.13.13,0,0,0,.14.1h4.74a1.78,1.78,0,0,0,1.88-1.23,9.87,9.87,0,0,0,.39-1.23c0-.13.17-.2.47-.2a1,1,0,0,1,.63.17c-.18.79-.36,1.59-.54,2.41s-.35,1.65-.54,2.51q0,.39-.33.39Z" style="fill:#fff"/><path d="M374.51,92.7a5.77,5.77,0,0,1-3.24-.94,2.5,2.5,0,0,1-.17-.8,2.53,2.53,0,0,1,.26-1.15.94.94,0,0,1,.9-.51,2,2,0,0,1,1.55,1,2.46,2.46,0,0,0,3.94,0,5,5,0,0,0,.69-2.86,4.19,4.19,0,0,0-.78-2.62,2.53,2.53,0,0,0-2.13-1c-.2,0-.43,0-.69,0l-.83.1a1.29,1.29,0,0,1-.2-.83,1,1,0,0,1,.09-.42,4,4,0,0,0,2.47-1.23,3.53,3.53,0,0,0,.91-2.48,2.34,2.34,0,0,0-.52-1.66,1.58,1.58,0,0,0-1.17-.52A3.4,3.4,0,0,0,373,77.92c-.12,0-.26-.09-.41-.28a.79.79,0,0,1-.22-.47,5.82,5.82,0,0,1,2.1-1.7,6.35,6.35,0,0,1,2.85-.65,3.39,3.39,0,0,1,1.51.36A3.13,3.13,0,0,1,380,76.25a3,3,0,0,1,.48,1.75,4.23,4.23,0,0,1-.36,1.71,6.1,6.1,0,0,1-.9,1.45,4.56,4.56,0,0,1-1.09,1,2.73,2.73,0,0,1,1.23.34,6,6,0,0,1,1.32,1,5.29,5.29,0,0,1,1.05,1.44,3.9,3.9,0,0,1,.41,1.8,5,5,0,0,1-.63,2.48,6.11,6.11,0,0,1-1.75,1.91,8.68,8.68,0,0,1-2.46,1.21A9.18,9.18,0,0,1,374.51,92.7Z" style="fill:#fff"/></g></g></g></svg>